G04 #@! TF.FileFunction,Legend,Bot*
%FSLAX46Y46*%
G04 Gerber Fmt 4.6, Leading zero omitted, Abs format (unit mm)*
G04 Created by KiCad (PCBNEW 4.0.7) date Saturday, 20 '20e' October '20e' 2018 20:32:08*
%MOMM*%
%LPD*%
G01*
G04 APERTURE LIST*
%ADD10C,0.500000*%
%ADD11C,0.300000*%
%ADD12C,0.150000*%
%ADD13C,0.120000*%
G04 APERTURE END LIST*
D10*
D11*
X120921429Y-88528571D02*
X120921429Y-89742857D01*
X120850001Y-89885714D01*
X120778572Y-89957143D01*
X120635715Y-90028571D01*
X120350001Y-90028571D01*
X120207143Y-89957143D01*
X120135715Y-89885714D01*
X120064286Y-89742857D01*
X120064286Y-88528571D01*
X119421429Y-89957143D02*
X119207143Y-90028571D01*
X118850000Y-90028571D01*
X118707143Y-89957143D01*
X118635714Y-89885714D01*
X118564286Y-89742857D01*
X118564286Y-89600000D01*
X118635714Y-89457143D01*
X118707143Y-89385714D01*
X118850000Y-89314286D01*
X119135714Y-89242857D01*
X119278572Y-89171429D01*
X119350000Y-89100000D01*
X119421429Y-88957143D01*
X119421429Y-88814286D01*
X119350000Y-88671429D01*
X119278572Y-88600000D01*
X119135714Y-88528571D01*
X118778572Y-88528571D01*
X118564286Y-88600000D01*
X117421429Y-89242857D02*
X117207143Y-89314286D01*
X117135715Y-89385714D01*
X117064286Y-89528571D01*
X117064286Y-89742857D01*
X117135715Y-89885714D01*
X117207143Y-89957143D01*
X117350001Y-90028571D01*
X117921429Y-90028571D01*
X117921429Y-88528571D01*
X117421429Y-88528571D01*
X117278572Y-88600000D01*
X117207143Y-88671429D01*
X117135715Y-88814286D01*
X117135715Y-88957143D01*
X117207143Y-89100000D01*
X117278572Y-89171429D01*
X117421429Y-89242857D01*
X117921429Y-89242857D01*
X114421429Y-89885714D02*
X114492858Y-89957143D01*
X114707144Y-90028571D01*
X114850001Y-90028571D01*
X115064286Y-89957143D01*
X115207144Y-89814286D01*
X115278572Y-89671429D01*
X115350001Y-89385714D01*
X115350001Y-89171429D01*
X115278572Y-88885714D01*
X115207144Y-88742857D01*
X115064286Y-88600000D01*
X114850001Y-88528571D01*
X114707144Y-88528571D01*
X114492858Y-88600000D01*
X114421429Y-88671429D01*
X113492858Y-88528571D02*
X113207144Y-88528571D01*
X113064286Y-88600000D01*
X112921429Y-88742857D01*
X112850001Y-89028571D01*
X112850001Y-89528571D01*
X112921429Y-89814286D01*
X113064286Y-89957143D01*
X113207144Y-90028571D01*
X113492858Y-90028571D01*
X113635715Y-89957143D01*
X113778572Y-89814286D01*
X113850001Y-89528571D01*
X113850001Y-89028571D01*
X113778572Y-88742857D01*
X113635715Y-88600000D01*
X113492858Y-88528571D01*
X112207143Y-90028571D02*
X112207143Y-88528571D01*
X111350000Y-90028571D01*
X111350000Y-88528571D01*
X110635714Y-90028571D02*
X110635714Y-88528571D01*
X109778571Y-90028571D01*
X109778571Y-88528571D01*
D12*
X30600000Y-34600000D02*
X141600000Y-34600000D01*
X141600000Y-34600000D02*
X141600000Y-94600000D01*
X141600000Y-94600000D02*
X30600000Y-94600000D01*
X30600000Y-94600000D02*
X30600000Y-34600000D01*
D13*
X47190000Y-75850000D02*
G75*
G03X47190000Y-75850000I-4090000J0D01*
G01*
X39050000Y-75850000D02*
X47150000Y-75850000D01*
X39050000Y-75890000D02*
X47150000Y-75890000D01*
X39050000Y-75930000D02*
X47150000Y-75930000D01*
X39051000Y-75970000D02*
X47149000Y-75970000D01*
X39053000Y-76010000D02*
X47147000Y-76010000D01*
X39054000Y-76050000D02*
X47146000Y-76050000D01*
X39057000Y-76090000D02*
X47143000Y-76090000D01*
X39059000Y-76130000D02*
X47141000Y-76130000D01*
X39062000Y-76170000D02*
X47138000Y-76170000D01*
X39065000Y-76210000D02*
X47135000Y-76210000D01*
X39069000Y-76250000D02*
X47131000Y-76250000D01*
X39073000Y-76290000D02*
X47127000Y-76290000D01*
X39078000Y-76330000D02*
X47122000Y-76330000D01*
X39083000Y-76370000D02*
X47117000Y-76370000D01*
X39088000Y-76410000D02*
X47112000Y-76410000D01*
X39094000Y-76450000D02*
X47106000Y-76450000D01*
X39100000Y-76490000D02*
X47100000Y-76490000D01*
X39106000Y-76530000D02*
X47094000Y-76530000D01*
X39113000Y-76571000D02*
X47087000Y-76571000D01*
X39121000Y-76611000D02*
X47079000Y-76611000D01*
X39129000Y-76651000D02*
X42120000Y-76651000D01*
X44080000Y-76651000D02*
X47071000Y-76651000D01*
X39137000Y-76691000D02*
X42120000Y-76691000D01*
X44080000Y-76691000D02*
X47063000Y-76691000D01*
X39145000Y-76731000D02*
X42120000Y-76731000D01*
X44080000Y-76731000D02*
X47055000Y-76731000D01*
X39154000Y-76771000D02*
X42120000Y-76771000D01*
X44080000Y-76771000D02*
X47046000Y-76771000D01*
X39164000Y-76811000D02*
X42120000Y-76811000D01*
X44080000Y-76811000D02*
X47036000Y-76811000D01*
X39174000Y-76851000D02*
X42120000Y-76851000D01*
X44080000Y-76851000D02*
X47026000Y-76851000D01*
X39184000Y-76891000D02*
X42120000Y-76891000D01*
X44080000Y-76891000D02*
X47016000Y-76891000D01*
X39195000Y-76931000D02*
X42120000Y-76931000D01*
X44080000Y-76931000D02*
X47005000Y-76931000D01*
X39206000Y-76971000D02*
X42120000Y-76971000D01*
X44080000Y-76971000D02*
X46994000Y-76971000D01*
X39217000Y-77011000D02*
X42120000Y-77011000D01*
X44080000Y-77011000D02*
X46983000Y-77011000D01*
X39230000Y-77051000D02*
X42120000Y-77051000D01*
X44080000Y-77051000D02*
X46970000Y-77051000D01*
X39242000Y-77091000D02*
X42120000Y-77091000D01*
X44080000Y-77091000D02*
X46958000Y-77091000D01*
X39255000Y-77131000D02*
X42120000Y-77131000D01*
X44080000Y-77131000D02*
X46945000Y-77131000D01*
X39268000Y-77171000D02*
X42120000Y-77171000D01*
X44080000Y-77171000D02*
X46932000Y-77171000D01*
X39282000Y-77211000D02*
X42120000Y-77211000D01*
X44080000Y-77211000D02*
X46918000Y-77211000D01*
X39297000Y-77251000D02*
X42120000Y-77251000D01*
X44080000Y-77251000D02*
X46903000Y-77251000D01*
X39311000Y-77291000D02*
X42120000Y-77291000D01*
X44080000Y-77291000D02*
X46889000Y-77291000D01*
X39327000Y-77331000D02*
X42120000Y-77331000D01*
X44080000Y-77331000D02*
X46873000Y-77331000D01*
X39342000Y-77371000D02*
X42120000Y-77371000D01*
X44080000Y-77371000D02*
X46858000Y-77371000D01*
X39359000Y-77411000D02*
X42120000Y-77411000D01*
X44080000Y-77411000D02*
X46841000Y-77411000D01*
X39375000Y-77451000D02*
X42120000Y-77451000D01*
X44080000Y-77451000D02*
X46825000Y-77451000D01*
X39393000Y-77491000D02*
X42120000Y-77491000D01*
X44080000Y-77491000D02*
X46807000Y-77491000D01*
X39410000Y-77531000D02*
X42120000Y-77531000D01*
X44080000Y-77531000D02*
X46790000Y-77531000D01*
X39429000Y-77571000D02*
X42120000Y-77571000D01*
X44080000Y-77571000D02*
X46771000Y-77571000D01*
X39448000Y-77611000D02*
X42120000Y-77611000D01*
X44080000Y-77611000D02*
X46752000Y-77611000D01*
X39467000Y-77651000D02*
X42120000Y-77651000D01*
X44080000Y-77651000D02*
X46733000Y-77651000D01*
X39487000Y-77691000D02*
X42120000Y-77691000D01*
X44080000Y-77691000D02*
X46713000Y-77691000D01*
X39507000Y-77731000D02*
X42120000Y-77731000D01*
X44080000Y-77731000D02*
X46693000Y-77731000D01*
X39528000Y-77771000D02*
X42120000Y-77771000D01*
X44080000Y-77771000D02*
X46672000Y-77771000D01*
X39550000Y-77811000D02*
X42120000Y-77811000D01*
X44080000Y-77811000D02*
X46650000Y-77811000D01*
X39572000Y-77851000D02*
X42120000Y-77851000D01*
X44080000Y-77851000D02*
X46628000Y-77851000D01*
X39595000Y-77891000D02*
X42120000Y-77891000D01*
X44080000Y-77891000D02*
X46605000Y-77891000D01*
X39618000Y-77931000D02*
X42120000Y-77931000D01*
X44080000Y-77931000D02*
X46582000Y-77931000D01*
X39642000Y-77971000D02*
X42120000Y-77971000D01*
X44080000Y-77971000D02*
X46558000Y-77971000D01*
X39666000Y-78011000D02*
X42120000Y-78011000D01*
X44080000Y-78011000D02*
X46534000Y-78011000D01*
X39692000Y-78051000D02*
X42120000Y-78051000D01*
X44080000Y-78051000D02*
X46508000Y-78051000D01*
X39717000Y-78091000D02*
X42120000Y-78091000D01*
X44080000Y-78091000D02*
X46483000Y-78091000D01*
X39744000Y-78131000D02*
X42120000Y-78131000D01*
X44080000Y-78131000D02*
X46456000Y-78131000D01*
X39771000Y-78171000D02*
X42120000Y-78171000D01*
X44080000Y-78171000D02*
X46429000Y-78171000D01*
X39799000Y-78211000D02*
X42120000Y-78211000D01*
X44080000Y-78211000D02*
X46401000Y-78211000D01*
X39828000Y-78251000D02*
X42120000Y-78251000D01*
X44080000Y-78251000D02*
X46372000Y-78251000D01*
X39857000Y-78291000D02*
X42120000Y-78291000D01*
X44080000Y-78291000D02*
X46343000Y-78291000D01*
X39887000Y-78331000D02*
X42120000Y-78331000D01*
X44080000Y-78331000D02*
X46313000Y-78331000D01*
X39918000Y-78371000D02*
X42120000Y-78371000D01*
X44080000Y-78371000D02*
X46282000Y-78371000D01*
X39950000Y-78411000D02*
X42120000Y-78411000D01*
X44080000Y-78411000D02*
X46250000Y-78411000D01*
X39982000Y-78451000D02*
X42120000Y-78451000D01*
X44080000Y-78451000D02*
X46218000Y-78451000D01*
X40016000Y-78491000D02*
X42120000Y-78491000D01*
X44080000Y-78491000D02*
X46184000Y-78491000D01*
X40050000Y-78531000D02*
X42120000Y-78531000D01*
X44080000Y-78531000D02*
X46150000Y-78531000D01*
X40085000Y-78571000D02*
X42120000Y-78571000D01*
X44080000Y-78571000D02*
X46115000Y-78571000D01*
X40121000Y-78611000D02*
X46079000Y-78611000D01*
X40158000Y-78651000D02*
X46042000Y-78651000D01*
X40196000Y-78691000D02*
X46004000Y-78691000D01*
X40235000Y-78731000D02*
X45965000Y-78731000D01*
X40276000Y-78771000D02*
X45924000Y-78771000D01*
X40317000Y-78811000D02*
X45883000Y-78811000D01*
X40360000Y-78851000D02*
X45840000Y-78851000D01*
X40403000Y-78891000D02*
X45797000Y-78891000D01*
X40448000Y-78931000D02*
X45752000Y-78931000D01*
X40495000Y-78971000D02*
X45705000Y-78971000D01*
X40543000Y-79011000D02*
X45657000Y-79011000D01*
X40592000Y-79051000D02*
X45608000Y-79051000D01*
X40643000Y-79091000D02*
X45557000Y-79091000D01*
X40696000Y-79131000D02*
X45504000Y-79131000D01*
X40751000Y-79171000D02*
X45449000Y-79171000D01*
X40807000Y-79211000D02*
X45393000Y-79211000D01*
X40866000Y-79251000D02*
X45334000Y-79251000D01*
X40927000Y-79291000D02*
X45273000Y-79291000D01*
X40991000Y-79331000D02*
X45209000Y-79331000D01*
X41057000Y-79371000D02*
X45143000Y-79371000D01*
X41126000Y-79411000D02*
X45074000Y-79411000D01*
X41198000Y-79451000D02*
X45002000Y-79451000D01*
X41274000Y-79491000D02*
X44926000Y-79491000D01*
X41355000Y-79531000D02*
X44845000Y-79531000D01*
X41440000Y-79571000D02*
X44760000Y-79571000D01*
X41530000Y-79611000D02*
X44670000Y-79611000D01*
X41627000Y-79651000D02*
X44573000Y-79651000D01*
X41731000Y-79691000D02*
X44469000Y-79691000D01*
X41846000Y-79731000D02*
X44354000Y-79731000D01*
X41973000Y-79771000D02*
X44227000Y-79771000D01*
X42117000Y-79811000D02*
X44083000Y-79811000D01*
X42286000Y-79851000D02*
X43914000Y-79851000D01*
X42502000Y-79891000D02*
X43698000Y-79891000D01*
X42854000Y-79931000D02*
X43346000Y-79931000D01*
X43100000Y-71900000D02*
X43100000Y-73100000D01*
X42450000Y-72500000D02*
X43750000Y-72500000D01*
X121830000Y-52370000D02*
X121830000Y-49830000D01*
X121830000Y-49830000D02*
X124500000Y-49830000D01*
X124500000Y-52370000D02*
X124500000Y-90600000D01*
X124500000Y-47160000D02*
X124500000Y-49830000D01*
X109130000Y-49830000D02*
X106460000Y-49830000D01*
X109130000Y-49830000D02*
X109130000Y-87930000D01*
X109130000Y-87930000D02*
X106460000Y-87930000D01*
X121830000Y-52370000D02*
X124500000Y-52370000D01*
X121830000Y-52370000D02*
X121830000Y-87930000D01*
X121830000Y-87930000D02*
X124500000Y-87930000D01*
X124500000Y-90600000D02*
X106460000Y-90600000D01*
X106460000Y-90600000D02*
X106460000Y-47160000D01*
X106460000Y-47160000D02*
X124500000Y-47160000D01*
X61020277Y-85355722D02*
G75*
G02X61020000Y-80744420I1179723J2305722D01*
G01*
X63379723Y-85355722D02*
G75*
G03X63380000Y-80744420I-1179723J2305722D01*
G01*
X63379723Y-85355722D02*
G75*
G02X61020000Y-85355580I-1179723J2305722D01*
G01*
X59650000Y-83050000D02*
X64750000Y-83050000D01*
X59650000Y-83090000D02*
X64750000Y-83090000D01*
X59651000Y-83130000D02*
X64749000Y-83130000D01*
X59652000Y-83170000D02*
X64748000Y-83170000D01*
X59654000Y-83210000D02*
X64746000Y-83210000D01*
X59657000Y-83250000D02*
X64743000Y-83250000D01*
X59661000Y-83290000D02*
X64739000Y-83290000D01*
X59665000Y-83330000D02*
X61220000Y-83330000D01*
X63180000Y-83330000D02*
X64735000Y-83330000D01*
X59669000Y-83370000D02*
X61220000Y-83370000D01*
X63180000Y-83370000D02*
X64731000Y-83370000D01*
X59675000Y-83410000D02*
X61220000Y-83410000D01*
X63180000Y-83410000D02*
X64725000Y-83410000D01*
X59681000Y-83450000D02*
X61220000Y-83450000D01*
X63180000Y-83450000D02*
X64719000Y-83450000D01*
X59687000Y-83490000D02*
X61220000Y-83490000D01*
X63180000Y-83490000D02*
X64713000Y-83490000D01*
X59694000Y-83530000D02*
X61220000Y-83530000D01*
X63180000Y-83530000D02*
X64706000Y-83530000D01*
X59702000Y-83570000D02*
X61220000Y-83570000D01*
X63180000Y-83570000D02*
X64698000Y-83570000D01*
X59711000Y-83610000D02*
X61220000Y-83610000D01*
X63180000Y-83610000D02*
X64689000Y-83610000D01*
X59720000Y-83650000D02*
X61220000Y-83650000D01*
X63180000Y-83650000D02*
X64680000Y-83650000D01*
X59730000Y-83690000D02*
X61220000Y-83690000D01*
X63180000Y-83690000D02*
X64670000Y-83690000D01*
X59740000Y-83730000D02*
X61220000Y-83730000D01*
X63180000Y-83730000D02*
X64660000Y-83730000D01*
X59752000Y-83771000D02*
X61220000Y-83771000D01*
X63180000Y-83771000D02*
X64648000Y-83771000D01*
X59764000Y-83811000D02*
X61220000Y-83811000D01*
X63180000Y-83811000D02*
X64636000Y-83811000D01*
X59776000Y-83851000D02*
X61220000Y-83851000D01*
X63180000Y-83851000D02*
X64624000Y-83851000D01*
X59790000Y-83891000D02*
X61220000Y-83891000D01*
X63180000Y-83891000D02*
X64610000Y-83891000D01*
X59804000Y-83931000D02*
X61220000Y-83931000D01*
X63180000Y-83931000D02*
X64596000Y-83931000D01*
X59818000Y-83971000D02*
X61220000Y-83971000D01*
X63180000Y-83971000D02*
X64582000Y-83971000D01*
X59834000Y-84011000D02*
X61220000Y-84011000D01*
X63180000Y-84011000D02*
X64566000Y-84011000D01*
X59850000Y-84051000D02*
X61220000Y-84051000D01*
X63180000Y-84051000D02*
X64550000Y-84051000D01*
X59867000Y-84091000D02*
X61220000Y-84091000D01*
X63180000Y-84091000D02*
X64533000Y-84091000D01*
X59885000Y-84131000D02*
X61220000Y-84131000D01*
X63180000Y-84131000D02*
X64515000Y-84131000D01*
X59904000Y-84171000D02*
X61220000Y-84171000D01*
X63180000Y-84171000D02*
X64496000Y-84171000D01*
X59924000Y-84211000D02*
X61220000Y-84211000D01*
X63180000Y-84211000D02*
X64476000Y-84211000D01*
X59944000Y-84251000D02*
X61220000Y-84251000D01*
X63180000Y-84251000D02*
X64456000Y-84251000D01*
X59966000Y-84291000D02*
X61220000Y-84291000D01*
X63180000Y-84291000D02*
X64434000Y-84291000D01*
X59988000Y-84331000D02*
X61220000Y-84331000D01*
X63180000Y-84331000D02*
X64412000Y-84331000D01*
X60011000Y-84371000D02*
X61220000Y-84371000D01*
X63180000Y-84371000D02*
X64389000Y-84371000D01*
X60035000Y-84411000D02*
X61220000Y-84411000D01*
X63180000Y-84411000D02*
X64365000Y-84411000D01*
X60060000Y-84451000D02*
X61220000Y-84451000D01*
X63180000Y-84451000D02*
X64340000Y-84451000D01*
X60087000Y-84491000D02*
X61220000Y-84491000D01*
X63180000Y-84491000D02*
X64313000Y-84491000D01*
X60114000Y-84531000D02*
X61220000Y-84531000D01*
X63180000Y-84531000D02*
X64286000Y-84531000D01*
X60142000Y-84571000D02*
X61220000Y-84571000D01*
X63180000Y-84571000D02*
X64258000Y-84571000D01*
X60172000Y-84611000D02*
X61220000Y-84611000D01*
X63180000Y-84611000D02*
X64228000Y-84611000D01*
X60203000Y-84651000D02*
X61220000Y-84651000D01*
X63180000Y-84651000D02*
X64197000Y-84651000D01*
X60235000Y-84691000D02*
X61220000Y-84691000D01*
X63180000Y-84691000D02*
X64165000Y-84691000D01*
X60268000Y-84731000D02*
X61220000Y-84731000D01*
X63180000Y-84731000D02*
X64132000Y-84731000D01*
X60303000Y-84771000D02*
X61220000Y-84771000D01*
X63180000Y-84771000D02*
X64097000Y-84771000D01*
X60339000Y-84811000D02*
X61220000Y-84811000D01*
X63180000Y-84811000D02*
X64061000Y-84811000D01*
X60377000Y-84851000D02*
X61220000Y-84851000D01*
X63180000Y-84851000D02*
X64023000Y-84851000D01*
X60417000Y-84891000D02*
X61220000Y-84891000D01*
X63180000Y-84891000D02*
X63983000Y-84891000D01*
X60458000Y-84931000D02*
X61220000Y-84931000D01*
X63180000Y-84931000D02*
X63942000Y-84931000D01*
X60501000Y-84971000D02*
X61220000Y-84971000D01*
X63180000Y-84971000D02*
X63899000Y-84971000D01*
X60546000Y-85011000D02*
X61220000Y-85011000D01*
X63180000Y-85011000D02*
X63854000Y-85011000D01*
X60594000Y-85051000D02*
X61220000Y-85051000D01*
X63180000Y-85051000D02*
X63806000Y-85051000D01*
X60644000Y-85091000D02*
X61220000Y-85091000D01*
X63180000Y-85091000D02*
X63756000Y-85091000D01*
X60696000Y-85131000D02*
X61220000Y-85131000D01*
X63180000Y-85131000D02*
X63704000Y-85131000D01*
X60752000Y-85171000D02*
X61220000Y-85171000D01*
X63180000Y-85171000D02*
X63648000Y-85171000D01*
X60810000Y-85211000D02*
X61220000Y-85211000D01*
X63180000Y-85211000D02*
X63590000Y-85211000D01*
X60873000Y-85251000D02*
X61220000Y-85251000D01*
X63180000Y-85251000D02*
X63527000Y-85251000D01*
X60939000Y-85291000D02*
X63461000Y-85291000D01*
X61011000Y-85331000D02*
X63389000Y-85331000D01*
X61088000Y-85371000D02*
X63312000Y-85371000D01*
X61172000Y-85411000D02*
X63228000Y-85411000D01*
X61266000Y-85451000D02*
X63134000Y-85451000D01*
X61371000Y-85491000D02*
X63029000Y-85491000D01*
X61493000Y-85531000D02*
X62907000Y-85531000D01*
X61641000Y-85571000D02*
X62759000Y-85571000D01*
X61846000Y-85611000D02*
X62554000Y-85611000D01*
X62200000Y-79600000D02*
X62200000Y-80800000D01*
X61550000Y-80200000D02*
X62850000Y-80200000D01*
M02*
