G04 #@! TF.FileFunction,Copper,L1,Top,Signal*
%FSLAX46Y46*%
G04 Gerber Fmt 4.6, Leading zero omitted, Abs format (unit mm)*
G04 Created by KiCad (PCBNEW 4.0.7) date Saturday, 20 '20e' October '20e' 2018 20:32:08*
%MOMM*%
%LPD*%
G01*
G04 APERTURE LIST*
%ADD10C,0.500000*%
%ADD11C,0.150000*%
%ADD12O,1.524000X2.000000*%
%ADD13R,1.600000X1.600000*%
%ADD14C,1.600000*%
%ADD15R,1.000000X2.000000*%
%ADD16R,2.000000X2.000000*%
%ADD17O,2.200000X1.500000*%
%ADD18R,2.200000X2.200000*%
%ADD19O,2.200000X2.200000*%
%ADD20R,3.500120X3.500120*%
%ADD21R,2.235200X2.235200*%
%ADD22R,2.032000X1.727200*%
%ADD23O,2.032000X1.727200*%
%ADD24R,1.727200X2.032000*%
%ADD25O,1.727200X2.032000*%
%ADD26R,2.500000X3.500000*%
%ADD27O,3.500000X1.750000*%
%ADD28O,1.600000X1.600000*%
%ADD29R,2.032000X2.032000*%
%ADD30O,2.032000X2.032000*%
%ADD31O,1.699260X3.500120*%
%ADD32R,1.700000X1.700000*%
%ADD33O,1.700000X1.700000*%
%ADD34C,0.600000*%
%ADD35C,0.400000*%
%ADD36C,0.800000*%
%ADD37C,0.254000*%
G04 APERTURE END LIST*
D10*
D11*
X30600000Y-34600000D02*
X141600000Y-34600000D01*
X141600000Y-34600000D02*
X141600000Y-94600000D01*
X141600000Y-94600000D02*
X30600000Y-94600000D01*
X30600000Y-94600000D02*
X30600000Y-34600000D01*
D12*
X94677000Y-74103000D03*
X97217000Y-74103000D03*
X92137000Y-74103000D03*
D13*
X43100000Y-74100000D03*
D14*
X43100000Y-77600000D03*
D13*
X77100000Y-74100000D03*
D14*
X77100000Y-76600000D03*
D15*
X118350000Y-40300000D03*
X104850000Y-40300000D03*
D16*
X108600000Y-41800000D03*
X111600000Y-41800000D03*
X114600000Y-41800000D03*
D15*
X68850000Y-40300000D03*
X55350000Y-40300000D03*
D16*
X59100000Y-41800000D03*
X62100000Y-41800000D03*
X65100000Y-41800000D03*
D17*
X123100000Y-51100000D03*
X107860000Y-84120000D03*
X123100000Y-53640000D03*
X107860000Y-81580000D03*
X123100000Y-56180000D03*
X107860000Y-79040000D03*
X123100000Y-58720000D03*
X107860000Y-76500000D03*
X123100000Y-61260000D03*
X107860000Y-73960000D03*
X123100000Y-63800000D03*
X107860000Y-71420000D03*
X123100000Y-66340000D03*
X107860000Y-68880000D03*
X123100000Y-68880000D03*
X107860000Y-66340000D03*
X123100000Y-71420000D03*
X107860000Y-63800000D03*
X123100000Y-73960000D03*
X107860000Y-61260000D03*
X123100000Y-76500000D03*
X107860000Y-58720000D03*
X123100000Y-79040000D03*
X107860000Y-56180000D03*
X123100000Y-81580000D03*
X107860000Y-53640000D03*
X123100000Y-84120000D03*
X107860000Y-51100000D03*
X123100000Y-86660000D03*
X107860000Y-86660000D03*
D18*
X59600000Y-51100000D03*
D19*
X49440000Y-51100000D03*
D18*
X92600000Y-67600000D03*
D19*
X82440000Y-67600000D03*
D20*
X49600000Y-45300140D03*
X49600000Y-39300660D03*
X44901000Y-42300400D03*
D21*
X128200000Y-63800000D03*
D22*
X126800000Y-51200000D03*
D23*
X126800000Y-53740000D03*
X126800000Y-56280000D03*
D22*
X104350000Y-61350000D03*
D23*
X104350000Y-63890000D03*
X104350000Y-66430000D03*
X104350000Y-68970000D03*
D24*
X72600000Y-45100000D03*
D25*
X75140000Y-45100000D03*
X77680000Y-45100000D03*
D24*
X94600000Y-45100000D03*
D25*
X97140000Y-45100000D03*
X99680000Y-45100000D03*
D26*
X136596000Y-51600000D03*
D27*
X131590000Y-56600000D03*
X131590000Y-46600000D03*
X131590000Y-54100000D03*
X131590000Y-49100000D03*
D26*
X35604000Y-51600000D03*
D27*
X40610000Y-46600000D03*
X40610000Y-56600000D03*
X40610000Y-49100000D03*
X40610000Y-54100000D03*
D14*
X97100000Y-53600000D03*
D28*
X97100000Y-63760000D03*
D14*
X76600000Y-54100000D03*
D28*
X76600000Y-64260000D03*
D14*
X40600000Y-69600000D03*
D28*
X40600000Y-59440000D03*
D14*
X90600000Y-79600000D03*
D28*
X100760000Y-79600000D03*
D29*
X75100000Y-49350000D03*
D30*
X77640000Y-49350000D03*
D29*
X97100000Y-49350000D03*
D30*
X99640000Y-49350000D03*
D14*
X79600000Y-83800000D03*
X74600000Y-83800000D03*
D13*
X52100000Y-82600000D03*
D14*
X52100000Y-85100000D03*
X47100000Y-83600000D03*
X42100000Y-83600000D03*
D31*
X52600000Y-75600000D03*
X50060000Y-75600000D03*
X55140000Y-75600000D03*
X66100000Y-75600000D03*
X63560000Y-75600000D03*
X68640000Y-75600000D03*
D22*
X33600000Y-64600000D03*
D23*
X33600000Y-67140000D03*
X33600000Y-69680000D03*
X33600000Y-72220000D03*
X33600000Y-74760000D03*
X33600000Y-77300000D03*
D22*
X138600000Y-64600000D03*
D23*
X138600000Y-67140000D03*
X138600000Y-69680000D03*
X138600000Y-72220000D03*
X138600000Y-74760000D03*
X138600000Y-77300000D03*
D13*
X62200000Y-81800000D03*
D14*
X62200000Y-84300000D03*
D32*
X131735600Y-77303400D03*
D33*
X131735600Y-79843400D03*
X131735600Y-82383400D03*
X131735600Y-84923400D03*
D34*
X111600000Y-78100000D03*
X118100000Y-73100000D03*
X59100000Y-84350000D03*
X55350000Y-84600000D03*
X82350000Y-45600000D03*
X117350000Y-56100000D03*
X112850000Y-55350000D03*
X104350000Y-55350000D03*
X101600000Y-52600000D03*
X57100000Y-59100000D03*
X54600000Y-61600000D03*
X57100000Y-61600000D03*
X57100000Y-64100000D03*
X54600000Y-64100000D03*
X54600000Y-66600000D03*
X54600000Y-69100000D03*
X54600000Y-71600000D03*
X57100000Y-71600000D03*
X57100000Y-69100000D03*
X57100000Y-66600000D03*
X59600000Y-66600000D03*
X59600000Y-69100000D03*
X59600000Y-71600000D03*
X62100000Y-71600000D03*
X62100000Y-69100000D03*
X62100000Y-66600000D03*
X62100000Y-64100000D03*
X59600000Y-64100000D03*
X59600000Y-61600000D03*
X59600000Y-59100000D03*
X59600000Y-56600000D03*
X62100000Y-56600000D03*
X62100000Y-59100000D03*
X62100000Y-61600000D03*
X64600000Y-64100000D03*
X64600000Y-66600000D03*
X64600000Y-69100000D03*
X64600000Y-71600000D03*
X72100000Y-71600000D03*
X72100000Y-69100000D03*
X72100000Y-66600000D03*
X72100000Y-64100000D03*
X72100000Y-61600000D03*
X72100000Y-59100000D03*
X72100000Y-56600000D03*
X69600000Y-56600000D03*
X69600000Y-59100000D03*
X69600000Y-61600000D03*
X67100000Y-64100000D03*
X69600000Y-64100000D03*
X69600000Y-66600000D03*
X67100000Y-66600000D03*
X67100000Y-69100000D03*
X69600000Y-69100000D03*
X69600000Y-71600000D03*
X67100000Y-71600000D03*
X57100000Y-56600000D03*
X54600000Y-56600000D03*
X52100000Y-64100000D03*
X52100000Y-66600000D03*
X49600000Y-69100000D03*
X49600000Y-71600000D03*
X47100000Y-71600000D03*
X47100000Y-69100000D03*
X47100000Y-66600000D03*
X49600000Y-66600000D03*
X49600000Y-64100000D03*
X47100000Y-64100000D03*
X47100000Y-61600000D03*
X49600000Y-61600000D03*
X47100000Y-59100000D03*
X49600000Y-59100000D03*
X47100000Y-56600000D03*
X49600000Y-56600000D03*
X82850000Y-70600000D03*
X132600000Y-68350000D03*
X132600000Y-70600000D03*
X96328000Y-71309000D03*
X103871800Y-71588400D03*
X111350000Y-72350000D03*
X111600000Y-70350000D03*
X113350000Y-65100000D03*
X117100000Y-65100000D03*
X118600000Y-65100000D03*
X119350000Y-67600000D03*
X125850000Y-70600000D03*
X127600000Y-72600000D03*
X114250000Y-46000000D03*
X117850000Y-66600000D03*
X114850000Y-71100000D03*
X111350000Y-88100000D03*
X109850000Y-91850000D03*
X55600000Y-80850000D03*
X41600000Y-67100000D03*
X116850000Y-76350000D03*
X116100000Y-79100000D03*
X116100000Y-81350000D03*
X113600000Y-84100000D03*
X100100000Y-85350000D03*
X97350000Y-85350000D03*
X93100000Y-85350000D03*
X89600000Y-85350000D03*
X61850000Y-88350000D03*
X58850000Y-88350000D03*
X50100000Y-86350000D03*
X40850000Y-75100000D03*
X38850000Y-70850000D03*
X38600000Y-68350000D03*
X117850000Y-72100000D03*
X113850000Y-75100000D03*
X112100000Y-82850000D03*
X102350000Y-84350000D03*
X99850000Y-84350000D03*
X97350000Y-84350000D03*
X91850000Y-84350000D03*
X81850000Y-87350000D03*
X43600000Y-81350000D03*
X36100000Y-69850000D03*
X72600000Y-91850000D03*
X82100000Y-84100000D03*
X87100000Y-83100000D03*
X91100000Y-83100000D03*
X97600000Y-82850000D03*
X100100000Y-82850000D03*
X102350000Y-81850000D03*
X105350000Y-80350000D03*
X112850000Y-80350000D03*
X38350000Y-81100000D03*
X113100000Y-60100000D03*
X117100000Y-60100000D03*
X101850000Y-77350000D03*
X103850000Y-73100000D03*
X127600000Y-80600000D03*
X123350000Y-93100000D03*
X44100000Y-93100000D03*
X115850000Y-54600000D03*
X112850000Y-51850000D03*
X109100000Y-48100000D03*
X105850000Y-48100000D03*
X88350000Y-79600000D03*
X77100000Y-66600000D03*
X62200000Y-81800000D03*
X51350000Y-53350000D03*
X78350000Y-78600000D03*
X76350000Y-81850000D03*
X72600000Y-81850000D03*
X134100000Y-63600000D03*
X134350000Y-59850000D03*
X134350000Y-53600000D03*
X132350000Y-51850000D03*
X115850000Y-48100000D03*
X112600000Y-48100000D03*
X102144600Y-74153800D03*
X100417400Y-75728600D03*
X100138000Y-87895200D03*
X102424000Y-90181200D03*
X90536800Y-48550600D03*
X92594200Y-50354000D03*
X98741000Y-56780200D03*
X100519000Y-58685200D03*
X78600000Y-47100000D03*
X81600000Y-47100000D03*
X86850000Y-52100000D03*
X89850000Y-54600000D03*
X74600000Y-71600000D03*
X82100000Y-80350000D03*
X73350000Y-80350000D03*
X70850000Y-77850000D03*
X61100000Y-78100000D03*
X56600000Y-79100000D03*
X52600000Y-79100000D03*
X85350000Y-42600000D03*
X72350000Y-51350000D03*
X61350000Y-47350000D03*
X47850000Y-48600000D03*
D35*
X112350000Y-77350000D02*
X111600000Y-78100000D01*
X112850000Y-77350000D02*
X112350000Y-77350000D01*
X117100000Y-73100000D02*
X112850000Y-77350000D01*
X118100000Y-73100000D02*
X117100000Y-73100000D01*
X55600000Y-84350000D02*
X59100000Y-84350000D01*
X55350000Y-84600000D02*
X55600000Y-84350000D01*
X77640000Y-49350000D02*
X77640000Y-48390000D01*
X77640000Y-48390000D02*
X76850000Y-47600000D01*
X76850000Y-47600000D02*
X76850000Y-45930000D01*
X76850000Y-45930000D02*
X77680000Y-45100000D01*
X77680000Y-45100000D02*
X81850000Y-45100000D01*
X81850000Y-45100000D02*
X82350000Y-45600000D01*
X113600000Y-56100000D02*
X117350000Y-56100000D01*
X112850000Y-55350000D02*
X113600000Y-56100000D01*
X101600000Y-52600000D02*
X104350000Y-55350000D01*
D36*
X57100000Y-61600000D02*
X54600000Y-61600000D01*
X54600000Y-64100000D02*
X57100000Y-64100000D01*
X54600000Y-69100000D02*
X54600000Y-66600000D01*
X57100000Y-71600000D02*
X54600000Y-71600000D01*
X57100000Y-66600000D02*
X57100000Y-69100000D01*
X59600000Y-69100000D02*
X59600000Y-66600000D01*
X62100000Y-71600000D02*
X59600000Y-71600000D01*
X62100000Y-66600000D02*
X62100000Y-69100000D01*
X59600000Y-64100000D02*
X62100000Y-64100000D01*
X59600000Y-59100000D02*
X59600000Y-61600000D01*
X62100000Y-56600000D02*
X59600000Y-56600000D01*
X62100000Y-61600000D02*
X62100000Y-59100000D01*
X64600000Y-66600000D02*
X64600000Y-64100000D01*
X64600000Y-71600000D02*
X64600000Y-69100000D01*
X72100000Y-69100000D02*
X72100000Y-71600000D01*
X72100000Y-64100000D02*
X72100000Y-66600000D01*
X72100000Y-59100000D02*
X72100000Y-61600000D01*
X69600000Y-56600000D02*
X72100000Y-56600000D01*
X69600000Y-61600000D02*
X69600000Y-59100000D01*
X69600000Y-64100000D02*
X67100000Y-64100000D01*
X67100000Y-66600000D02*
X69600000Y-66600000D01*
X69600000Y-69100000D02*
X67100000Y-69100000D01*
X67100000Y-71600000D02*
X69600000Y-71600000D01*
X57100000Y-59100000D02*
X57100000Y-56600000D01*
X54600000Y-56600000D02*
X57100000Y-59100000D01*
X57100000Y-59100000D02*
X52100000Y-64100000D01*
X52100000Y-66600000D02*
X49600000Y-69100000D01*
X49600000Y-71600000D02*
X47100000Y-71600000D01*
X47100000Y-69100000D02*
X47100000Y-66600000D01*
X49600000Y-66600000D02*
X49600000Y-64100000D01*
X47100000Y-64100000D02*
X47100000Y-61600000D01*
X49600000Y-61600000D02*
X47100000Y-59100000D01*
X49600000Y-59100000D02*
X47100000Y-56600000D01*
D10*
X86350000Y-74100000D02*
X92137000Y-74103000D01*
X82850000Y-70600000D02*
X86350000Y-74100000D01*
D35*
X132600000Y-70600000D02*
X132600000Y-68350000D01*
D10*
X103592400Y-71309000D02*
X96328000Y-71309000D01*
X103871800Y-71588400D02*
X103592400Y-71309000D01*
X107860000Y-73960000D02*
X107538800Y-73960000D01*
D35*
X111350000Y-70600000D02*
X111350000Y-72350000D01*
X111600000Y-70350000D02*
X111350000Y-70600000D01*
X117100000Y-65100000D02*
X113350000Y-65100000D01*
X118850000Y-65350000D02*
X118600000Y-65100000D01*
X118850000Y-67100000D02*
X118850000Y-65350000D01*
X119350000Y-67600000D02*
X118850000Y-67100000D01*
X125850000Y-70850000D02*
X125850000Y-70600000D01*
X127600000Y-72600000D02*
X125850000Y-70850000D01*
D10*
X114600000Y-41800000D02*
X114600000Y-45650000D01*
X114600000Y-45650000D02*
X114250000Y-46000000D01*
X116850000Y-67600000D02*
X117850000Y-66600000D01*
X116850000Y-69100000D02*
X116850000Y-67600000D01*
X114850000Y-71100000D02*
X116850000Y-69100000D01*
X111350000Y-90350000D02*
X111350000Y-88100000D01*
X109850000Y-91850000D02*
X111350000Y-90350000D01*
X51600000Y-80850000D02*
X55600000Y-80850000D01*
X45850000Y-75100000D02*
X51600000Y-80850000D01*
X45600000Y-75100000D02*
X45850000Y-75100000D01*
X44600000Y-74100000D02*
X45600000Y-75100000D01*
X44600000Y-70100000D02*
X44600000Y-74100000D01*
X41600000Y-67100000D02*
X44600000Y-70100000D01*
X116850000Y-78350000D02*
X116850000Y-76350000D01*
X116100000Y-79100000D02*
X116850000Y-78350000D01*
X116100000Y-81600000D02*
X116100000Y-81350000D01*
X113600000Y-84100000D02*
X116100000Y-81600000D01*
X97350000Y-85350000D02*
X100100000Y-85350000D01*
X89600000Y-85350000D02*
X93100000Y-85350000D01*
X58850000Y-88350000D02*
X61850000Y-88350000D01*
X50100000Y-81850000D02*
X50100000Y-86350000D01*
X44600000Y-76350000D02*
X50100000Y-81850000D01*
X42100000Y-76350000D02*
X44600000Y-76350000D01*
X40850000Y-75100000D02*
X42100000Y-76350000D01*
X38850000Y-68600000D02*
X38850000Y-70850000D01*
X38600000Y-68350000D02*
X38850000Y-68600000D01*
X116850000Y-72100000D02*
X117850000Y-72100000D01*
X113850000Y-75100000D02*
X116850000Y-72100000D01*
X111850000Y-82850000D02*
X112100000Y-82850000D01*
X103850000Y-82850000D02*
X111850000Y-82850000D01*
X102350000Y-84350000D02*
X103850000Y-82850000D01*
X97350000Y-84350000D02*
X99850000Y-84350000D01*
X84850000Y-84350000D02*
X91850000Y-84350000D01*
X81850000Y-87350000D02*
X84850000Y-84350000D01*
X43350000Y-81350000D02*
X43600000Y-81350000D01*
X39350000Y-77350000D02*
X43350000Y-81350000D01*
X39350000Y-73100000D02*
X39350000Y-77350000D01*
X36100000Y-69850000D02*
X39350000Y-73100000D01*
X72600000Y-91850000D02*
X78100000Y-86350000D01*
X78100000Y-86350000D02*
X79850000Y-86350000D01*
X79850000Y-86350000D02*
X82100000Y-84100000D01*
X87100000Y-83100000D02*
X91100000Y-83100000D01*
X97600000Y-82850000D02*
X100100000Y-82850000D01*
X102350000Y-81850000D02*
X103850000Y-80350000D01*
X103850000Y-80350000D02*
X105350000Y-80350000D01*
X112850000Y-80350000D02*
X113100000Y-80100000D01*
X113100000Y-80100000D02*
X113100000Y-78100000D01*
X113100000Y-78100000D02*
X117240000Y-73960000D01*
X117240000Y-73960000D02*
X123100000Y-73960000D01*
X33600000Y-74760000D02*
X36010000Y-74760000D01*
X38350000Y-77100000D02*
X38350000Y-81100000D01*
X36010000Y-74760000D02*
X38350000Y-77100000D01*
D35*
X117100000Y-60100000D02*
X113100000Y-60100000D01*
D10*
X101850000Y-77350000D02*
X103850000Y-75350000D01*
X103850000Y-75350000D02*
X103850000Y-73100000D01*
X126040000Y-79040000D02*
X123100000Y-79040000D01*
X127600000Y-80600000D02*
X126040000Y-79040000D01*
X44100000Y-93100000D02*
X123350000Y-93100000D01*
X115600000Y-54600000D02*
X115850000Y-54600000D01*
X112850000Y-51850000D02*
X115600000Y-54600000D01*
X105850000Y-48100000D02*
X109100000Y-48100000D01*
X88350000Y-77850000D02*
X88350000Y-79600000D01*
X77100000Y-66600000D02*
X88350000Y-77850000D01*
D36*
X72600000Y-53350000D02*
X51350000Y-53350000D01*
X74350000Y-55100000D02*
X72600000Y-53350000D01*
X74350000Y-67350000D02*
X74350000Y-55100000D01*
X79350000Y-72350000D02*
X74350000Y-67350000D01*
X79350000Y-77600000D02*
X79350000Y-72350000D01*
X78350000Y-78600000D02*
X79350000Y-77600000D01*
X72600000Y-81850000D02*
X76350000Y-81850000D01*
D35*
X134100000Y-63600000D02*
X134350000Y-63350000D01*
X134350000Y-63350000D02*
X134350000Y-59850000D01*
X134350000Y-53600000D02*
X132600000Y-51850000D01*
X132600000Y-51850000D02*
X132350000Y-51850000D01*
X115850000Y-48100000D02*
X112600000Y-48100000D01*
D10*
X102144600Y-74153800D02*
X100569800Y-75728600D01*
X100569800Y-75728600D02*
X100417400Y-75728600D01*
X100138000Y-87895200D02*
X102500200Y-90257400D01*
X102500200Y-90257400D02*
X102424000Y-90181200D01*
X90536800Y-48550600D02*
X92340200Y-50354000D01*
X92340200Y-50354000D02*
X92594200Y-50354000D01*
X98741000Y-56780200D02*
X100519000Y-58558200D01*
X100519000Y-58558200D02*
X100519000Y-58685200D01*
D36*
X78600000Y-47100000D02*
X81600000Y-47100000D01*
X86850000Y-52100000D02*
X89350000Y-54600000D01*
X89350000Y-54600000D02*
X89850000Y-54600000D01*
X58640000Y-79100000D02*
X55140000Y-75600000D01*
X72350000Y-79100000D02*
X58640000Y-79100000D01*
X74600000Y-76850000D02*
X72350000Y-79100000D01*
X74600000Y-71600000D02*
X74600000Y-76850000D01*
D10*
X73350000Y-80350000D02*
X82100000Y-80350000D01*
X61350000Y-77850000D02*
X70850000Y-77850000D01*
X61100000Y-78100000D02*
X61350000Y-77850000D01*
X52600000Y-79100000D02*
X56600000Y-79100000D01*
X85350000Y-42600000D02*
X83850000Y-44100000D01*
X83850000Y-44100000D02*
X83850000Y-50350000D01*
X83850000Y-50350000D02*
X82850000Y-51350000D01*
X82850000Y-51350000D02*
X72350000Y-51350000D01*
X61350000Y-47350000D02*
X54850000Y-47350000D01*
X54850000Y-47350000D02*
X53600000Y-48600000D01*
X53600000Y-48600000D02*
X47850000Y-48600000D01*
D37*
G36*
X72673000Y-55126063D02*
X72673000Y-72673000D01*
X45927000Y-72673000D01*
X45927000Y-59338015D01*
X50064641Y-59338015D01*
X50449746Y-60270041D01*
X51162208Y-60983748D01*
X52093561Y-61370479D01*
X53102015Y-61371359D01*
X54034041Y-60986254D01*
X54747748Y-60273792D01*
X55134479Y-59342439D01*
X55134482Y-59338015D01*
X63564641Y-59338015D01*
X63949746Y-60270041D01*
X64662208Y-60983748D01*
X65593561Y-61370479D01*
X66602015Y-61371359D01*
X67534041Y-60986254D01*
X68247748Y-60273792D01*
X68634479Y-59342439D01*
X68635359Y-58333985D01*
X68250254Y-57401959D01*
X67537792Y-56688252D01*
X66606439Y-56301521D01*
X65597985Y-56300641D01*
X64665959Y-56685746D01*
X63952252Y-57398208D01*
X63565521Y-58329561D01*
X63564641Y-59338015D01*
X55134482Y-59338015D01*
X55135359Y-58333985D01*
X54750254Y-57401959D01*
X54037792Y-56688252D01*
X53106439Y-56301521D01*
X52097985Y-56300641D01*
X51165959Y-56685746D01*
X50452252Y-57398208D01*
X50065521Y-58329561D01*
X50064641Y-59338015D01*
X45927000Y-59338015D01*
X45927000Y-54927945D01*
X72673000Y-55126063D01*
X72673000Y-55126063D01*
G37*
X72673000Y-55126063D02*
X72673000Y-72673000D01*
X45927000Y-72673000D01*
X45927000Y-59338015D01*
X50064641Y-59338015D01*
X50449746Y-60270041D01*
X51162208Y-60983748D01*
X52093561Y-61370479D01*
X53102015Y-61371359D01*
X54034041Y-60986254D01*
X54747748Y-60273792D01*
X55134479Y-59342439D01*
X55134482Y-59338015D01*
X63564641Y-59338015D01*
X63949746Y-60270041D01*
X64662208Y-60983748D01*
X65593561Y-61370479D01*
X66602015Y-61371359D01*
X67534041Y-60986254D01*
X68247748Y-60273792D01*
X68634479Y-59342439D01*
X68635359Y-58333985D01*
X68250254Y-57401959D01*
X67537792Y-56688252D01*
X66606439Y-56301521D01*
X65597985Y-56300641D01*
X64665959Y-56685746D01*
X63952252Y-57398208D01*
X63565521Y-58329561D01*
X63564641Y-59338015D01*
X55134482Y-59338015D01*
X55135359Y-58333985D01*
X54750254Y-57401959D01*
X54037792Y-56688252D01*
X53106439Y-56301521D01*
X52097985Y-56300641D01*
X51165959Y-56685746D01*
X50452252Y-57398208D01*
X50065521Y-58329561D01*
X50064641Y-59338015D01*
X45927000Y-59338015D01*
X45927000Y-54927945D01*
X72673000Y-55126063D01*
M02*
