G04 #@! TF.FileFunction,Legend,Top*
%FSLAX46Y46*%
G04 Gerber Fmt 4.6, Leading zero omitted, Abs format (unit mm)*
G04 Created by KiCad (PCBNEW 4.0.7) date Saturday, 20 '20e' October '20e' 2018 20:32:08*
%MOMM*%
%LPD*%
G01*
G04 APERTURE LIST*
%ADD10C,0.500000*%
%ADD11C,0.300000*%
%ADD12C,0.150000*%
%ADD13C,0.120000*%
%ADD14C,0.010000*%
%ADD15C,0.100000*%
G04 APERTURE END LIST*
D10*
D11*
X133779600Y-82764257D02*
X133708171Y-82907114D01*
X133708171Y-83121400D01*
X133779600Y-83335685D01*
X133922457Y-83478543D01*
X134065314Y-83549971D01*
X134351029Y-83621400D01*
X134565314Y-83621400D01*
X134851029Y-83549971D01*
X134993886Y-83478543D01*
X135136743Y-83335685D01*
X135208171Y-83121400D01*
X135208171Y-82978543D01*
X135136743Y-82764257D01*
X135065314Y-82692828D01*
X134565314Y-82692828D01*
X134565314Y-82978543D01*
X135208171Y-82049971D02*
X133708171Y-82049971D01*
X135208171Y-81192828D01*
X133708171Y-81192828D01*
X135208171Y-80478542D02*
X133708171Y-80478542D01*
X133708171Y-80121399D01*
X133779600Y-79907114D01*
X133922457Y-79764256D01*
X134065314Y-79692828D01*
X134351029Y-79621399D01*
X134565314Y-79621399D01*
X134851029Y-79692828D01*
X134993886Y-79764256D01*
X135136743Y-79907114D01*
X135208171Y-80121399D01*
X135208171Y-80478542D01*
X126610001Y-92958571D02*
X126610001Y-94458571D01*
X126610001Y-93030000D02*
X126752858Y-92958571D01*
X127038572Y-92958571D01*
X127181429Y-93030000D01*
X127252858Y-93101429D01*
X127324287Y-93244286D01*
X127324287Y-93672857D01*
X127252858Y-93815714D01*
X127181429Y-93887143D01*
X127038572Y-93958571D01*
X126752858Y-93958571D01*
X126610001Y-93887143D01*
X128610001Y-93887143D02*
X128467144Y-93958571D01*
X128181430Y-93958571D01*
X128038572Y-93887143D01*
X127967144Y-93815714D01*
X127895715Y-93672857D01*
X127895715Y-93244286D01*
X127967144Y-93101429D01*
X128038572Y-93030000D01*
X128181430Y-92958571D01*
X128467144Y-92958571D01*
X128610001Y-93030000D01*
X129252858Y-93958571D02*
X129252858Y-92458571D01*
X129252858Y-93030000D02*
X129395715Y-92958571D01*
X129681429Y-92958571D01*
X129824286Y-93030000D01*
X129895715Y-93101429D01*
X129967144Y-93244286D01*
X129967144Y-93672857D01*
X129895715Y-93815714D01*
X129824286Y-93887143D01*
X129681429Y-93958571D01*
X129395715Y-93958571D01*
X129252858Y-93887143D01*
X131610001Y-92958571D02*
X131967144Y-93958571D01*
X132324286Y-92958571D01*
X132824286Y-92601429D02*
X132895715Y-92530000D01*
X133038572Y-92458571D01*
X133395715Y-92458571D01*
X133538572Y-92530000D01*
X133610001Y-92601429D01*
X133681429Y-92744286D01*
X133681429Y-92887143D01*
X133610001Y-93101429D01*
X132752858Y-93958571D01*
X133681429Y-93958571D01*
D12*
X30600000Y-34600000D02*
X141600000Y-34600000D01*
X141600000Y-34600000D02*
X141600000Y-94600000D01*
X141600000Y-94600000D02*
X30600000Y-94600000D01*
X30600000Y-94600000D02*
X30600000Y-34600000D01*
X92489305Y-75099990D02*
G75*
G03X92977000Y-75803000I2187695J996990D01*
G01*
X96864695Y-75099990D02*
G75*
G02X96377000Y-75803000I-2187695J996990D01*
G01*
X92977000Y-75803000D02*
X96377000Y-75803000D01*
X92492121Y-73109873D02*
G75*
G02X94677000Y-71703000I2184879J-993127D01*
G01*
X96861879Y-73109873D02*
G75*
G03X94677000Y-71703000I-2184879J-993127D01*
G01*
X83450000Y-76894000D02*
X82434000Y-76894000D01*
X85990000Y-76894000D02*
X84974000Y-76894000D01*
X88276000Y-76894000D02*
X87260000Y-76894000D01*
X81418000Y-76894000D02*
X80402000Y-76894000D01*
X89800000Y-76132000D02*
X78116000Y-76132000D01*
X90054000Y-72576000D02*
X90054000Y-77656000D01*
X90054000Y-77656000D02*
X78116000Y-77656000D01*
X90054000Y-72576000D02*
X78116000Y-72576000D01*
X78100000Y-74100000D02*
X77100000Y-74100000D01*
X78116000Y-72576000D02*
X78116000Y-77656000D01*
X78100000Y-76640000D02*
X77100000Y-76640000D01*
D13*
X77100000Y-71900000D02*
X77100000Y-73100000D01*
X77750000Y-72500000D02*
X76450000Y-72500000D01*
D12*
X107900000Y-34600000D02*
X107900000Y-30600000D01*
X107900000Y-30600000D02*
X110900000Y-30600000D01*
X110900000Y-30600000D02*
X110900000Y-34600000D01*
X104850000Y-40600000D02*
X104850000Y-34600000D01*
X104850000Y-34600000D02*
X118350000Y-34600000D01*
X118350000Y-40600000D02*
X118355000Y-34600000D01*
X118350000Y-40600000D02*
X104850000Y-40600000D01*
X58400000Y-34600000D02*
X58400000Y-30600000D01*
X58400000Y-30600000D02*
X61400000Y-30600000D01*
X61400000Y-30600000D02*
X61400000Y-34600000D01*
X55350000Y-40600000D02*
X55350000Y-34600000D01*
X55350000Y-34600000D02*
X68850000Y-34600000D01*
X68850000Y-40600000D02*
X68855000Y-34600000D01*
X68850000Y-40600000D02*
X55350000Y-40600000D01*
D13*
X57180000Y-52510000D02*
X57180000Y-49690000D01*
X57180000Y-49690000D02*
X51860000Y-49690000D01*
X51860000Y-49690000D02*
X51860000Y-52510000D01*
X51860000Y-52510000D02*
X57180000Y-52510000D01*
X58320000Y-51100000D02*
X57180000Y-51100000D01*
X50720000Y-51100000D02*
X51860000Y-51100000D01*
X56340000Y-52510000D02*
X56340000Y-49690000D01*
X90180000Y-69010000D02*
X90180000Y-66190000D01*
X90180000Y-66190000D02*
X84860000Y-66190000D01*
X84860000Y-66190000D02*
X84860000Y-69010000D01*
X84860000Y-69010000D02*
X90180000Y-69010000D01*
X91320000Y-67600000D02*
X90180000Y-67600000D01*
X83720000Y-67600000D02*
X84860000Y-67600000D01*
X89340000Y-69010000D02*
X89340000Y-66190000D01*
D12*
X54100880Y-35099500D02*
X45099120Y-35099500D01*
X54100880Y-31599380D02*
X45099120Y-31599380D01*
X45099120Y-31599380D02*
X45099120Y-46100240D01*
X45099120Y-46100240D02*
X54100880Y-46100240D01*
X54100880Y-46100240D02*
X54100880Y-31599380D01*
X129750000Y-62250000D02*
X129750000Y-63800000D01*
X126650000Y-63800000D02*
X126650000Y-62250000D01*
X126650000Y-62250000D02*
X129750000Y-62250000D01*
X126930000Y-65070000D02*
X129470000Y-65070000D01*
X125530000Y-52470000D02*
X125530000Y-57550000D01*
X125530000Y-57550000D02*
X128070000Y-57550000D01*
X128070000Y-57550000D02*
X128070000Y-52470000D01*
X128350000Y-49650000D02*
X128350000Y-51200000D01*
X128070000Y-52470000D02*
X125530000Y-52470000D01*
X125250000Y-51200000D02*
X125250000Y-49650000D01*
X125250000Y-49650000D02*
X128350000Y-49650000D01*
X103080000Y-62620000D02*
X103080000Y-70240000D01*
X105620000Y-62620000D02*
X105620000Y-70240000D01*
X105900000Y-59800000D02*
X105900000Y-61350000D01*
X103080000Y-70240000D02*
X105620000Y-70240000D01*
X105620000Y-62620000D02*
X103080000Y-62620000D01*
X102800000Y-61350000D02*
X102800000Y-59800000D01*
X102800000Y-59800000D02*
X105900000Y-59800000D01*
X71050000Y-46400000D02*
X72600000Y-46400000D01*
X71050000Y-45100000D02*
X71050000Y-46400000D01*
X72473000Y-40909000D02*
X72473000Y-35067000D01*
X72473000Y-35067000D02*
X72727000Y-35067000D01*
X72727000Y-35067000D02*
X72727000Y-40909000D01*
X72727000Y-40909000D02*
X72600000Y-40909000D01*
X72600000Y-40909000D02*
X72600000Y-35067000D01*
X72346000Y-43576000D02*
X72346000Y-43957000D01*
X72854000Y-43576000D02*
X72854000Y-43957000D01*
X74886000Y-43576000D02*
X74886000Y-43957000D01*
X75394000Y-43576000D02*
X75394000Y-43957000D01*
X77426000Y-43576000D02*
X77426000Y-43957000D01*
X77934000Y-43576000D02*
X77934000Y-43957000D01*
X73870000Y-41036000D02*
X71330000Y-41036000D01*
X72854000Y-34940000D02*
X72854000Y-41036000D01*
X72346000Y-34940000D02*
X72854000Y-34940000D01*
X72346000Y-41036000D02*
X72346000Y-34940000D01*
X73870000Y-43576000D02*
X73870000Y-41036000D01*
X71330000Y-43576000D02*
X73870000Y-43576000D01*
X71330000Y-43576000D02*
X71330000Y-41036000D01*
X76410000Y-43576000D02*
X76410000Y-41036000D01*
X76410000Y-43576000D02*
X78950000Y-43576000D01*
X77426000Y-41036000D02*
X77426000Y-34940000D01*
X77426000Y-34940000D02*
X77934000Y-34940000D01*
X77934000Y-34940000D02*
X77934000Y-41036000D01*
X78950000Y-41036000D02*
X76410000Y-41036000D01*
X76410000Y-41036000D02*
X73870000Y-41036000D01*
X75394000Y-34940000D02*
X75394000Y-41036000D01*
X74886000Y-34940000D02*
X75394000Y-34940000D01*
X74886000Y-41036000D02*
X74886000Y-34940000D01*
X76410000Y-43576000D02*
X76410000Y-41036000D01*
X73870000Y-43576000D02*
X76410000Y-43576000D01*
X73870000Y-43576000D02*
X73870000Y-41036000D01*
X78950000Y-43576000D02*
X78950000Y-41036000D01*
X93050000Y-46400000D02*
X94600000Y-46400000D01*
X93050000Y-45100000D02*
X93050000Y-46400000D01*
X94473000Y-40909000D02*
X94473000Y-35067000D01*
X94473000Y-35067000D02*
X94727000Y-35067000D01*
X94727000Y-35067000D02*
X94727000Y-40909000D01*
X94727000Y-40909000D02*
X94600000Y-40909000D01*
X94600000Y-40909000D02*
X94600000Y-35067000D01*
X94346000Y-43576000D02*
X94346000Y-43957000D01*
X94854000Y-43576000D02*
X94854000Y-43957000D01*
X96886000Y-43576000D02*
X96886000Y-43957000D01*
X97394000Y-43576000D02*
X97394000Y-43957000D01*
X99426000Y-43576000D02*
X99426000Y-43957000D01*
X99934000Y-43576000D02*
X99934000Y-43957000D01*
X95870000Y-41036000D02*
X93330000Y-41036000D01*
X94854000Y-34940000D02*
X94854000Y-41036000D01*
X94346000Y-34940000D02*
X94854000Y-34940000D01*
X94346000Y-41036000D02*
X94346000Y-34940000D01*
X95870000Y-43576000D02*
X95870000Y-41036000D01*
X93330000Y-43576000D02*
X95870000Y-43576000D01*
X93330000Y-43576000D02*
X93330000Y-41036000D01*
X98410000Y-43576000D02*
X98410000Y-41036000D01*
X98410000Y-43576000D02*
X100950000Y-43576000D01*
X99426000Y-41036000D02*
X99426000Y-34940000D01*
X99426000Y-34940000D02*
X99934000Y-34940000D01*
X99934000Y-34940000D02*
X99934000Y-41036000D01*
X100950000Y-41036000D02*
X98410000Y-41036000D01*
X98410000Y-41036000D02*
X95870000Y-41036000D01*
X97394000Y-34940000D02*
X97394000Y-41036000D01*
X96886000Y-34940000D02*
X97394000Y-34940000D01*
X96886000Y-41036000D02*
X96886000Y-34940000D01*
X98410000Y-43576000D02*
X98410000Y-41036000D01*
X95870000Y-43576000D02*
X98410000Y-43576000D01*
X95870000Y-43576000D02*
X95870000Y-41036000D01*
X100950000Y-43576000D02*
X100950000Y-41036000D01*
X136524000Y-49822000D02*
X136524000Y-47790000D01*
X136524000Y-47790000D02*
X140080000Y-47790000D01*
X140080000Y-47790000D02*
X140080000Y-55410000D01*
X140080000Y-55410000D02*
X136524000Y-55410000D01*
X136524000Y-55410000D02*
X136524000Y-53378000D01*
X141096000Y-46520000D02*
X141096000Y-45504000D01*
X141096000Y-57696000D02*
X141096000Y-56680000D01*
X143128000Y-49060000D02*
X141604000Y-49060000D01*
X141604000Y-54140000D02*
X143128000Y-54140000D01*
X142366000Y-49060000D02*
X142366000Y-54140000D01*
X141096000Y-46520000D02*
X141350000Y-46520000D01*
X141350000Y-46520000D02*
X141604000Y-46520000D01*
X141604000Y-46520000D02*
X141604000Y-56680000D01*
X141604000Y-56680000D02*
X141096000Y-56680000D01*
X143128000Y-49060000D02*
X143128000Y-54140000D01*
X128904000Y-45504000D02*
X141096000Y-45504000D01*
X141096000Y-57696000D02*
X128904000Y-57696000D01*
X128904000Y-57696000D02*
X128904000Y-45504000D01*
X35676000Y-53378000D02*
X35676000Y-55410000D01*
X35676000Y-55410000D02*
X32120000Y-55410000D01*
X32120000Y-55410000D02*
X32120000Y-47790000D01*
X32120000Y-47790000D02*
X35676000Y-47790000D01*
X35676000Y-47790000D02*
X35676000Y-49822000D01*
X31104000Y-56680000D02*
X31104000Y-57696000D01*
X31104000Y-45504000D02*
X31104000Y-46520000D01*
X29072000Y-54140000D02*
X30596000Y-54140000D01*
X30596000Y-49060000D02*
X29072000Y-49060000D01*
X29834000Y-54140000D02*
X29834000Y-49060000D01*
X31104000Y-56680000D02*
X30850000Y-56680000D01*
X30850000Y-56680000D02*
X30596000Y-56680000D01*
X30596000Y-56680000D02*
X30596000Y-46520000D01*
X30596000Y-46520000D02*
X31104000Y-46520000D01*
X29072000Y-54140000D02*
X29072000Y-49060000D01*
X43296000Y-57696000D02*
X31104000Y-57696000D01*
X31104000Y-45504000D02*
X43296000Y-45504000D01*
X43296000Y-45504000D02*
X43296000Y-57696000D01*
D13*
X98410000Y-55470000D02*
X95790000Y-55470000D01*
X95790000Y-55470000D02*
X95790000Y-61890000D01*
X95790000Y-61890000D02*
X98410000Y-61890000D01*
X98410000Y-61890000D02*
X98410000Y-55470000D01*
X97100000Y-54580000D02*
X97100000Y-55470000D01*
X97100000Y-62780000D02*
X97100000Y-61890000D01*
X77910000Y-55970000D02*
X75290000Y-55970000D01*
X75290000Y-55970000D02*
X75290000Y-62390000D01*
X75290000Y-62390000D02*
X77910000Y-62390000D01*
X77910000Y-62390000D02*
X77910000Y-55970000D01*
X76600000Y-55080000D02*
X76600000Y-55970000D01*
X76600000Y-63280000D02*
X76600000Y-62390000D01*
X39290000Y-67730000D02*
X41910000Y-67730000D01*
X41910000Y-67730000D02*
X41910000Y-61310000D01*
X41910000Y-61310000D02*
X39290000Y-61310000D01*
X39290000Y-61310000D02*
X39290000Y-67730000D01*
X40600000Y-68620000D02*
X40600000Y-67730000D01*
X40600000Y-60420000D02*
X40600000Y-61310000D01*
X92470000Y-78290000D02*
X92470000Y-80910000D01*
X92470000Y-80910000D02*
X98890000Y-80910000D01*
X98890000Y-80910000D02*
X98890000Y-78290000D01*
X98890000Y-78290000D02*
X92470000Y-78290000D01*
X91580000Y-79600000D02*
X92470000Y-79600000D01*
X99780000Y-79600000D02*
X98890000Y-79600000D01*
D12*
X76370000Y-48080000D02*
X78910000Y-48080000D01*
X73550000Y-47800000D02*
X75100000Y-47800000D01*
X76370000Y-48080000D02*
X76370000Y-50620000D01*
X75100000Y-50900000D02*
X73550000Y-50900000D01*
X73550000Y-50900000D02*
X73550000Y-47800000D01*
X76370000Y-50620000D02*
X78910000Y-50620000D01*
X78910000Y-50620000D02*
X78910000Y-48080000D01*
X98370000Y-48080000D02*
X100910000Y-48080000D01*
X95550000Y-47800000D02*
X97100000Y-47800000D01*
X98370000Y-48080000D02*
X98370000Y-50620000D01*
X97100000Y-50900000D02*
X95550000Y-50900000D01*
X95550000Y-50900000D02*
X95550000Y-47800000D01*
X98370000Y-50620000D02*
X100910000Y-50620000D01*
X100910000Y-50620000D02*
X100910000Y-48080000D01*
D13*
X80660000Y-85610000D02*
X73540000Y-85610000D01*
X80660000Y-81990000D02*
X73540000Y-81990000D01*
X80660000Y-85610000D02*
X80660000Y-81990000D01*
X73540000Y-85610000D02*
X73540000Y-81990000D01*
X53279723Y-86155722D02*
G75*
G03X53280000Y-81544420I-1179723J2305722D01*
G01*
X50920277Y-86155722D02*
G75*
G02X50920000Y-81544420I1179723J2305722D01*
G01*
X50920277Y-86155722D02*
G75*
G03X53280000Y-86155580I1179723J2305722D01*
G01*
X54650000Y-83850000D02*
X49550000Y-83850000D01*
X54650000Y-83890000D02*
X49550000Y-83890000D01*
X54649000Y-83930000D02*
X49551000Y-83930000D01*
X54648000Y-83970000D02*
X49552000Y-83970000D01*
X54646000Y-84010000D02*
X49554000Y-84010000D01*
X54643000Y-84050000D02*
X49557000Y-84050000D01*
X54639000Y-84090000D02*
X49561000Y-84090000D01*
X54635000Y-84130000D02*
X53080000Y-84130000D01*
X51120000Y-84130000D02*
X49565000Y-84130000D01*
X54631000Y-84170000D02*
X53080000Y-84170000D01*
X51120000Y-84170000D02*
X49569000Y-84170000D01*
X54625000Y-84210000D02*
X53080000Y-84210000D01*
X51120000Y-84210000D02*
X49575000Y-84210000D01*
X54619000Y-84250000D02*
X53080000Y-84250000D01*
X51120000Y-84250000D02*
X49581000Y-84250000D01*
X54613000Y-84290000D02*
X53080000Y-84290000D01*
X51120000Y-84290000D02*
X49587000Y-84290000D01*
X54606000Y-84330000D02*
X53080000Y-84330000D01*
X51120000Y-84330000D02*
X49594000Y-84330000D01*
X54598000Y-84370000D02*
X53080000Y-84370000D01*
X51120000Y-84370000D02*
X49602000Y-84370000D01*
X54589000Y-84410000D02*
X53080000Y-84410000D01*
X51120000Y-84410000D02*
X49611000Y-84410000D01*
X54580000Y-84450000D02*
X53080000Y-84450000D01*
X51120000Y-84450000D02*
X49620000Y-84450000D01*
X54570000Y-84490000D02*
X53080000Y-84490000D01*
X51120000Y-84490000D02*
X49630000Y-84490000D01*
X54560000Y-84530000D02*
X53080000Y-84530000D01*
X51120000Y-84530000D02*
X49640000Y-84530000D01*
X54548000Y-84571000D02*
X53080000Y-84571000D01*
X51120000Y-84571000D02*
X49652000Y-84571000D01*
X54536000Y-84611000D02*
X53080000Y-84611000D01*
X51120000Y-84611000D02*
X49664000Y-84611000D01*
X54524000Y-84651000D02*
X53080000Y-84651000D01*
X51120000Y-84651000D02*
X49676000Y-84651000D01*
X54510000Y-84691000D02*
X53080000Y-84691000D01*
X51120000Y-84691000D02*
X49690000Y-84691000D01*
X54496000Y-84731000D02*
X53080000Y-84731000D01*
X51120000Y-84731000D02*
X49704000Y-84731000D01*
X54482000Y-84771000D02*
X53080000Y-84771000D01*
X51120000Y-84771000D02*
X49718000Y-84771000D01*
X54466000Y-84811000D02*
X53080000Y-84811000D01*
X51120000Y-84811000D02*
X49734000Y-84811000D01*
X54450000Y-84851000D02*
X53080000Y-84851000D01*
X51120000Y-84851000D02*
X49750000Y-84851000D01*
X54433000Y-84891000D02*
X53080000Y-84891000D01*
X51120000Y-84891000D02*
X49767000Y-84891000D01*
X54415000Y-84931000D02*
X53080000Y-84931000D01*
X51120000Y-84931000D02*
X49785000Y-84931000D01*
X54396000Y-84971000D02*
X53080000Y-84971000D01*
X51120000Y-84971000D02*
X49804000Y-84971000D01*
X54376000Y-85011000D02*
X53080000Y-85011000D01*
X51120000Y-85011000D02*
X49824000Y-85011000D01*
X54356000Y-85051000D02*
X53080000Y-85051000D01*
X51120000Y-85051000D02*
X49844000Y-85051000D01*
X54334000Y-85091000D02*
X53080000Y-85091000D01*
X51120000Y-85091000D02*
X49866000Y-85091000D01*
X54312000Y-85131000D02*
X53080000Y-85131000D01*
X51120000Y-85131000D02*
X49888000Y-85131000D01*
X54289000Y-85171000D02*
X53080000Y-85171000D01*
X51120000Y-85171000D02*
X49911000Y-85171000D01*
X54265000Y-85211000D02*
X53080000Y-85211000D01*
X51120000Y-85211000D02*
X49935000Y-85211000D01*
X54240000Y-85251000D02*
X53080000Y-85251000D01*
X51120000Y-85251000D02*
X49960000Y-85251000D01*
X54213000Y-85291000D02*
X53080000Y-85291000D01*
X51120000Y-85291000D02*
X49987000Y-85291000D01*
X54186000Y-85331000D02*
X53080000Y-85331000D01*
X51120000Y-85331000D02*
X50014000Y-85331000D01*
X54158000Y-85371000D02*
X53080000Y-85371000D01*
X51120000Y-85371000D02*
X50042000Y-85371000D01*
X54128000Y-85411000D02*
X53080000Y-85411000D01*
X51120000Y-85411000D02*
X50072000Y-85411000D01*
X54097000Y-85451000D02*
X53080000Y-85451000D01*
X51120000Y-85451000D02*
X50103000Y-85451000D01*
X54065000Y-85491000D02*
X53080000Y-85491000D01*
X51120000Y-85491000D02*
X50135000Y-85491000D01*
X54032000Y-85531000D02*
X53080000Y-85531000D01*
X51120000Y-85531000D02*
X50168000Y-85531000D01*
X53997000Y-85571000D02*
X53080000Y-85571000D01*
X51120000Y-85571000D02*
X50203000Y-85571000D01*
X53961000Y-85611000D02*
X53080000Y-85611000D01*
X51120000Y-85611000D02*
X50239000Y-85611000D01*
X53923000Y-85651000D02*
X53080000Y-85651000D01*
X51120000Y-85651000D02*
X50277000Y-85651000D01*
X53883000Y-85691000D02*
X53080000Y-85691000D01*
X51120000Y-85691000D02*
X50317000Y-85691000D01*
X53842000Y-85731000D02*
X53080000Y-85731000D01*
X51120000Y-85731000D02*
X50358000Y-85731000D01*
X53799000Y-85771000D02*
X53080000Y-85771000D01*
X51120000Y-85771000D02*
X50401000Y-85771000D01*
X53754000Y-85811000D02*
X53080000Y-85811000D01*
X51120000Y-85811000D02*
X50446000Y-85811000D01*
X53706000Y-85851000D02*
X53080000Y-85851000D01*
X51120000Y-85851000D02*
X50494000Y-85851000D01*
X53656000Y-85891000D02*
X53080000Y-85891000D01*
X51120000Y-85891000D02*
X50544000Y-85891000D01*
X53604000Y-85931000D02*
X53080000Y-85931000D01*
X51120000Y-85931000D02*
X50596000Y-85931000D01*
X53548000Y-85971000D02*
X53080000Y-85971000D01*
X51120000Y-85971000D02*
X50652000Y-85971000D01*
X53490000Y-86011000D02*
X53080000Y-86011000D01*
X51120000Y-86011000D02*
X50710000Y-86011000D01*
X53427000Y-86051000D02*
X53080000Y-86051000D01*
X51120000Y-86051000D02*
X50773000Y-86051000D01*
X53361000Y-86091000D02*
X50839000Y-86091000D01*
X53289000Y-86131000D02*
X50911000Y-86131000D01*
X53212000Y-86171000D02*
X50988000Y-86171000D01*
X53128000Y-86211000D02*
X51072000Y-86211000D01*
X53034000Y-86251000D02*
X51166000Y-86251000D01*
X52929000Y-86291000D02*
X51271000Y-86291000D01*
X52807000Y-86331000D02*
X51393000Y-86331000D01*
X52659000Y-86371000D02*
X51541000Y-86371000D01*
X52454000Y-86411000D02*
X51746000Y-86411000D01*
X52100000Y-80400000D02*
X52100000Y-81600000D01*
X52750000Y-81000000D02*
X51450000Y-81000000D01*
X48160000Y-85410000D02*
X41040000Y-85410000D01*
X48160000Y-81790000D02*
X41040000Y-81790000D01*
X48160000Y-85410000D02*
X48160000Y-81790000D01*
X41040000Y-85410000D02*
X41040000Y-81790000D01*
D12*
X50060000Y-71917000D02*
X50060000Y-73314000D01*
X52600000Y-71917000D02*
X52600000Y-73314000D01*
X55140000Y-71917000D02*
X55140000Y-73314000D01*
X55114472Y-58836000D02*
G75*
G03X55114472Y-58836000I-2514472J0D01*
G01*
X57934000Y-63408000D02*
X57934000Y-55407000D01*
X57934000Y-55407000D02*
X47266000Y-55407000D01*
X47266000Y-55407000D02*
X47266000Y-63408000D01*
X57934000Y-71917000D02*
X57934000Y-63408000D01*
X57934000Y-63408000D02*
X47266000Y-63408000D01*
X47266000Y-63408000D02*
X47266000Y-71917000D01*
X52600000Y-71917000D02*
X47266000Y-71917000D01*
X52600000Y-71917000D02*
X57934000Y-71917000D01*
X63560000Y-71917000D02*
X63560000Y-73314000D01*
X66100000Y-71917000D02*
X66100000Y-73314000D01*
X68640000Y-71917000D02*
X68640000Y-73314000D01*
X68614472Y-58836000D02*
G75*
G03X68614472Y-58836000I-2514472J0D01*
G01*
X71434000Y-63408000D02*
X71434000Y-55407000D01*
X71434000Y-55407000D02*
X60766000Y-55407000D01*
X60766000Y-55407000D02*
X60766000Y-63408000D01*
X71434000Y-71917000D02*
X71434000Y-63408000D01*
X71434000Y-63408000D02*
X60766000Y-63408000D01*
X60766000Y-63408000D02*
X60766000Y-71917000D01*
X66100000Y-71917000D02*
X60766000Y-71917000D01*
X66100000Y-71917000D02*
X71434000Y-71917000D01*
X32330000Y-65870000D02*
X32330000Y-78570000D01*
X32330000Y-78570000D02*
X34870000Y-78570000D01*
X34870000Y-78570000D02*
X34870000Y-65870000D01*
X32050000Y-63050000D02*
X32050000Y-64600000D01*
X32330000Y-65870000D02*
X34870000Y-65870000D01*
X35150000Y-64600000D02*
X35150000Y-63050000D01*
X35150000Y-63050000D02*
X32050000Y-63050000D01*
X137330000Y-65870000D02*
X137330000Y-78570000D01*
X137330000Y-78570000D02*
X139870000Y-78570000D01*
X139870000Y-78570000D02*
X139870000Y-65870000D01*
X137050000Y-63050000D02*
X137050000Y-64600000D01*
X137330000Y-65870000D02*
X139870000Y-65870000D01*
X140150000Y-64600000D02*
X140150000Y-63050000D01*
X140150000Y-63050000D02*
X137050000Y-63050000D01*
D14*
G36*
X84701687Y-60783611D02*
X84887869Y-60839654D01*
X84963313Y-60924682D01*
X84915093Y-60998352D01*
X84778056Y-61022000D01*
X84615596Y-61050128D01*
X84559334Y-61106666D01*
X84630246Y-61175456D01*
X84728667Y-61191333D01*
X84866571Y-61244272D01*
X84898000Y-61318333D01*
X84827414Y-61421761D01*
X84728667Y-61445333D01*
X84630809Y-61465545D01*
X84579831Y-61552934D01*
X84561140Y-61747631D01*
X84559334Y-61911000D01*
X84543451Y-62214522D01*
X84493029Y-62360074D01*
X84403910Y-62356270D01*
X84361778Y-62320222D01*
X84328672Y-62208813D01*
X84308364Y-61989585D01*
X84305334Y-61854555D01*
X84290841Y-61593312D01*
X84240933Y-61468357D01*
X84178334Y-61445333D01*
X84066085Y-61377560D01*
X84051334Y-61318333D01*
X84112113Y-61205931D01*
X84164743Y-61191333D01*
X84279185Y-61122031D01*
X84377126Y-60974111D01*
X84496246Y-60812427D01*
X84679094Y-60781253D01*
X84701687Y-60783611D01*
X84701687Y-60783611D01*
G37*
X84701687Y-60783611D02*
X84887869Y-60839654D01*
X84963313Y-60924682D01*
X84915093Y-60998352D01*
X84778056Y-61022000D01*
X84615596Y-61050128D01*
X84559334Y-61106666D01*
X84630246Y-61175456D01*
X84728667Y-61191333D01*
X84866571Y-61244272D01*
X84898000Y-61318333D01*
X84827414Y-61421761D01*
X84728667Y-61445333D01*
X84630809Y-61465545D01*
X84579831Y-61552934D01*
X84561140Y-61747631D01*
X84559334Y-61911000D01*
X84543451Y-62214522D01*
X84493029Y-62360074D01*
X84403910Y-62356270D01*
X84361778Y-62320222D01*
X84328672Y-62208813D01*
X84308364Y-61989585D01*
X84305334Y-61854555D01*
X84290841Y-61593312D01*
X84240933Y-61468357D01*
X84178334Y-61445333D01*
X84066085Y-61377560D01*
X84051334Y-61318333D01*
X84112113Y-61205931D01*
X84164743Y-61191333D01*
X84279185Y-61122031D01*
X84377126Y-60974111D01*
X84496246Y-60812427D01*
X84679094Y-60781253D01*
X84701687Y-60783611D01*
G36*
X85835033Y-61265899D02*
X85951533Y-61379505D01*
X86083334Y-61567677D01*
X86083334Y-61378026D01*
X86095356Y-61275004D01*
X86157245Y-61220788D01*
X86307734Y-61203155D01*
X86585557Y-61209880D01*
X86612500Y-61211021D01*
X87141667Y-61233666D01*
X87166702Y-61805166D01*
X87173701Y-62115719D01*
X87156449Y-62291551D01*
X87108717Y-62366312D01*
X87060869Y-62376666D01*
X86982904Y-62338555D01*
X86942412Y-62201827D01*
X86930053Y-61932889D01*
X86930000Y-61906003D01*
X86916513Y-61632161D01*
X86878672Y-61495448D01*
X86845334Y-61487666D01*
X86796565Y-61595991D01*
X86765964Y-61814364D01*
X86760667Y-61965385D01*
X86738815Y-62241202D01*
X86685566Y-62361760D01*
X86619384Y-62333625D01*
X86558730Y-62163365D01*
X86523332Y-61880963D01*
X86489349Y-61611073D01*
X86438619Y-61500539D01*
X86386402Y-61542435D01*
X86347955Y-61729837D01*
X86337334Y-61965385D01*
X86311883Y-62227105D01*
X86251064Y-62354804D01*
X86178179Y-62339947D01*
X86116529Y-62173997D01*
X86099136Y-62052646D01*
X86071094Y-61886404D01*
X85997543Y-61808365D01*
X85828738Y-61785300D01*
X85696969Y-61784000D01*
X85471575Y-61797639D01*
X85337530Y-61832095D01*
X85321334Y-61851733D01*
X85396429Y-61995707D01*
X85583831Y-62096476D01*
X85761600Y-62122666D01*
X85950746Y-62162790D01*
X85998667Y-62249666D01*
X85929510Y-62345637D01*
X85758922Y-62380641D01*
X85542229Y-62357749D01*
X85334756Y-62280037D01*
X85236667Y-62207333D01*
X85095466Y-61970174D01*
X85073921Y-61702751D01*
X85130733Y-61530000D01*
X85363667Y-61530000D01*
X85393642Y-61592782D01*
X85528003Y-61614666D01*
X85689493Y-61586294D01*
X85744667Y-61530000D01*
X85673978Y-61460527D01*
X85580330Y-61445333D01*
X85418249Y-61484211D01*
X85363667Y-61530000D01*
X85130733Y-61530000D01*
X85156283Y-61452311D01*
X85326804Y-61266101D01*
X85569734Y-61191366D01*
X85575334Y-61191333D01*
X85835033Y-61265899D01*
X85835033Y-61265899D01*
G37*
X85835033Y-61265899D02*
X85951533Y-61379505D01*
X86083334Y-61567677D01*
X86083334Y-61378026D01*
X86095356Y-61275004D01*
X86157245Y-61220788D01*
X86307734Y-61203155D01*
X86585557Y-61209880D01*
X86612500Y-61211021D01*
X87141667Y-61233666D01*
X87166702Y-61805166D01*
X87173701Y-62115719D01*
X87156449Y-62291551D01*
X87108717Y-62366312D01*
X87060869Y-62376666D01*
X86982904Y-62338555D01*
X86942412Y-62201827D01*
X86930053Y-61932889D01*
X86930000Y-61906003D01*
X86916513Y-61632161D01*
X86878672Y-61495448D01*
X86845334Y-61487666D01*
X86796565Y-61595991D01*
X86765964Y-61814364D01*
X86760667Y-61965385D01*
X86738815Y-62241202D01*
X86685566Y-62361760D01*
X86619384Y-62333625D01*
X86558730Y-62163365D01*
X86523332Y-61880963D01*
X86489349Y-61611073D01*
X86438619Y-61500539D01*
X86386402Y-61542435D01*
X86347955Y-61729837D01*
X86337334Y-61965385D01*
X86311883Y-62227105D01*
X86251064Y-62354804D01*
X86178179Y-62339947D01*
X86116529Y-62173997D01*
X86099136Y-62052646D01*
X86071094Y-61886404D01*
X85997543Y-61808365D01*
X85828738Y-61785300D01*
X85696969Y-61784000D01*
X85471575Y-61797639D01*
X85337530Y-61832095D01*
X85321334Y-61851733D01*
X85396429Y-61995707D01*
X85583831Y-62096476D01*
X85761600Y-62122666D01*
X85950746Y-62162790D01*
X85998667Y-62249666D01*
X85929510Y-62345637D01*
X85758922Y-62380641D01*
X85542229Y-62357749D01*
X85334756Y-62280037D01*
X85236667Y-62207333D01*
X85095466Y-61970174D01*
X85073921Y-61702751D01*
X85130733Y-61530000D01*
X85363667Y-61530000D01*
X85393642Y-61592782D01*
X85528003Y-61614666D01*
X85689493Y-61586294D01*
X85744667Y-61530000D01*
X85673978Y-61460527D01*
X85580330Y-61445333D01*
X85418249Y-61484211D01*
X85363667Y-61530000D01*
X85130733Y-61530000D01*
X85156283Y-61452311D01*
X85326804Y-61266101D01*
X85569734Y-61191366D01*
X85575334Y-61191333D01*
X85835033Y-61265899D01*
G36*
X87928702Y-61756085D02*
X87897791Y-62098455D01*
X87843711Y-62304296D01*
X87797834Y-62355807D01*
X87733080Y-62322754D01*
X87699525Y-62156565D01*
X87692000Y-61918055D01*
X87684869Y-61646472D01*
X87653949Y-61504067D01*
X87584952Y-61450949D01*
X87522667Y-61445333D01*
X87384763Y-61392393D01*
X87353334Y-61318333D01*
X87416712Y-61224966D01*
X87619839Y-61191681D01*
X87653535Y-61191333D01*
X87953737Y-61191333D01*
X87928702Y-61756085D01*
X87928702Y-61756085D01*
G37*
X87928702Y-61756085D02*
X87897791Y-62098455D01*
X87843711Y-62304296D01*
X87797834Y-62355807D01*
X87733080Y-62322754D01*
X87699525Y-62156565D01*
X87692000Y-61918055D01*
X87684869Y-61646472D01*
X87653949Y-61504067D01*
X87584952Y-61450949D01*
X87522667Y-61445333D01*
X87384763Y-61392393D01*
X87353334Y-61318333D01*
X87416712Y-61224966D01*
X87619839Y-61191681D01*
X87653535Y-61191333D01*
X87953737Y-61191333D01*
X87928702Y-61756085D01*
G36*
X88771500Y-61207861D02*
X89173667Y-61233666D01*
X89198702Y-61805166D01*
X89200595Y-62132720D01*
X89173885Y-62328462D01*
X89135202Y-62376666D01*
X89083381Y-62300251D01*
X89051714Y-62103450D01*
X89046667Y-61963700D01*
X89011915Y-61633397D01*
X88925633Y-61441754D01*
X88814782Y-61392312D01*
X88706325Y-61488614D01*
X88627221Y-61734201D01*
X88607603Y-61906018D01*
X88571461Y-62162092D01*
X88509725Y-62325488D01*
X88475167Y-62355937D01*
X88416691Y-62326241D01*
X88382889Y-62175540D01*
X88369822Y-61882647D01*
X88369334Y-61786416D01*
X88369334Y-61182055D01*
X88771500Y-61207861D01*
X88771500Y-61207861D01*
G37*
X88771500Y-61207861D02*
X89173667Y-61233666D01*
X89198702Y-61805166D01*
X89200595Y-62132720D01*
X89173885Y-62328462D01*
X89135202Y-62376666D01*
X89083381Y-62300251D01*
X89051714Y-62103450D01*
X89046667Y-61963700D01*
X89011915Y-61633397D01*
X88925633Y-61441754D01*
X88814782Y-61392312D01*
X88706325Y-61488614D01*
X88627221Y-61734201D01*
X88607603Y-61906018D01*
X88571461Y-62162092D01*
X88509725Y-62325488D01*
X88475167Y-62355937D01*
X88416691Y-62326241D01*
X88382889Y-62175540D01*
X88369822Y-61882647D01*
X88369334Y-61786416D01*
X88369334Y-61182055D01*
X88771500Y-61207861D01*
G36*
X90062667Y-61784000D02*
X90055198Y-62106005D01*
X90028343Y-62290299D01*
X89975427Y-62368025D01*
X89935667Y-62376666D01*
X89858357Y-62334114D01*
X89818996Y-62185217D01*
X89808667Y-61920874D01*
X89798885Y-61648369D01*
X89759539Y-61500264D01*
X89675625Y-61432256D01*
X89639334Y-61420801D01*
X89489880Y-61346874D01*
X89488938Y-61264877D01*
X89619990Y-61204658D01*
X89766334Y-61191333D01*
X90062667Y-61191333D01*
X90062667Y-61784000D01*
X90062667Y-61784000D01*
G37*
X90062667Y-61784000D02*
X90055198Y-62106005D01*
X90028343Y-62290299D01*
X89975427Y-62368025D01*
X89935667Y-62376666D01*
X89858357Y-62334114D01*
X89818996Y-62185217D01*
X89808667Y-61920874D01*
X89798885Y-61648369D01*
X89759539Y-61500264D01*
X89675625Y-61432256D01*
X89639334Y-61420801D01*
X89489880Y-61346874D01*
X89488938Y-61264877D01*
X89619990Y-61204658D01*
X89766334Y-61191333D01*
X90062667Y-61191333D01*
X90062667Y-61784000D01*
G36*
X91132533Y-61197168D02*
X91288636Y-61246946D01*
X91332667Y-61316216D01*
X91285878Y-61399846D01*
X91123695Y-61398858D01*
X91088935Y-61392353D01*
X90874442Y-61384824D01*
X90783806Y-61447208D01*
X90832109Y-61544124D01*
X90989437Y-61625762D01*
X91246963Y-61766747D01*
X91366553Y-61948023D01*
X91335438Y-62144071D01*
X91283960Y-62214376D01*
X91115055Y-62317747D01*
X90881994Y-62374370D01*
X90661273Y-62373055D01*
X90544746Y-62322524D01*
X90519188Y-62222788D01*
X90630767Y-62148604D01*
X90824667Y-62122666D01*
X91047084Y-62092271D01*
X91111120Y-62013808D01*
X91013841Y-61906361D01*
X90869223Y-61832718D01*
X90608895Y-61679049D01*
X90505424Y-61506459D01*
X90564900Y-61325494D01*
X90571562Y-61317255D01*
X90713409Y-61232405D01*
X90920595Y-61192349D01*
X91132533Y-61197168D01*
X91132533Y-61197168D01*
G37*
X91132533Y-61197168D02*
X91288636Y-61246946D01*
X91332667Y-61316216D01*
X91285878Y-61399846D01*
X91123695Y-61398858D01*
X91088935Y-61392353D01*
X90874442Y-61384824D01*
X90783806Y-61447208D01*
X90832109Y-61544124D01*
X90989437Y-61625762D01*
X91246963Y-61766747D01*
X91366553Y-61948023D01*
X91335438Y-62144071D01*
X91283960Y-62214376D01*
X91115055Y-62317747D01*
X90881994Y-62374370D01*
X90661273Y-62373055D01*
X90544746Y-62322524D01*
X90519188Y-62222788D01*
X90630767Y-62148604D01*
X90824667Y-62122666D01*
X91047084Y-62092271D01*
X91111120Y-62013808D01*
X91013841Y-61906361D01*
X90869223Y-61832718D01*
X90608895Y-61679049D01*
X90505424Y-61506459D01*
X90564900Y-61325494D01*
X90571562Y-61317255D01*
X90713409Y-61232405D01*
X90920595Y-61192349D01*
X91132533Y-61197168D01*
G36*
X91992607Y-60923502D02*
X92010000Y-61022000D01*
X92057782Y-61153213D01*
X92225301Y-61191326D01*
X92228722Y-61191333D01*
X92384048Y-61230720D01*
X92406090Y-61316823D01*
X92301867Y-61401552D01*
X92193868Y-61430055D01*
X92065419Y-61483909D01*
X92015029Y-61627147D01*
X92010000Y-61750212D01*
X92045974Y-61986337D01*
X92158167Y-62091112D01*
X92358210Y-62154860D01*
X92430961Y-62177677D01*
X92513113Y-62221216D01*
X92444068Y-62286891D01*
X92430961Y-62295258D01*
X92198065Y-62371580D01*
X91976295Y-62333987D01*
X91843646Y-62212899D01*
X91783156Y-62015942D01*
X91756101Y-61761920D01*
X91756000Y-61747232D01*
X91735099Y-61549165D01*
X91683587Y-61448509D01*
X91671334Y-61445333D01*
X91596219Y-61376756D01*
X91586667Y-61318333D01*
X91627137Y-61205586D01*
X91661459Y-61191333D01*
X91740508Y-61120871D01*
X91780532Y-61022000D01*
X91855118Y-60884584D01*
X91917407Y-60852666D01*
X91992607Y-60923502D01*
X91992607Y-60923502D01*
G37*
X91992607Y-60923502D02*
X92010000Y-61022000D01*
X92057782Y-61153213D01*
X92225301Y-61191326D01*
X92228722Y-61191333D01*
X92384048Y-61230720D01*
X92406090Y-61316823D01*
X92301867Y-61401552D01*
X92193868Y-61430055D01*
X92065419Y-61483909D01*
X92015029Y-61627147D01*
X92010000Y-61750212D01*
X92045974Y-61986337D01*
X92158167Y-62091112D01*
X92358210Y-62154860D01*
X92430961Y-62177677D01*
X92513113Y-62221216D01*
X92444068Y-62286891D01*
X92430961Y-62295258D01*
X92198065Y-62371580D01*
X91976295Y-62333987D01*
X91843646Y-62212899D01*
X91783156Y-62015942D01*
X91756101Y-61761920D01*
X91756000Y-61747232D01*
X91735099Y-61549165D01*
X91683587Y-61448509D01*
X91671334Y-61445333D01*
X91596219Y-61376756D01*
X91586667Y-61318333D01*
X91627137Y-61205586D01*
X91661459Y-61191333D01*
X91740508Y-61120871D01*
X91780532Y-61022000D01*
X91855118Y-60884584D01*
X91917407Y-60852666D01*
X91992607Y-60923502D01*
G36*
X93411669Y-61249921D02*
X93460586Y-61291307D01*
X93500400Y-61434395D01*
X93526677Y-61682063D01*
X93532704Y-61871842D01*
X93534000Y-62340684D01*
X93196835Y-62354129D01*
X92914101Y-62328226D01*
X92731169Y-62239073D01*
X92623379Y-62112859D01*
X92622397Y-62024919D01*
X92959765Y-62024919D01*
X92984773Y-62109039D01*
X93072733Y-62109585D01*
X93221221Y-62028383D01*
X93261568Y-61966414D01*
X93236561Y-61882293D01*
X93148600Y-61881747D01*
X93000113Y-61962949D01*
X92959765Y-62024919D01*
X92622397Y-62024919D01*
X92622147Y-62002643D01*
X92684327Y-61874285D01*
X92821152Y-61750097D01*
X93030269Y-61668846D01*
X93219303Y-61596174D01*
X93259208Y-61508804D01*
X93162649Y-61442015D01*
X92944833Y-61430824D01*
X92753253Y-61430478D01*
X92700425Y-61370053D01*
X92705770Y-61346158D01*
X92810716Y-61260712D01*
X93010763Y-61212746D01*
X93234788Y-61207426D01*
X93411669Y-61249921D01*
X93411669Y-61249921D01*
G37*
X93411669Y-61249921D02*
X93460586Y-61291307D01*
X93500400Y-61434395D01*
X93526677Y-61682063D01*
X93532704Y-61871842D01*
X93534000Y-62340684D01*
X93196835Y-62354129D01*
X92914101Y-62328226D01*
X92731169Y-62239073D01*
X92623379Y-62112859D01*
X92622397Y-62024919D01*
X92959765Y-62024919D01*
X92984773Y-62109039D01*
X93072733Y-62109585D01*
X93221221Y-62028383D01*
X93261568Y-61966414D01*
X93236561Y-61882293D01*
X93148600Y-61881747D01*
X93000113Y-61962949D01*
X92959765Y-62024919D01*
X92622397Y-62024919D01*
X92622147Y-62002643D01*
X92684327Y-61874285D01*
X92821152Y-61750097D01*
X93030269Y-61668846D01*
X93219303Y-61596174D01*
X93259208Y-61508804D01*
X93162649Y-61442015D01*
X92944833Y-61430824D01*
X92753253Y-61430478D01*
X92700425Y-61370053D01*
X92705770Y-61346158D01*
X92810716Y-61260712D01*
X93010763Y-61212746D01*
X93234788Y-61207426D01*
X93411669Y-61249921D01*
G36*
X83628000Y-62292000D02*
X80241334Y-62292000D01*
X80241334Y-61700759D01*
X80580000Y-61700759D01*
X80580000Y-61953333D01*
X83289334Y-61953333D01*
X83289334Y-61658815D01*
X83280167Y-61466282D01*
X83229932Y-61407876D01*
X83104527Y-61448534D01*
X83090849Y-61454732D01*
X82957036Y-61489895D01*
X82787142Y-61471422D01*
X82539591Y-61390562D01*
X82277650Y-61283584D01*
X81970879Y-61159266D01*
X81715243Y-61066963D01*
X81557756Y-61023394D01*
X81541987Y-61022000D01*
X81402769Y-61058394D01*
X81174271Y-61151933D01*
X81000519Y-61235092D01*
X80753676Y-61372917D01*
X80626961Y-61490359D01*
X80582888Y-61628930D01*
X80580000Y-61700759D01*
X80241334Y-61700759D01*
X80241334Y-60729235D01*
X80580000Y-60729235D01*
X80591484Y-60923795D01*
X80619673Y-61019843D01*
X80625148Y-61022000D01*
X80719643Y-60986723D01*
X80915386Y-60895842D01*
X81088000Y-60810333D01*
X81339444Y-60692735D01*
X81538814Y-60616939D01*
X81614352Y-60601037D01*
X81741587Y-60635389D01*
X81972962Y-60723416D01*
X82259526Y-60846427D01*
X82273334Y-60852666D01*
X82563868Y-60985401D01*
X82740833Y-61061607D01*
X82847074Y-61089623D01*
X82925439Y-61077787D01*
X83018774Y-61034436D01*
X83073683Y-61008409D01*
X83249616Y-60862369D01*
X83289334Y-60688672D01*
X83275560Y-60549068D01*
X83202596Y-60492532D01*
X83022972Y-60493020D01*
X82945419Y-60499989D01*
X82693574Y-60497341D01*
X82451967Y-60421742D01*
X82177793Y-60269393D01*
X81823165Y-60082428D01*
X81526253Y-60019672D01*
X81232049Y-60078971D01*
X80947272Y-60221235D01*
X80723223Y-60368129D01*
X80614240Y-60499642D01*
X80581057Y-60670081D01*
X80580000Y-60729235D01*
X80241334Y-60729235D01*
X80241334Y-58566666D01*
X80580000Y-58566666D01*
X80580000Y-60000289D01*
X80855167Y-59840019D01*
X81221714Y-59668040D01*
X81550033Y-59622236D01*
X81891674Y-59703895D01*
X82231000Y-59874460D01*
X82544258Y-60049305D01*
X82758560Y-60141683D01*
X82916681Y-60161789D01*
X83061394Y-60119819D01*
X83125566Y-60087687D01*
X83206771Y-60023147D01*
X83256029Y-59911421D01*
X83280923Y-59715269D01*
X83289036Y-59397450D01*
X83289334Y-59283354D01*
X83289334Y-58566666D01*
X80580000Y-58566666D01*
X80241334Y-58566666D01*
X80241334Y-58312666D01*
X83628000Y-58312666D01*
X83628000Y-62292000D01*
X83628000Y-62292000D01*
G37*
X83628000Y-62292000D02*
X80241334Y-62292000D01*
X80241334Y-61700759D01*
X80580000Y-61700759D01*
X80580000Y-61953333D01*
X83289334Y-61953333D01*
X83289334Y-61658815D01*
X83280167Y-61466282D01*
X83229932Y-61407876D01*
X83104527Y-61448534D01*
X83090849Y-61454732D01*
X82957036Y-61489895D01*
X82787142Y-61471422D01*
X82539591Y-61390562D01*
X82277650Y-61283584D01*
X81970879Y-61159266D01*
X81715243Y-61066963D01*
X81557756Y-61023394D01*
X81541987Y-61022000D01*
X81402769Y-61058394D01*
X81174271Y-61151933D01*
X81000519Y-61235092D01*
X80753676Y-61372917D01*
X80626961Y-61490359D01*
X80582888Y-61628930D01*
X80580000Y-61700759D01*
X80241334Y-61700759D01*
X80241334Y-60729235D01*
X80580000Y-60729235D01*
X80591484Y-60923795D01*
X80619673Y-61019843D01*
X80625148Y-61022000D01*
X80719643Y-60986723D01*
X80915386Y-60895842D01*
X81088000Y-60810333D01*
X81339444Y-60692735D01*
X81538814Y-60616939D01*
X81614352Y-60601037D01*
X81741587Y-60635389D01*
X81972962Y-60723416D01*
X82259526Y-60846427D01*
X82273334Y-60852666D01*
X82563868Y-60985401D01*
X82740833Y-61061607D01*
X82847074Y-61089623D01*
X82925439Y-61077787D01*
X83018774Y-61034436D01*
X83073683Y-61008409D01*
X83249616Y-60862369D01*
X83289334Y-60688672D01*
X83275560Y-60549068D01*
X83202596Y-60492532D01*
X83022972Y-60493020D01*
X82945419Y-60499989D01*
X82693574Y-60497341D01*
X82451967Y-60421742D01*
X82177793Y-60269393D01*
X81823165Y-60082428D01*
X81526253Y-60019672D01*
X81232049Y-60078971D01*
X80947272Y-60221235D01*
X80723223Y-60368129D01*
X80614240Y-60499642D01*
X80581057Y-60670081D01*
X80580000Y-60729235D01*
X80241334Y-60729235D01*
X80241334Y-58566666D01*
X80580000Y-58566666D01*
X80580000Y-60000289D01*
X80855167Y-59840019D01*
X81221714Y-59668040D01*
X81550033Y-59622236D01*
X81891674Y-59703895D01*
X82231000Y-59874460D01*
X82544258Y-60049305D01*
X82758560Y-60141683D01*
X82916681Y-60161789D01*
X83061394Y-60119819D01*
X83125566Y-60087687D01*
X83206771Y-60023147D01*
X83256029Y-59911421D01*
X83280923Y-59715269D01*
X83289036Y-59397450D01*
X83289334Y-59283354D01*
X83289334Y-58566666D01*
X80580000Y-58566666D01*
X80241334Y-58566666D01*
X80241334Y-58312666D01*
X83628000Y-58312666D01*
X83628000Y-62292000D01*
G36*
X87896152Y-60893156D02*
X87903667Y-60937333D01*
X87836901Y-61064461D01*
X87797834Y-61085500D01*
X87712858Y-61046204D01*
X87692000Y-60937333D01*
X87731012Y-60803046D01*
X87797834Y-60789166D01*
X87896152Y-60893156D01*
X87896152Y-60893156D01*
G37*
X87896152Y-60893156D02*
X87903667Y-60937333D01*
X87836901Y-61064461D01*
X87797834Y-61085500D01*
X87712858Y-61046204D01*
X87692000Y-60937333D01*
X87731012Y-60803046D01*
X87797834Y-60789166D01*
X87896152Y-60893156D01*
G36*
X90047743Y-60838957D02*
X90062667Y-60937333D01*
X90017990Y-61081403D01*
X89918581Y-61092736D01*
X89851000Y-61022000D01*
X89840590Y-60881895D01*
X89933282Y-60778199D01*
X89982997Y-60768000D01*
X90047743Y-60838957D01*
X90047743Y-60838957D01*
G37*
X90047743Y-60838957D02*
X90062667Y-60937333D01*
X90017990Y-61081403D01*
X89918581Y-61092736D01*
X89851000Y-61022000D01*
X89840590Y-60881895D01*
X89933282Y-60778199D01*
X89982997Y-60768000D01*
X90047743Y-60838957D01*
G36*
X93168912Y-59114610D02*
X93309084Y-59408553D01*
X92856995Y-59897776D01*
X92628480Y-60145440D01*
X92436464Y-60354226D01*
X92317003Y-60484917D01*
X92306108Y-60496988D01*
X92234756Y-60526821D01*
X92125995Y-60471338D01*
X91957529Y-60313719D01*
X91727654Y-60060643D01*
X91645637Y-59963666D01*
X91840667Y-59963666D01*
X91883000Y-60006000D01*
X91925334Y-59963666D01*
X91883000Y-59921333D01*
X91840667Y-59963666D01*
X91645637Y-59963666D01*
X91473302Y-59759898D01*
X91323663Y-59541771D01*
X91315206Y-59516930D01*
X91529287Y-59516930D01*
X91568799Y-59597821D01*
X91629470Y-59667852D01*
X91767599Y-59791957D01*
X91823691Y-59777512D01*
X91791268Y-59637118D01*
X91700127Y-59538619D01*
X91925334Y-59538619D01*
X91955782Y-59661585D01*
X92029541Y-59847544D01*
X92120235Y-60040163D01*
X92201486Y-60183111D01*
X92245393Y-60222162D01*
X92304812Y-60123297D01*
X92401059Y-59927888D01*
X92404056Y-59921333D01*
X92632057Y-59921333D01*
X92700958Y-59866374D01*
X92835691Y-59731843D01*
X92856667Y-59709666D01*
X92974692Y-59564182D01*
X92967405Y-59503356D01*
X92927349Y-59498000D01*
X92800921Y-59567512D01*
X92702739Y-59709666D01*
X92640948Y-59862920D01*
X92632057Y-59921333D01*
X92404056Y-59921333D01*
X92442322Y-59837649D01*
X92594388Y-59498000D01*
X92259861Y-59498000D01*
X92049216Y-59507123D01*
X91933182Y-59529880D01*
X91925334Y-59538619D01*
X91700127Y-59538619D01*
X91680207Y-59517091D01*
X91606820Y-59498000D01*
X91529287Y-59516930D01*
X91315206Y-59516930D01*
X91264592Y-59368270D01*
X91281943Y-59201406D01*
X91284539Y-59194741D01*
X91450608Y-59194741D01*
X91457325Y-59303333D01*
X91567734Y-59328666D01*
X91672707Y-59280767D01*
X91956336Y-59280767D01*
X92059736Y-59320315D01*
X92257921Y-59328666D01*
X92474964Y-59321461D01*
X92556839Y-59285080D01*
X92537567Y-59197372D01*
X92518000Y-59159333D01*
X92428851Y-59079405D01*
X92647350Y-59079405D01*
X92683720Y-59152580D01*
X92801253Y-59286169D01*
X92926861Y-59326414D01*
X93007020Y-59268738D01*
X93010177Y-59180500D01*
X92913667Y-59053965D01*
X92785709Y-59004414D01*
X92648865Y-59001197D01*
X92647350Y-59079405D01*
X92428851Y-59079405D01*
X92413113Y-59065295D01*
X92250543Y-58997850D01*
X92095265Y-58974127D01*
X92012254Y-59011256D01*
X92010000Y-59025408D01*
X91983661Y-59124932D01*
X91958608Y-59194741D01*
X91956336Y-59280767D01*
X91672707Y-59280767D01*
X91727895Y-59255585D01*
X91780532Y-59159333D01*
X91776576Y-59024060D01*
X91663407Y-58990000D01*
X91529946Y-59005555D01*
X91502000Y-59025408D01*
X91475661Y-59124932D01*
X91450608Y-59194741D01*
X91284539Y-59194741D01*
X91346257Y-59036317D01*
X91400434Y-58935565D01*
X91475450Y-58872368D01*
X91607398Y-58837982D01*
X91832372Y-58823667D01*
X92186466Y-58820679D01*
X92236627Y-58820666D01*
X93028740Y-58820666D01*
X93168912Y-59114610D01*
X93168912Y-59114610D01*
G37*
X93168912Y-59114610D02*
X93309084Y-59408553D01*
X92856995Y-59897776D01*
X92628480Y-60145440D01*
X92436464Y-60354226D01*
X92317003Y-60484917D01*
X92306108Y-60496988D01*
X92234756Y-60526821D01*
X92125995Y-60471338D01*
X91957529Y-60313719D01*
X91727654Y-60060643D01*
X91645637Y-59963666D01*
X91840667Y-59963666D01*
X91883000Y-60006000D01*
X91925334Y-59963666D01*
X91883000Y-59921333D01*
X91840667Y-59963666D01*
X91645637Y-59963666D01*
X91473302Y-59759898D01*
X91323663Y-59541771D01*
X91315206Y-59516930D01*
X91529287Y-59516930D01*
X91568799Y-59597821D01*
X91629470Y-59667852D01*
X91767599Y-59791957D01*
X91823691Y-59777512D01*
X91791268Y-59637118D01*
X91700127Y-59538619D01*
X91925334Y-59538619D01*
X91955782Y-59661585D01*
X92029541Y-59847544D01*
X92120235Y-60040163D01*
X92201486Y-60183111D01*
X92245393Y-60222162D01*
X92304812Y-60123297D01*
X92401059Y-59927888D01*
X92404056Y-59921333D01*
X92632057Y-59921333D01*
X92700958Y-59866374D01*
X92835691Y-59731843D01*
X92856667Y-59709666D01*
X92974692Y-59564182D01*
X92967405Y-59503356D01*
X92927349Y-59498000D01*
X92800921Y-59567512D01*
X92702739Y-59709666D01*
X92640948Y-59862920D01*
X92632057Y-59921333D01*
X92404056Y-59921333D01*
X92442322Y-59837649D01*
X92594388Y-59498000D01*
X92259861Y-59498000D01*
X92049216Y-59507123D01*
X91933182Y-59529880D01*
X91925334Y-59538619D01*
X91700127Y-59538619D01*
X91680207Y-59517091D01*
X91606820Y-59498000D01*
X91529287Y-59516930D01*
X91315206Y-59516930D01*
X91264592Y-59368270D01*
X91281943Y-59201406D01*
X91284539Y-59194741D01*
X91450608Y-59194741D01*
X91457325Y-59303333D01*
X91567734Y-59328666D01*
X91672707Y-59280767D01*
X91956336Y-59280767D01*
X92059736Y-59320315D01*
X92257921Y-59328666D01*
X92474964Y-59321461D01*
X92556839Y-59285080D01*
X92537567Y-59197372D01*
X92518000Y-59159333D01*
X92428851Y-59079405D01*
X92647350Y-59079405D01*
X92683720Y-59152580D01*
X92801253Y-59286169D01*
X92926861Y-59326414D01*
X93007020Y-59268738D01*
X93010177Y-59180500D01*
X92913667Y-59053965D01*
X92785709Y-59004414D01*
X92648865Y-59001197D01*
X92647350Y-59079405D01*
X92428851Y-59079405D01*
X92413113Y-59065295D01*
X92250543Y-58997850D01*
X92095265Y-58974127D01*
X92012254Y-59011256D01*
X92010000Y-59025408D01*
X91983661Y-59124932D01*
X91958608Y-59194741D01*
X91956336Y-59280767D01*
X91672707Y-59280767D01*
X91727895Y-59255585D01*
X91780532Y-59159333D01*
X91776576Y-59024060D01*
X91663407Y-58990000D01*
X91529946Y-59005555D01*
X91502000Y-59025408D01*
X91475661Y-59124932D01*
X91450608Y-59194741D01*
X91284539Y-59194741D01*
X91346257Y-59036317D01*
X91400434Y-58935565D01*
X91475450Y-58872368D01*
X91607398Y-58837982D01*
X91832372Y-58823667D01*
X92186466Y-58820679D01*
X92236627Y-58820666D01*
X93028740Y-58820666D01*
X93168912Y-59114610D01*
G36*
X85557941Y-58383502D02*
X85575334Y-58482000D01*
X85623115Y-58613213D01*
X85790634Y-58651326D01*
X85794056Y-58651333D01*
X85949382Y-58690720D01*
X85971423Y-58776823D01*
X85867200Y-58861552D01*
X85759202Y-58890055D01*
X85630752Y-58943909D01*
X85580362Y-59087147D01*
X85575334Y-59210212D01*
X85611307Y-59446337D01*
X85723500Y-59551112D01*
X85923543Y-59614860D01*
X85996294Y-59637677D01*
X86078446Y-59681216D01*
X86009401Y-59746891D01*
X85996294Y-59755258D01*
X85763398Y-59831580D01*
X85541629Y-59793987D01*
X85408979Y-59672899D01*
X85348490Y-59475942D01*
X85321434Y-59221920D01*
X85321334Y-59207232D01*
X85300433Y-59009165D01*
X85248921Y-58908509D01*
X85236667Y-58905333D01*
X85161552Y-58836756D01*
X85152000Y-58778333D01*
X85192471Y-58665586D01*
X85226792Y-58651333D01*
X85305842Y-58580871D01*
X85345866Y-58482000D01*
X85420451Y-58344584D01*
X85482740Y-58312666D01*
X85557941Y-58383502D01*
X85557941Y-58383502D01*
G37*
X85557941Y-58383502D02*
X85575334Y-58482000D01*
X85623115Y-58613213D01*
X85790634Y-58651326D01*
X85794056Y-58651333D01*
X85949382Y-58690720D01*
X85971423Y-58776823D01*
X85867200Y-58861552D01*
X85759202Y-58890055D01*
X85630752Y-58943909D01*
X85580362Y-59087147D01*
X85575334Y-59210212D01*
X85611307Y-59446337D01*
X85723500Y-59551112D01*
X85923543Y-59614860D01*
X85996294Y-59637677D01*
X86078446Y-59681216D01*
X86009401Y-59746891D01*
X85996294Y-59755258D01*
X85763398Y-59831580D01*
X85541629Y-59793987D01*
X85408979Y-59672899D01*
X85348490Y-59475942D01*
X85321434Y-59221920D01*
X85321334Y-59207232D01*
X85300433Y-59009165D01*
X85248921Y-58908509D01*
X85236667Y-58905333D01*
X85161552Y-58836756D01*
X85152000Y-58778333D01*
X85192471Y-58665586D01*
X85226792Y-58651333D01*
X85305842Y-58580871D01*
X85345866Y-58482000D01*
X85420451Y-58344584D01*
X85482740Y-58312666D01*
X85557941Y-58383502D01*
G36*
X86918262Y-58703798D02*
X87069552Y-58879653D01*
X87137010Y-59053500D01*
X87159098Y-59168845D01*
X87106997Y-59224827D01*
X86943060Y-59242704D01*
X86799647Y-59244000D01*
X86560038Y-59253666D01*
X86455499Y-59291376D01*
X86452431Y-59370197D01*
X86455275Y-59377924D01*
X86500103Y-59512892D01*
X86506667Y-59547258D01*
X86581330Y-59570457D01*
X86765419Y-59582281D01*
X86810056Y-59582666D01*
X87019718Y-59614479D01*
X87081763Y-59687322D01*
X87000432Y-59767301D01*
X86780305Y-59820492D01*
X86491602Y-59778641D01*
X86342326Y-59672325D01*
X86191362Y-59426055D01*
X86166359Y-59155625D01*
X86223082Y-58990000D01*
X86464334Y-58990000D01*
X86494309Y-59052782D01*
X86628670Y-59074666D01*
X86790160Y-59046294D01*
X86845334Y-58990000D01*
X86774645Y-58920527D01*
X86680997Y-58905333D01*
X86518915Y-58944211D01*
X86464334Y-58990000D01*
X86223082Y-58990000D01*
X86251772Y-58906231D01*
X86432059Y-58723069D01*
X86691675Y-58651336D01*
X86693467Y-58651333D01*
X86918262Y-58703798D01*
X86918262Y-58703798D01*
G37*
X86918262Y-58703798D02*
X87069552Y-58879653D01*
X87137010Y-59053500D01*
X87159098Y-59168845D01*
X87106997Y-59224827D01*
X86943060Y-59242704D01*
X86799647Y-59244000D01*
X86560038Y-59253666D01*
X86455499Y-59291376D01*
X86452431Y-59370197D01*
X86455275Y-59377924D01*
X86500103Y-59512892D01*
X86506667Y-59547258D01*
X86581330Y-59570457D01*
X86765419Y-59582281D01*
X86810056Y-59582666D01*
X87019718Y-59614479D01*
X87081763Y-59687322D01*
X87000432Y-59767301D01*
X86780305Y-59820492D01*
X86491602Y-59778641D01*
X86342326Y-59672325D01*
X86191362Y-59426055D01*
X86166359Y-59155625D01*
X86223082Y-58990000D01*
X86464334Y-58990000D01*
X86494309Y-59052782D01*
X86628670Y-59074666D01*
X86790160Y-59046294D01*
X86845334Y-58990000D01*
X86774645Y-58920527D01*
X86680997Y-58905333D01*
X86518915Y-58944211D01*
X86464334Y-58990000D01*
X86223082Y-58990000D01*
X86251772Y-58906231D01*
X86432059Y-58723069D01*
X86691675Y-58651336D01*
X86693467Y-58651333D01*
X86918262Y-58703798D01*
G36*
X88094794Y-58707782D02*
X88115334Y-58778333D01*
X88007893Y-58837320D01*
X87894027Y-58840435D01*
X87684974Y-58884018D01*
X87558980Y-59055012D01*
X87537716Y-59302380D01*
X87577912Y-59461598D01*
X87684883Y-59536974D01*
X87887748Y-59566923D01*
X88105761Y-59608748D01*
X88179987Y-59681408D01*
X88177561Y-59693923D01*
X88069690Y-59784227D01*
X87867909Y-59815556D01*
X87637499Y-59786651D01*
X87459167Y-59707783D01*
X87313853Y-59512701D01*
X87262708Y-59244747D01*
X87307917Y-58973221D01*
X87430080Y-58785500D01*
X87577142Y-58709434D01*
X87773143Y-58670747D01*
X87963791Y-58670007D01*
X88094794Y-58707782D01*
X88094794Y-58707782D01*
G37*
X88094794Y-58707782D02*
X88115334Y-58778333D01*
X88007893Y-58837320D01*
X87894027Y-58840435D01*
X87684974Y-58884018D01*
X87558980Y-59055012D01*
X87537716Y-59302380D01*
X87577912Y-59461598D01*
X87684883Y-59536974D01*
X87887748Y-59566923D01*
X88105761Y-59608748D01*
X88179987Y-59681408D01*
X88177561Y-59693923D01*
X88069690Y-59784227D01*
X87867909Y-59815556D01*
X87637499Y-59786651D01*
X87459167Y-59707783D01*
X87313853Y-59512701D01*
X87262708Y-59244747D01*
X87307917Y-58973221D01*
X87430080Y-58785500D01*
X87577142Y-58709434D01*
X87773143Y-58670747D01*
X87963791Y-58670007D01*
X88094794Y-58707782D01*
G36*
X88771500Y-58667861D02*
X89173667Y-58693666D01*
X89198702Y-59265166D01*
X89200595Y-59592720D01*
X89173885Y-59788462D01*
X89135202Y-59836666D01*
X89083381Y-59760251D01*
X89051714Y-59563450D01*
X89046667Y-59423700D01*
X89011915Y-59093397D01*
X88925633Y-58901754D01*
X88814782Y-58852312D01*
X88706325Y-58948614D01*
X88627221Y-59194201D01*
X88607603Y-59366018D01*
X88571461Y-59622092D01*
X88509725Y-59785488D01*
X88475167Y-59815937D01*
X88416691Y-59786241D01*
X88382889Y-59635540D01*
X88369822Y-59342647D01*
X88369334Y-59246416D01*
X88369334Y-58642055D01*
X88771500Y-58667861D01*
X88771500Y-58667861D01*
G37*
X88771500Y-58667861D02*
X89173667Y-58693666D01*
X89198702Y-59265166D01*
X89200595Y-59592720D01*
X89173885Y-59788462D01*
X89135202Y-59836666D01*
X89083381Y-59760251D01*
X89051714Y-59563450D01*
X89046667Y-59423700D01*
X89011915Y-59093397D01*
X88925633Y-58901754D01*
X88814782Y-58852312D01*
X88706325Y-58948614D01*
X88627221Y-59194201D01*
X88607603Y-59366018D01*
X88571461Y-59622092D01*
X88509725Y-59785488D01*
X88475167Y-59815937D01*
X88416691Y-59786241D01*
X88382889Y-59635540D01*
X88369822Y-59342647D01*
X88369334Y-59246416D01*
X88369334Y-58642055D01*
X88771500Y-58667861D01*
G36*
X90093202Y-58699288D02*
X90269533Y-58839505D01*
X90380428Y-59101105D01*
X90375196Y-59360646D01*
X90278928Y-59589723D01*
X90116713Y-59759935D01*
X89913641Y-59842878D01*
X89694803Y-59810149D01*
X89525456Y-59681833D01*
X89418155Y-59458937D01*
X89390870Y-59180199D01*
X89640048Y-59180199D01*
X89640791Y-59389466D01*
X89695778Y-59526222D01*
X89850196Y-59583254D01*
X90019073Y-59537255D01*
X90095942Y-59448741D01*
X90141561Y-59192595D01*
X90087863Y-58984981D01*
X89956655Y-58865438D01*
X89777065Y-58870597D01*
X89688705Y-58981174D01*
X89640048Y-59180199D01*
X89390870Y-59180199D01*
X89389323Y-59164396D01*
X89443856Y-58879077D01*
X89472979Y-58815100D01*
X89627881Y-58683177D01*
X89856534Y-58645244D01*
X90093202Y-58699288D01*
X90093202Y-58699288D01*
G37*
X90093202Y-58699288D02*
X90269533Y-58839505D01*
X90380428Y-59101105D01*
X90375196Y-59360646D01*
X90278928Y-59589723D01*
X90116713Y-59759935D01*
X89913641Y-59842878D01*
X89694803Y-59810149D01*
X89525456Y-59681833D01*
X89418155Y-59458937D01*
X89390870Y-59180199D01*
X89640048Y-59180199D01*
X89640791Y-59389466D01*
X89695778Y-59526222D01*
X89850196Y-59583254D01*
X90019073Y-59537255D01*
X90095942Y-59448741D01*
X90141561Y-59192595D01*
X90087863Y-58984981D01*
X89956655Y-58865438D01*
X89777065Y-58870597D01*
X89688705Y-58981174D01*
X89640048Y-59180199D01*
X89390870Y-59180199D01*
X89389323Y-59164396D01*
X89443856Y-58879077D01*
X89472979Y-58815100D01*
X89627881Y-58683177D01*
X89856534Y-58645244D01*
X90093202Y-58699288D01*
G36*
X84498005Y-59095489D02*
X84728853Y-59142101D01*
X84900610Y-59134118D01*
X85040158Y-59142404D01*
X85067334Y-59212250D01*
X84997635Y-59348681D01*
X84805953Y-59396967D01*
X84518409Y-59351054D01*
X84496599Y-59344535D01*
X84186142Y-59296681D01*
X84038385Y-59335596D01*
X83915311Y-59374125D01*
X83882006Y-59288917D01*
X83882000Y-59286583D01*
X83955123Y-59149641D01*
X84138319Y-59070383D01*
X84377332Y-59065642D01*
X84498005Y-59095489D01*
X84498005Y-59095489D01*
G37*
X84498005Y-59095489D02*
X84728853Y-59142101D01*
X84900610Y-59134118D01*
X85040158Y-59142404D01*
X85067334Y-59212250D01*
X84997635Y-59348681D01*
X84805953Y-59396967D01*
X84518409Y-59351054D01*
X84496599Y-59344535D01*
X84186142Y-59296681D01*
X84038385Y-59335596D01*
X83915311Y-59374125D01*
X83882006Y-59288917D01*
X83882000Y-59286583D01*
X83955123Y-59149641D01*
X84138319Y-59070383D01*
X84377332Y-59065642D01*
X84498005Y-59095489D01*
G36*
X84805641Y-56131710D02*
X84880297Y-56195297D01*
X84876502Y-56217166D01*
X84776331Y-56287496D01*
X84623533Y-56296833D01*
X84417852Y-56309073D01*
X84350553Y-56385642D01*
X84432194Y-56488319D01*
X84554770Y-56545762D01*
X84812297Y-56686747D01*
X84931886Y-56868023D01*
X84900771Y-57064071D01*
X84849293Y-57134376D01*
X84680389Y-57237747D01*
X84447327Y-57294370D01*
X84226607Y-57293055D01*
X84110080Y-57242524D01*
X84084353Y-57142881D01*
X84196347Y-57068945D01*
X84394997Y-57042666D01*
X84588498Y-57005670D01*
X84635614Y-56915288D01*
X84536818Y-56802428D01*
X84390193Y-56729989D01*
X84152996Y-56588208D01*
X84065608Y-56422768D01*
X84118163Y-56266383D01*
X84300796Y-56151767D01*
X84576756Y-56111333D01*
X84805641Y-56131710D01*
X84805641Y-56131710D01*
G37*
X84805641Y-56131710D02*
X84880297Y-56195297D01*
X84876502Y-56217166D01*
X84776331Y-56287496D01*
X84623533Y-56296833D01*
X84417852Y-56309073D01*
X84350553Y-56385642D01*
X84432194Y-56488319D01*
X84554770Y-56545762D01*
X84812297Y-56686747D01*
X84931886Y-56868023D01*
X84900771Y-57064071D01*
X84849293Y-57134376D01*
X84680389Y-57237747D01*
X84447327Y-57294370D01*
X84226607Y-57293055D01*
X84110080Y-57242524D01*
X84084353Y-57142881D01*
X84196347Y-57068945D01*
X84394997Y-57042666D01*
X84588498Y-57005670D01*
X84635614Y-56915288D01*
X84536818Y-56802428D01*
X84390193Y-56729989D01*
X84152996Y-56588208D01*
X84065608Y-56422768D01*
X84118163Y-56266383D01*
X84300796Y-56151767D01*
X84576756Y-56111333D01*
X84805641Y-56131710D01*
G36*
X85715465Y-56128992D02*
X85922919Y-56266256D01*
X86055151Y-56509212D01*
X86083334Y-56718711D01*
X86019736Y-57000713D01*
X85856370Y-57200525D01*
X85634378Y-57298271D01*
X85394900Y-57274077D01*
X85207456Y-57141833D01*
X85096187Y-56916533D01*
X85081187Y-56738332D01*
X85321451Y-56738332D01*
X85346529Y-56932668D01*
X85381349Y-56989793D01*
X85505668Y-57028456D01*
X85614183Y-57025071D01*
X85752653Y-56946482D01*
X85812246Y-56741602D01*
X85812490Y-56739121D01*
X85790225Y-56500744D01*
X85691226Y-56348510D01*
X85546479Y-56314225D01*
X85448334Y-56365333D01*
X85358512Y-56520076D01*
X85321451Y-56738332D01*
X85081187Y-56738332D01*
X85072508Y-56635225D01*
X85135156Y-56374368D01*
X85222167Y-56251455D01*
X85469607Y-56117399D01*
X85715465Y-56128992D01*
X85715465Y-56128992D01*
G37*
X85715465Y-56128992D02*
X85922919Y-56266256D01*
X86055151Y-56509212D01*
X86083334Y-56718711D01*
X86019736Y-57000713D01*
X85856370Y-57200525D01*
X85634378Y-57298271D01*
X85394900Y-57274077D01*
X85207456Y-57141833D01*
X85096187Y-56916533D01*
X85081187Y-56738332D01*
X85321451Y-56738332D01*
X85346529Y-56932668D01*
X85381349Y-56989793D01*
X85505668Y-57028456D01*
X85614183Y-57025071D01*
X85752653Y-56946482D01*
X85812246Y-56741602D01*
X85812490Y-56739121D01*
X85790225Y-56500744D01*
X85691226Y-56348510D01*
X85546479Y-56314225D01*
X85448334Y-56365333D01*
X85358512Y-56520076D01*
X85321451Y-56738332D01*
X85081187Y-56738332D01*
X85072508Y-56635225D01*
X85135156Y-56374368D01*
X85222167Y-56251455D01*
X85469607Y-56117399D01*
X85715465Y-56128992D01*
G36*
X86612500Y-56139081D02*
X87057000Y-56153666D01*
X87082035Y-56725166D01*
X87089034Y-57035719D01*
X87071783Y-57211551D01*
X87024050Y-57286312D01*
X86976202Y-57296666D01*
X86896835Y-57257215D01*
X86856462Y-57116434D01*
X86845334Y-56845111D01*
X86834849Y-56533991D01*
X86794592Y-56367793D01*
X86711357Y-56322915D01*
X86580201Y-56371291D01*
X86478408Y-56470886D01*
X86430817Y-56657297D01*
X86422000Y-56876312D01*
X86403711Y-57162455D01*
X86346698Y-57288961D01*
X86247740Y-57261761D01*
X86224445Y-57240222D01*
X86194902Y-57131811D01*
X86174470Y-56906080D01*
X86168000Y-56654136D01*
X86168000Y-56124495D01*
X86612500Y-56139081D01*
X86612500Y-56139081D01*
G37*
X86612500Y-56139081D02*
X87057000Y-56153666D01*
X87082035Y-56725166D01*
X87089034Y-57035719D01*
X87071783Y-57211551D01*
X87024050Y-57286312D01*
X86976202Y-57296666D01*
X86896835Y-57257215D01*
X86856462Y-57116434D01*
X86845334Y-56845111D01*
X86834849Y-56533991D01*
X86794592Y-56367793D01*
X86711357Y-56322915D01*
X86580201Y-56371291D01*
X86478408Y-56470886D01*
X86430817Y-56657297D01*
X86422000Y-56876312D01*
X86403711Y-57162455D01*
X86346698Y-57288961D01*
X86247740Y-57261761D01*
X86224445Y-57240222D01*
X86194902Y-57131811D01*
X86174470Y-56906080D01*
X86168000Y-56654136D01*
X86168000Y-56124495D01*
X86612500Y-56139081D01*
G36*
X87928702Y-56676085D02*
X87897791Y-57018455D01*
X87843711Y-57224296D01*
X87797834Y-57275807D01*
X87733080Y-57242754D01*
X87699525Y-57076565D01*
X87692000Y-56838055D01*
X87684869Y-56566472D01*
X87653949Y-56424067D01*
X87584952Y-56370949D01*
X87522667Y-56365333D01*
X87384763Y-56312393D01*
X87353334Y-56238333D01*
X87416712Y-56144966D01*
X87619839Y-56111681D01*
X87653535Y-56111333D01*
X87953737Y-56111333D01*
X87928702Y-56676085D01*
X87928702Y-56676085D01*
G37*
X87928702Y-56676085D02*
X87897791Y-57018455D01*
X87843711Y-57224296D01*
X87797834Y-57275807D01*
X87733080Y-57242754D01*
X87699525Y-57076565D01*
X87692000Y-56838055D01*
X87684869Y-56566472D01*
X87653949Y-56424067D01*
X87584952Y-56370949D01*
X87522667Y-56365333D01*
X87384763Y-56312393D01*
X87353334Y-56238333D01*
X87416712Y-56144966D01*
X87619839Y-56111681D01*
X87653535Y-56111333D01*
X87953737Y-56111333D01*
X87928702Y-56676085D01*
G36*
X89171535Y-55768102D02*
X89200327Y-55990582D01*
X89214831Y-56328700D01*
X89216000Y-56474342D01*
X89216000Y-57260684D01*
X88886080Y-57273840D01*
X88572174Y-57235792D01*
X88420414Y-57136998D01*
X88317285Y-56919580D01*
X88299414Y-56734530D01*
X88538583Y-56734530D01*
X88560558Y-56927678D01*
X88595111Y-56986222D01*
X88751843Y-57039275D01*
X88929331Y-56955978D01*
X88945067Y-56941066D01*
X89037306Y-56770635D01*
X89037060Y-56580670D01*
X88966073Y-56415973D01*
X88846088Y-56321349D01*
X88698848Y-56341603D01*
X88665667Y-56365333D01*
X88576917Y-56518062D01*
X88538583Y-56734530D01*
X88299414Y-56734530D01*
X88289500Y-56631887D01*
X88339137Y-56356306D01*
X88397872Y-56242881D01*
X88551678Y-56130975D01*
X88778872Y-56127368D01*
X88963473Y-56139798D01*
X89035288Y-56075226D01*
X89046667Y-55927336D01*
X89072569Y-55755437D01*
X89131334Y-55688000D01*
X89171535Y-55768102D01*
X89171535Y-55768102D01*
G37*
X89171535Y-55768102D02*
X89200327Y-55990582D01*
X89214831Y-56328700D01*
X89216000Y-56474342D01*
X89216000Y-57260684D01*
X88886080Y-57273840D01*
X88572174Y-57235792D01*
X88420414Y-57136998D01*
X88317285Y-56919580D01*
X88299414Y-56734530D01*
X88538583Y-56734530D01*
X88560558Y-56927678D01*
X88595111Y-56986222D01*
X88751843Y-57039275D01*
X88929331Y-56955978D01*
X88945067Y-56941066D01*
X89037306Y-56770635D01*
X89037060Y-56580670D01*
X88966073Y-56415973D01*
X88846088Y-56321349D01*
X88698848Y-56341603D01*
X88665667Y-56365333D01*
X88576917Y-56518062D01*
X88538583Y-56734530D01*
X88299414Y-56734530D01*
X88289500Y-56631887D01*
X88339137Y-56356306D01*
X88397872Y-56242881D01*
X88551678Y-56130975D01*
X88778872Y-56127368D01*
X88963473Y-56139798D01*
X89035288Y-56075226D01*
X89046667Y-55927336D01*
X89072569Y-55755437D01*
X89131334Y-55688000D01*
X89171535Y-55768102D01*
G36*
X90093202Y-56159288D02*
X90269533Y-56299505D01*
X90380428Y-56561105D01*
X90375196Y-56820646D01*
X90278928Y-57049723D01*
X90116713Y-57219935D01*
X89913641Y-57302878D01*
X89694803Y-57270149D01*
X89525456Y-57141833D01*
X89418155Y-56918937D01*
X89390870Y-56640199D01*
X89640048Y-56640199D01*
X89640791Y-56849466D01*
X89695778Y-56986222D01*
X89850196Y-57043254D01*
X90019073Y-56997255D01*
X90095942Y-56908741D01*
X90141561Y-56652595D01*
X90087863Y-56444981D01*
X89956655Y-56325438D01*
X89777065Y-56330597D01*
X89688705Y-56441174D01*
X89640048Y-56640199D01*
X89390870Y-56640199D01*
X89389323Y-56624396D01*
X89443856Y-56339077D01*
X89472979Y-56275100D01*
X89627881Y-56143177D01*
X89856534Y-56105244D01*
X90093202Y-56159288D01*
X90093202Y-56159288D01*
G37*
X90093202Y-56159288D02*
X90269533Y-56299505D01*
X90380428Y-56561105D01*
X90375196Y-56820646D01*
X90278928Y-57049723D01*
X90116713Y-57219935D01*
X89913641Y-57302878D01*
X89694803Y-57270149D01*
X89525456Y-57141833D01*
X89418155Y-56918937D01*
X89390870Y-56640199D01*
X89640048Y-56640199D01*
X89640791Y-56849466D01*
X89695778Y-56986222D01*
X89850196Y-57043254D01*
X90019073Y-56997255D01*
X90095942Y-56908741D01*
X90141561Y-56652595D01*
X90087863Y-56444981D01*
X89956655Y-56325438D01*
X89777065Y-56330597D01*
X89688705Y-56441174D01*
X89640048Y-56640199D01*
X89390870Y-56640199D01*
X89389323Y-56624396D01*
X89443856Y-56339077D01*
X89472979Y-56275100D01*
X89627881Y-56143177D01*
X89856534Y-56105244D01*
X90093202Y-56159288D01*
G36*
X87896152Y-55813156D02*
X87903667Y-55857333D01*
X87836901Y-55984461D01*
X87797834Y-56005500D01*
X87712858Y-55966204D01*
X87692000Y-55857333D01*
X87731012Y-55723046D01*
X87797834Y-55709166D01*
X87896152Y-55813156D01*
X87896152Y-55813156D01*
G37*
X87896152Y-55813156D02*
X87903667Y-55857333D01*
X87836901Y-55984461D01*
X87797834Y-56005500D01*
X87712858Y-55966204D01*
X87692000Y-55857333D01*
X87731012Y-55723046D01*
X87797834Y-55709166D01*
X87896152Y-55813156D01*
D13*
X130405600Y-86253400D02*
X133065600Y-86253400D01*
X130405600Y-78573400D02*
X130405600Y-86253400D01*
X133065600Y-78573400D02*
X133065600Y-86253400D01*
X130405600Y-78573400D02*
X133065600Y-78573400D01*
X130405600Y-77303400D02*
X130405600Y-75973400D01*
X130405600Y-75973400D02*
X131735600Y-75973400D01*
D10*
X132465000Y-55975000D02*
X130715000Y-55975000D01*
X132465000Y-57225000D02*
X130715000Y-57225000D01*
X130715000Y-55975000D02*
G75*
G03X130715000Y-57225000I0J-625000D01*
G01*
X132465000Y-57225000D02*
G75*
G03X132465000Y-55975000I0J625000D01*
G01*
X132465000Y-45975000D02*
X130715000Y-45975000D01*
X132465000Y-47225000D02*
X130715000Y-47225000D01*
X130715000Y-45975000D02*
G75*
G03X130715000Y-47225000I0J-625000D01*
G01*
X132465000Y-47225000D02*
G75*
G03X132465000Y-45975000I0J625000D01*
G01*
X132465000Y-53475000D02*
X130715000Y-53475000D01*
X132465000Y-54725000D02*
X130715000Y-54725000D01*
X130715000Y-53475000D02*
G75*
G03X130715000Y-54725000I0J-625000D01*
G01*
X132465000Y-54725000D02*
G75*
G03X132465000Y-53475000I0J625000D01*
G01*
X132465000Y-48475000D02*
X130715000Y-48475000D01*
X132465000Y-49725000D02*
X130715000Y-49725000D01*
X130715000Y-48475000D02*
G75*
G03X130715000Y-49725000I0J-625000D01*
G01*
X132465000Y-49725000D02*
G75*
G03X132465000Y-48475000I0J625000D01*
G01*
X39735000Y-47225000D02*
X41485000Y-47225000D01*
X39735000Y-45975000D02*
X41485000Y-45975000D01*
X41485000Y-47225000D02*
G75*
G03X41485000Y-45975000I0J625000D01*
G01*
X39735000Y-45975000D02*
G75*
G03X39735000Y-47225000I0J-625000D01*
G01*
X39735000Y-57225000D02*
X41485000Y-57225000D01*
X39735000Y-55975000D02*
X41485000Y-55975000D01*
X41485000Y-57225000D02*
G75*
G03X41485000Y-55975000I0J625000D01*
G01*
X39735000Y-55975000D02*
G75*
G03X39735000Y-57225000I0J-625000D01*
G01*
X39735000Y-49725000D02*
X41485000Y-49725000D01*
X39735000Y-48475000D02*
X41485000Y-48475000D01*
X41485000Y-49725000D02*
G75*
G03X41485000Y-48475000I0J625000D01*
G01*
X39735000Y-48475000D02*
G75*
G03X39735000Y-49725000I0J-625000D01*
G01*
X39735000Y-54725000D02*
X41485000Y-54725000D01*
X39735000Y-53475000D02*
X41485000Y-53475000D01*
X41485000Y-54725000D02*
G75*
G03X41485000Y-53475000I0J625000D01*
G01*
X39735000Y-53475000D02*
G75*
G03X39735000Y-54725000I0J-625000D01*
G01*
D15*
X134734857Y-53357142D02*
X134763429Y-53271428D01*
X134763429Y-53128571D01*
X134734857Y-53071428D01*
X134706286Y-53042857D01*
X134649143Y-53014285D01*
X134592000Y-53014285D01*
X134534857Y-53042857D01*
X134506286Y-53071428D01*
X134477714Y-53128571D01*
X134449143Y-53242857D01*
X134420571Y-53299999D01*
X134392000Y-53328571D01*
X134334857Y-53357142D01*
X134277714Y-53357142D01*
X134220571Y-53328571D01*
X134192000Y-53299999D01*
X134163429Y-53242857D01*
X134163429Y-53099999D01*
X134192000Y-53014285D01*
X134363429Y-52814285D02*
X134763429Y-52671428D01*
X134363429Y-52528570D02*
X134763429Y-52671428D01*
X134906286Y-52728570D01*
X134934857Y-52757142D01*
X134963429Y-52814285D01*
X134363429Y-52299999D02*
X134763429Y-52299999D01*
X134420571Y-52299999D02*
X134392000Y-52271427D01*
X134363429Y-52214285D01*
X134363429Y-52128570D01*
X134392000Y-52071427D01*
X134449143Y-52042856D01*
X134763429Y-52042856D01*
X134734857Y-51499999D02*
X134763429Y-51557142D01*
X134763429Y-51671428D01*
X134734857Y-51728570D01*
X134706286Y-51757142D01*
X134649143Y-51785713D01*
X134477714Y-51785713D01*
X134420571Y-51757142D01*
X134392000Y-51728570D01*
X134363429Y-51671428D01*
X134363429Y-51557142D01*
X134392000Y-51499999D01*
X134534857Y-51242856D02*
X134534857Y-50785713D01*
X134763429Y-50499999D02*
X134163429Y-50499999D01*
X134763429Y-50214285D02*
X134163429Y-50214285D01*
X134763429Y-49871428D01*
X134163429Y-49871428D01*
X37950857Y-53757142D02*
X37979429Y-53671428D01*
X37979429Y-53528571D01*
X37950857Y-53471428D01*
X37922286Y-53442857D01*
X37865143Y-53414285D01*
X37808000Y-53414285D01*
X37750857Y-53442857D01*
X37722286Y-53471428D01*
X37693714Y-53528571D01*
X37665143Y-53642857D01*
X37636571Y-53699999D01*
X37608000Y-53728571D01*
X37550857Y-53757142D01*
X37493714Y-53757142D01*
X37436571Y-53728571D01*
X37408000Y-53699999D01*
X37379429Y-53642857D01*
X37379429Y-53499999D01*
X37408000Y-53414285D01*
X37579429Y-53214285D02*
X37979429Y-53071428D01*
X37579429Y-52928570D02*
X37979429Y-53071428D01*
X38122286Y-53128570D01*
X38150857Y-53157142D01*
X38179429Y-53214285D01*
X37579429Y-52699999D02*
X37979429Y-52699999D01*
X37636571Y-52699999D02*
X37608000Y-52671427D01*
X37579429Y-52614285D01*
X37579429Y-52528570D01*
X37608000Y-52471427D01*
X37665143Y-52442856D01*
X37979429Y-52442856D01*
X37950857Y-51899999D02*
X37979429Y-51957142D01*
X37979429Y-52071428D01*
X37950857Y-52128570D01*
X37922286Y-52157142D01*
X37865143Y-52185713D01*
X37693714Y-52185713D01*
X37636571Y-52157142D01*
X37608000Y-52128570D01*
X37579429Y-52071428D01*
X37579429Y-51957142D01*
X37608000Y-51899999D01*
X37750857Y-51642856D02*
X37750857Y-51185713D01*
X37379429Y-50785713D02*
X37379429Y-50671427D01*
X37408000Y-50614285D01*
X37465143Y-50557142D01*
X37579429Y-50528570D01*
X37779429Y-50528570D01*
X37893714Y-50557142D01*
X37950857Y-50614285D01*
X37979429Y-50671427D01*
X37979429Y-50785713D01*
X37950857Y-50842856D01*
X37893714Y-50899999D01*
X37779429Y-50928570D01*
X37579429Y-50928570D01*
X37465143Y-50899999D01*
X37408000Y-50842856D01*
X37379429Y-50785713D01*
X37379429Y-50271428D02*
X37865143Y-50271428D01*
X37922286Y-50242856D01*
X37950857Y-50214285D01*
X37979429Y-50157142D01*
X37979429Y-50042856D01*
X37950857Y-49985714D01*
X37922286Y-49957142D01*
X37865143Y-49928571D01*
X37379429Y-49928571D01*
X37379429Y-49728571D02*
X37379429Y-49385714D01*
X37979429Y-49557143D02*
X37379429Y-49557143D01*
M02*
