M48
;DRILL file {KiCad 4.0.7} date Saturday, 20 '20e' October '20e' 2018 20:32:25
;FORMAT={-:-/ absolute / metric / decimal}
FMAT,2
METRIC,TZ
T1C0.400
T2C0.700
T3C0.800
T4C1.000
T5C1.001
T6C1.016
T7C1.100
T8C1.200
%
G90
G05
M71
T1
X36.1Y-69.85
X38.35Y-81.1
X38.6Y-68.35
X38.85Y-70.85
X40.85Y-75.1
X41.6Y-67.1
X43.6Y-81.35
X44.1Y-93.1
X47.1Y-56.6
X47.1Y-59.1
X47.1Y-61.6
X47.1Y-64.1
X47.1Y-66.6
X47.1Y-69.1
X47.1Y-71.6
X47.85Y-48.6
X49.6Y-56.6
X49.6Y-59.1
X49.6Y-61.6
X49.6Y-64.1
X49.6Y-66.6
X49.6Y-69.1
X49.6Y-71.6
X50.1Y-86.35
X51.35Y-53.35
X52.1Y-64.1
X52.1Y-66.6
X52.6Y-79.1
X54.6Y-56.6
X54.6Y-61.6
X54.6Y-64.1
X54.6Y-66.6
X54.6Y-69.1
X54.6Y-71.6
X55.35Y-84.6
X55.6Y-80.85
X56.6Y-79.1
X57.1Y-56.6
X57.1Y-59.1
X57.1Y-61.6
X57.1Y-64.1
X57.1Y-66.6
X57.1Y-69.1
X57.1Y-71.6
X58.85Y-88.35
X59.1Y-84.35
X59.6Y-56.6
X59.6Y-59.1
X59.6Y-61.6
X59.6Y-64.1
X59.6Y-66.6
X59.6Y-69.1
X59.6Y-71.6
X61.1Y-78.1
X61.35Y-47.35
X61.85Y-88.35
X62.1Y-56.6
X62.1Y-59.1
X62.1Y-61.6
X62.1Y-64.1
X62.1Y-66.6
X62.1Y-69.1
X62.1Y-71.6
X62.2Y-81.8
X64.6Y-64.1
X64.6Y-66.6
X64.6Y-69.1
X64.6Y-71.6
X67.1Y-64.1
X67.1Y-66.6
X67.1Y-69.1
X67.1Y-71.6
X69.6Y-56.6
X69.6Y-59.1
X69.6Y-61.6
X69.6Y-64.1
X69.6Y-66.6
X69.6Y-69.1
X69.6Y-71.6
X70.85Y-77.85
X72.1Y-56.6
X72.1Y-59.1
X72.1Y-61.6
X72.1Y-64.1
X72.1Y-66.6
X72.1Y-69.1
X72.1Y-71.6
X72.35Y-51.35
X72.6Y-81.85
X72.6Y-91.85
X73.35Y-80.35
X74.6Y-71.6
X76.35Y-81.85
X77.1Y-66.6
X78.35Y-78.6
X78.6Y-47.1
X81.6Y-47.1
X81.85Y-87.35
X82.1Y-80.35
X82.1Y-84.1
X82.35Y-45.6
X82.85Y-70.6
X85.35Y-42.6
X86.85Y-52.1
X87.1Y-83.1
X88.35Y-79.6
X89.6Y-85.35
X89.85Y-54.6
X90.537Y-48.551
X91.1Y-83.1
X91.85Y-84.35
X92.594Y-50.354
X93.1Y-85.35
X96.328Y-71.309
X97.35Y-84.35
X97.35Y-85.35
X97.6Y-82.85
X98.741Y-56.78
X99.85Y-84.35
X100.1Y-82.85
X100.1Y-85.35
X100.138Y-87.895
X100.417Y-75.729
X100.519Y-58.685
X101.6Y-52.6
X101.85Y-77.35
X102.145Y-74.154
X102.35Y-81.85
X102.35Y-84.35
X102.424Y-90.181
X103.85Y-73.1
X103.872Y-71.588
X104.35Y-55.35
X105.35Y-80.35
X105.85Y-48.1
X109.1Y-48.1
X109.85Y-91.85
X111.35Y-72.35
X111.35Y-88.1
X111.6Y-70.35
X111.6Y-78.1
X112.1Y-82.85
X112.6Y-48.1
X112.85Y-51.85
X112.85Y-55.35
X112.85Y-80.35
X113.1Y-60.1
X113.35Y-65.1
X113.6Y-84.1
X113.85Y-75.1
X114.25Y-46.
X114.85Y-71.1
X115.85Y-48.1
X115.85Y-54.6
X116.1Y-79.1
X116.1Y-81.35
X116.85Y-76.35
X117.1Y-60.1
X117.1Y-65.1
X117.35Y-56.1
X117.85Y-66.6
X117.85Y-72.1
X118.1Y-73.1
X118.6Y-65.1
X119.35Y-67.6
X123.35Y-93.1
X125.85Y-70.6
X127.6Y-72.6
X127.6Y-80.6
X132.35Y-51.85
X132.6Y-68.35
X132.6Y-70.6
X134.1Y-63.6
X134.35Y-53.6
X134.35Y-59.85
T3
X40.6Y-59.44
X40.6Y-69.6
X42.1Y-83.6
X43.1Y-74.1
X43.1Y-77.6
X47.1Y-83.6
X52.1Y-82.6
X52.1Y-85.1
X62.2Y-81.8
X62.2Y-84.3
X74.6Y-83.8
X76.6Y-54.1
X76.6Y-64.26
X77.1Y-74.1
X77.1Y-76.6
X79.6Y-83.8
X90.6Y-79.6
X92.137Y-74.103
X94.677Y-74.103
X97.1Y-53.6
X97.1Y-63.76
X97.217Y-74.103
X100.76Y-79.6
X107.86Y-51.1
X107.86Y-53.64
X107.86Y-56.18
X107.86Y-58.72
X107.86Y-61.26
X107.86Y-63.8
X107.86Y-66.34
X107.86Y-68.88
X107.86Y-71.42
X107.86Y-73.96
X107.86Y-76.5
X107.86Y-79.04
X107.86Y-81.58
X107.86Y-84.12
X107.86Y-86.66
X123.1Y-51.1
X123.1Y-53.64
X123.1Y-56.18
X123.1Y-58.72
X123.1Y-61.26
X123.1Y-63.8
X123.1Y-66.34
X123.1Y-68.88
X123.1Y-71.42
X123.1Y-73.96
X123.1Y-76.5
X123.1Y-79.04
X123.1Y-81.58
X123.1Y-84.12
X123.1Y-86.66
T4
X131.736Y-77.303
X131.736Y-79.843
X131.736Y-82.383
X131.736Y-84.923
T5
X50.06Y-75.6
X52.6Y-75.6
X55.14Y-75.6
X63.56Y-75.6
X66.1Y-75.6
X68.64Y-75.6
T6
X33.6Y-64.6
X33.6Y-67.14
X33.6Y-69.68
X33.6Y-72.22
X33.6Y-74.76
X33.6Y-77.3
X72.6Y-45.1
X75.1Y-49.35
X75.14Y-45.1
X77.64Y-49.35
X77.68Y-45.1
X94.6Y-45.1
X97.1Y-49.35
X97.14Y-45.1
X99.64Y-49.35
X99.68Y-45.1
X104.35Y-61.35
X104.35Y-63.89
X104.35Y-66.43
X104.35Y-68.97
X126.8Y-51.2
X126.8Y-53.74
X126.8Y-56.28
X128.2Y-63.8
X138.6Y-64.6
X138.6Y-67.14
X138.6Y-69.68
X138.6Y-72.22
X138.6Y-74.76
X138.6Y-77.3
T7
X49.44Y-51.1
X59.6Y-51.1
X82.44Y-67.6
X92.6Y-67.6
T8
X35.604Y-51.6
X40.61Y-46.6
X40.61Y-49.1
X40.61Y-54.1
X40.61Y-56.6
X131.59Y-46.6
X131.59Y-49.1
X131.59Y-54.1
X131.59Y-56.6
X136.596Y-51.6
T2
X55.35Y-40.1G85X55.35Y-40.5
G05
X58.9Y-41.8G85X59.3Y-41.8
G05
X61.9Y-41.8G85X62.3Y-41.8
G05
X64.9Y-41.8G85X65.3Y-41.8
G05
X68.85Y-40.1G85X68.85Y-40.5
G05
X104.85Y-40.1G85X104.85Y-40.5
G05
X108.4Y-41.8G85X108.8Y-41.8
G05
X111.4Y-41.8G85X111.8Y-41.8
G05
X114.4Y-41.8G85X114.8Y-41.8
G05
X118.35Y-40.1G85X118.35Y-40.5
G05
T5
X44.901Y-41.301G85X44.901Y-43.3
G05
X50.599Y-39.301G85X48.601Y-39.301
G05
X50.599Y-45.3G85X48.601Y-45.3
G05
T0
M30
