G04 #@! TF.FileFunction,Copper,L2,Bot,Signal*
%FSLAX46Y46*%
G04 Gerber Fmt 4.6, Leading zero omitted, Abs format (unit mm)*
G04 Created by KiCad (PCBNEW 4.0.7) date Saturday, 20 '20e' October '20e' 2018 20:32:08*
%MOMM*%
%LPD*%
G01*
G04 APERTURE LIST*
%ADD10C,0.500000*%
%ADD11C,0.150000*%
%ADD12O,1.524000X2.000000*%
%ADD13R,1.600000X1.600000*%
%ADD14C,1.600000*%
%ADD15R,1.000000X2.000000*%
%ADD16R,2.000000X2.000000*%
%ADD17O,2.200000X1.500000*%
%ADD18R,2.200000X2.200000*%
%ADD19O,2.200000X2.200000*%
%ADD20R,3.500120X3.500120*%
%ADD21R,2.235200X2.235200*%
%ADD22R,2.032000X1.727200*%
%ADD23O,2.032000X1.727200*%
%ADD24R,1.727200X2.032000*%
%ADD25O,1.727200X2.032000*%
%ADD26R,2.500000X3.500000*%
%ADD27O,3.500000X1.750000*%
%ADD28O,1.600000X1.600000*%
%ADD29R,2.032000X2.032000*%
%ADD30O,2.032000X2.032000*%
%ADD31O,1.699260X3.500120*%
%ADD32R,1.700000X1.700000*%
%ADD33O,1.700000X1.700000*%
%ADD34C,0.600000*%
%ADD35C,0.400000*%
%ADD36C,0.800000*%
%ADD37C,0.254000*%
G04 APERTURE END LIST*
D10*
D11*
X30600000Y-34600000D02*
X141600000Y-34600000D01*
X141600000Y-34600000D02*
X141600000Y-94600000D01*
X141600000Y-94600000D02*
X30600000Y-94600000D01*
X30600000Y-94600000D02*
X30600000Y-34600000D01*
D12*
X94677000Y-74103000D03*
X97217000Y-74103000D03*
X92137000Y-74103000D03*
D13*
X43100000Y-74100000D03*
D14*
X43100000Y-77600000D03*
D13*
X77100000Y-74100000D03*
D14*
X77100000Y-76600000D03*
D15*
X118350000Y-40300000D03*
X104850000Y-40300000D03*
D16*
X108600000Y-41800000D03*
X111600000Y-41800000D03*
X114600000Y-41800000D03*
D15*
X68850000Y-40300000D03*
X55350000Y-40300000D03*
D16*
X59100000Y-41800000D03*
X62100000Y-41800000D03*
X65100000Y-41800000D03*
D17*
X123100000Y-51100000D03*
X107860000Y-84120000D03*
X123100000Y-53640000D03*
X107860000Y-81580000D03*
X123100000Y-56180000D03*
X107860000Y-79040000D03*
X123100000Y-58720000D03*
X107860000Y-76500000D03*
X123100000Y-61260000D03*
X107860000Y-73960000D03*
X123100000Y-63800000D03*
X107860000Y-71420000D03*
X123100000Y-66340000D03*
X107860000Y-68880000D03*
X123100000Y-68880000D03*
X107860000Y-66340000D03*
X123100000Y-71420000D03*
X107860000Y-63800000D03*
X123100000Y-73960000D03*
X107860000Y-61260000D03*
X123100000Y-76500000D03*
X107860000Y-58720000D03*
X123100000Y-79040000D03*
X107860000Y-56180000D03*
X123100000Y-81580000D03*
X107860000Y-53640000D03*
X123100000Y-84120000D03*
X107860000Y-51100000D03*
X123100000Y-86660000D03*
X107860000Y-86660000D03*
D18*
X59600000Y-51100000D03*
D19*
X49440000Y-51100000D03*
D18*
X92600000Y-67600000D03*
D19*
X82440000Y-67600000D03*
D20*
X49600000Y-45300140D03*
X49600000Y-39300660D03*
X44901000Y-42300400D03*
D21*
X128200000Y-63800000D03*
D22*
X126800000Y-51200000D03*
D23*
X126800000Y-53740000D03*
X126800000Y-56280000D03*
D22*
X104350000Y-61350000D03*
D23*
X104350000Y-63890000D03*
X104350000Y-66430000D03*
X104350000Y-68970000D03*
D24*
X72600000Y-45100000D03*
D25*
X75140000Y-45100000D03*
X77680000Y-45100000D03*
D24*
X94600000Y-45100000D03*
D25*
X97140000Y-45100000D03*
X99680000Y-45100000D03*
D26*
X136596000Y-51600000D03*
D27*
X131590000Y-56600000D03*
X131590000Y-46600000D03*
X131590000Y-54100000D03*
X131590000Y-49100000D03*
D26*
X35604000Y-51600000D03*
D27*
X40610000Y-46600000D03*
X40610000Y-56600000D03*
X40610000Y-49100000D03*
X40610000Y-54100000D03*
D14*
X97100000Y-53600000D03*
D28*
X97100000Y-63760000D03*
D14*
X76600000Y-54100000D03*
D28*
X76600000Y-64260000D03*
D14*
X40600000Y-69600000D03*
D28*
X40600000Y-59440000D03*
D14*
X90600000Y-79600000D03*
D28*
X100760000Y-79600000D03*
D29*
X75100000Y-49350000D03*
D30*
X77640000Y-49350000D03*
D29*
X97100000Y-49350000D03*
D30*
X99640000Y-49350000D03*
D14*
X79600000Y-83800000D03*
X74600000Y-83800000D03*
D13*
X52100000Y-82600000D03*
D14*
X52100000Y-85100000D03*
X47100000Y-83600000D03*
X42100000Y-83600000D03*
D31*
X52600000Y-75600000D03*
X50060000Y-75600000D03*
X55140000Y-75600000D03*
X66100000Y-75600000D03*
X63560000Y-75600000D03*
X68640000Y-75600000D03*
D22*
X33600000Y-64600000D03*
D23*
X33600000Y-67140000D03*
X33600000Y-69680000D03*
X33600000Y-72220000D03*
X33600000Y-74760000D03*
X33600000Y-77300000D03*
D22*
X138600000Y-64600000D03*
D23*
X138600000Y-67140000D03*
X138600000Y-69680000D03*
X138600000Y-72220000D03*
X138600000Y-74760000D03*
X138600000Y-77300000D03*
D13*
X62200000Y-81800000D03*
D14*
X62200000Y-84300000D03*
D32*
X131735600Y-77303400D03*
D33*
X131735600Y-79843400D03*
X131735600Y-82383400D03*
X131735600Y-84923400D03*
D34*
X111600000Y-78100000D03*
X118100000Y-73100000D03*
X59100000Y-84350000D03*
X55350000Y-84600000D03*
X82350000Y-45600000D03*
X117350000Y-56100000D03*
X112850000Y-55350000D03*
X104350000Y-55350000D03*
X101600000Y-52600000D03*
X57100000Y-59100000D03*
X54600000Y-61600000D03*
X57100000Y-61600000D03*
X57100000Y-64100000D03*
X54600000Y-64100000D03*
X54600000Y-66600000D03*
X54600000Y-69100000D03*
X54600000Y-71600000D03*
X57100000Y-71600000D03*
X57100000Y-69100000D03*
X57100000Y-66600000D03*
X59600000Y-66600000D03*
X59600000Y-69100000D03*
X59600000Y-71600000D03*
X62100000Y-71600000D03*
X62100000Y-69100000D03*
X62100000Y-66600000D03*
X62100000Y-64100000D03*
X59600000Y-64100000D03*
X59600000Y-61600000D03*
X59600000Y-59100000D03*
X59600000Y-56600000D03*
X62100000Y-56600000D03*
X62100000Y-59100000D03*
X62100000Y-61600000D03*
X64600000Y-64100000D03*
X64600000Y-66600000D03*
X64600000Y-69100000D03*
X64600000Y-71600000D03*
X72100000Y-71600000D03*
X72100000Y-69100000D03*
X72100000Y-66600000D03*
X72100000Y-64100000D03*
X72100000Y-61600000D03*
X72100000Y-59100000D03*
X72100000Y-56600000D03*
X69600000Y-56600000D03*
X69600000Y-59100000D03*
X69600000Y-61600000D03*
X67100000Y-64100000D03*
X69600000Y-64100000D03*
X69600000Y-66600000D03*
X67100000Y-66600000D03*
X67100000Y-69100000D03*
X69600000Y-69100000D03*
X69600000Y-71600000D03*
X67100000Y-71600000D03*
X57100000Y-56600000D03*
X54600000Y-56600000D03*
X52100000Y-64100000D03*
X52100000Y-66600000D03*
X49600000Y-69100000D03*
X49600000Y-71600000D03*
X47100000Y-71600000D03*
X47100000Y-69100000D03*
X47100000Y-66600000D03*
X49600000Y-66600000D03*
X49600000Y-64100000D03*
X47100000Y-64100000D03*
X47100000Y-61600000D03*
X49600000Y-61600000D03*
X47100000Y-59100000D03*
X49600000Y-59100000D03*
X47100000Y-56600000D03*
X49600000Y-56600000D03*
X82850000Y-70600000D03*
X132600000Y-68350000D03*
X132600000Y-70600000D03*
X96328000Y-71309000D03*
X103871800Y-71588400D03*
X111350000Y-72350000D03*
X111600000Y-70350000D03*
X113350000Y-65100000D03*
X117100000Y-65100000D03*
X118600000Y-65100000D03*
X119350000Y-67600000D03*
X125850000Y-70600000D03*
X127600000Y-72600000D03*
X114250000Y-46000000D03*
X117850000Y-66600000D03*
X114850000Y-71100000D03*
X111350000Y-88100000D03*
X109850000Y-91850000D03*
X55600000Y-80850000D03*
X41600000Y-67100000D03*
X116850000Y-76350000D03*
X116100000Y-79100000D03*
X116100000Y-81350000D03*
X113600000Y-84100000D03*
X100100000Y-85350000D03*
X97350000Y-85350000D03*
X93100000Y-85350000D03*
X89600000Y-85350000D03*
X61850000Y-88350000D03*
X58850000Y-88350000D03*
X50100000Y-86350000D03*
X40850000Y-75100000D03*
X38850000Y-70850000D03*
X38600000Y-68350000D03*
X117850000Y-72100000D03*
X113850000Y-75100000D03*
X112100000Y-82850000D03*
X102350000Y-84350000D03*
X99850000Y-84350000D03*
X97350000Y-84350000D03*
X91850000Y-84350000D03*
X81850000Y-87350000D03*
X43600000Y-81350000D03*
X36100000Y-69850000D03*
X72600000Y-91850000D03*
X82100000Y-84100000D03*
X87100000Y-83100000D03*
X91100000Y-83100000D03*
X97600000Y-82850000D03*
X100100000Y-82850000D03*
X102350000Y-81850000D03*
X105350000Y-80350000D03*
X112850000Y-80350000D03*
X38350000Y-81100000D03*
X113100000Y-60100000D03*
X117100000Y-60100000D03*
X101850000Y-77350000D03*
X103850000Y-73100000D03*
X127600000Y-80600000D03*
X123350000Y-93100000D03*
X44100000Y-93100000D03*
X115850000Y-54600000D03*
X112850000Y-51850000D03*
X109100000Y-48100000D03*
X105850000Y-48100000D03*
X88350000Y-79600000D03*
X77100000Y-66600000D03*
X62200000Y-81800000D03*
X51350000Y-53350000D03*
X78350000Y-78600000D03*
X76350000Y-81850000D03*
X72600000Y-81850000D03*
X134100000Y-63600000D03*
X134350000Y-59850000D03*
X134350000Y-53600000D03*
X132350000Y-51850000D03*
X115850000Y-48100000D03*
X112600000Y-48100000D03*
X102144600Y-74153800D03*
X100417400Y-75728600D03*
X100138000Y-87895200D03*
X102424000Y-90181200D03*
X90536800Y-48550600D03*
X92594200Y-50354000D03*
X98741000Y-56780200D03*
X100519000Y-58685200D03*
X78600000Y-47100000D03*
X81600000Y-47100000D03*
X86850000Y-52100000D03*
X89850000Y-54600000D03*
X74600000Y-71600000D03*
X82100000Y-80350000D03*
X73350000Y-80350000D03*
X70850000Y-77850000D03*
X61100000Y-78100000D03*
X56600000Y-79100000D03*
X52600000Y-79100000D03*
X85350000Y-42600000D03*
X72350000Y-51350000D03*
X61350000Y-47350000D03*
X47850000Y-48600000D03*
D10*
X126800000Y-51200000D02*
X123200000Y-51200000D01*
X123200000Y-51200000D02*
X123100000Y-51100000D01*
X126800000Y-53740000D02*
X123200000Y-53740000D01*
X123200000Y-53740000D02*
X123100000Y-53640000D01*
D35*
X138600000Y-69680000D02*
X128520000Y-69680000D01*
X110660000Y-79040000D02*
X107860000Y-79040000D01*
X111600000Y-78100000D02*
X110660000Y-79040000D01*
X118600000Y-72600000D02*
X118100000Y-73100000D01*
X125600000Y-72600000D02*
X118600000Y-72600000D01*
X128520000Y-69680000D02*
X125600000Y-72600000D01*
X52100000Y-85100000D02*
X54850000Y-85100000D01*
X60350000Y-85600000D02*
X62200000Y-85600000D01*
X59100000Y-84350000D02*
X60350000Y-85600000D01*
X54850000Y-85100000D02*
X55350000Y-84600000D01*
X107860000Y-53640000D02*
X111140000Y-53640000D01*
X119970000Y-58720000D02*
X123100000Y-58720000D01*
X117350000Y-56100000D02*
X119970000Y-58720000D01*
X111140000Y-53640000D02*
X112850000Y-55350000D01*
X99640000Y-49350000D02*
X99640000Y-50640000D01*
X106060000Y-53640000D02*
X107860000Y-53640000D01*
X104350000Y-55350000D02*
X106060000Y-53640000D01*
X99640000Y-50640000D02*
X101600000Y-52600000D01*
D10*
X126800000Y-56280000D02*
X131270000Y-56280000D01*
X131270000Y-56280000D02*
X131590000Y-56600000D01*
X131590000Y-56600000D02*
X131590000Y-54100000D01*
X131590000Y-54100000D02*
X134090000Y-51600000D01*
X134090000Y-51600000D02*
X136596000Y-51600000D01*
X35604000Y-51600000D02*
X38110000Y-51600000D01*
X38110000Y-51600000D02*
X40610000Y-49100000D01*
X40610000Y-49100000D02*
X40610000Y-46600000D01*
D36*
X74600000Y-83800000D02*
X74600000Y-79100000D01*
X74600000Y-79100000D02*
X77100000Y-76600000D01*
X42100000Y-83600000D02*
X42100000Y-78900000D01*
X42100000Y-78900000D02*
X43100000Y-77900000D01*
X66100000Y-75600000D02*
X66100000Y-72600000D01*
X54600000Y-61600000D02*
X57100000Y-59100000D01*
X57100000Y-64100000D02*
X57100000Y-61600000D01*
X54600000Y-66600000D02*
X54600000Y-64100000D01*
X54600000Y-71600000D02*
X54600000Y-69100000D01*
X57100000Y-69100000D02*
X57100000Y-71600000D01*
X59600000Y-66600000D02*
X57100000Y-66600000D01*
X59600000Y-71600000D02*
X59600000Y-69100000D01*
X62100000Y-69100000D02*
X62100000Y-71600000D01*
X62100000Y-64100000D02*
X62100000Y-66600000D01*
X59600000Y-61600000D02*
X59600000Y-64100000D01*
X59600000Y-56600000D02*
X59600000Y-59100000D01*
X62100000Y-59100000D02*
X62100000Y-56600000D01*
X64600000Y-64100000D02*
X62100000Y-61600000D01*
X64600000Y-69100000D02*
X64600000Y-66600000D01*
X72100000Y-71600000D02*
X64600000Y-71600000D01*
X72100000Y-66600000D02*
X72100000Y-69100000D01*
X72100000Y-61600000D02*
X72100000Y-64100000D01*
X72100000Y-56600000D02*
X72100000Y-59100000D01*
X69600000Y-59100000D02*
X69600000Y-56600000D01*
X67100000Y-64100000D02*
X69600000Y-61600000D01*
X69600000Y-66600000D02*
X69600000Y-64100000D01*
X67100000Y-69100000D02*
X67100000Y-66600000D01*
X69600000Y-71600000D02*
X69600000Y-69100000D01*
X66100000Y-72600000D02*
X67100000Y-71600000D01*
X57100000Y-56600000D02*
X54600000Y-56600000D01*
X52100000Y-64100000D02*
X52100000Y-66600000D01*
X49600000Y-69100000D02*
X49600000Y-71600000D01*
X47100000Y-71600000D02*
X47100000Y-69100000D01*
X47100000Y-66600000D02*
X49600000Y-66600000D01*
X49600000Y-64100000D02*
X47100000Y-64100000D01*
X47100000Y-61600000D02*
X49600000Y-61600000D01*
X47100000Y-59100000D02*
X49600000Y-59100000D01*
X47100000Y-56600000D02*
X49600000Y-56600000D01*
X53400000Y-69400000D02*
X54000000Y-69400000D01*
X52600000Y-70200000D02*
X53400000Y-69400000D01*
X52600000Y-75600000D02*
X52600000Y-70200000D01*
D10*
X82440000Y-67600000D02*
X82440000Y-70190000D01*
X82440000Y-70190000D02*
X82850000Y-70600000D01*
D35*
X138600000Y-72220000D02*
X134220000Y-72220000D01*
X129760000Y-61260000D02*
X123100000Y-61260000D01*
X130850000Y-62350000D02*
X129760000Y-61260000D01*
X130850000Y-66600000D02*
X130850000Y-62350000D01*
X132600000Y-68350000D02*
X130850000Y-66600000D01*
X134220000Y-72220000D02*
X132600000Y-70600000D01*
D10*
X90600000Y-79600000D02*
X93675800Y-79600000D01*
X97217000Y-76058800D02*
X97217000Y-74103000D01*
X93675800Y-79600000D02*
X97217000Y-76058800D01*
X107860000Y-73960000D02*
X106243400Y-73960000D01*
X96404200Y-73290200D02*
X97217000Y-74103000D01*
X96404200Y-71385200D02*
X96404200Y-73290200D01*
X96328000Y-71309000D02*
X96404200Y-71385200D01*
X106243400Y-73960000D02*
X103871800Y-71588400D01*
D35*
X138600000Y-74760000D02*
X129760000Y-74760000D01*
X110100000Y-73600000D02*
X108220000Y-73600000D01*
X111350000Y-72350000D02*
X110100000Y-73600000D01*
X113350000Y-68600000D02*
X111600000Y-70350000D01*
X113350000Y-65100000D02*
X113350000Y-68600000D01*
X118600000Y-65100000D02*
X117100000Y-65100000D01*
X124600000Y-67600000D02*
X119350000Y-67600000D01*
X125850000Y-68850000D02*
X124600000Y-67600000D01*
X125850000Y-70600000D02*
X125850000Y-68850000D01*
X129760000Y-74760000D02*
X127600000Y-72600000D01*
X108220000Y-73600000D02*
X107860000Y-73960000D01*
D10*
X128200000Y-63800000D02*
X123100000Y-63800000D01*
X109030000Y-70250000D02*
X107860000Y-71420000D01*
X109750000Y-70250000D02*
X109030000Y-70250000D01*
X111750000Y-68250000D02*
X109750000Y-70250000D01*
X111750000Y-65000000D02*
X111750000Y-68250000D01*
X114250000Y-62500000D02*
X111750000Y-65000000D01*
X114250000Y-60250000D02*
X114250000Y-62500000D01*
X114250000Y-46000000D02*
X114250000Y-60250000D01*
X33600000Y-64600000D02*
X39100000Y-64600000D01*
X118110000Y-66340000D02*
X123100000Y-66340000D01*
X117850000Y-66600000D02*
X118110000Y-66340000D01*
X114850000Y-84600000D02*
X114850000Y-71100000D01*
X111350000Y-88100000D02*
X114850000Y-84600000D01*
X95850000Y-91850000D02*
X109850000Y-91850000D01*
X90350000Y-86350000D02*
X95850000Y-91850000D01*
X81100000Y-86350000D02*
X90350000Y-86350000D01*
X78100000Y-89350000D02*
X81100000Y-86350000D01*
X61100000Y-89350000D02*
X78100000Y-89350000D01*
X57350000Y-85600000D02*
X61100000Y-89350000D01*
X57350000Y-82600000D02*
X57350000Y-85600000D01*
X55600000Y-80850000D02*
X57350000Y-82600000D01*
X39100000Y-64600000D02*
X41600000Y-67100000D01*
X104350000Y-68970000D02*
X107770000Y-68970000D01*
X107770000Y-68970000D02*
X107860000Y-68880000D01*
X33600000Y-67140000D02*
X37390000Y-67140000D01*
X119070000Y-68880000D02*
X123100000Y-68880000D01*
X116850000Y-71100000D02*
X119070000Y-68880000D01*
X116850000Y-76350000D02*
X116850000Y-71100000D01*
X116100000Y-81350000D02*
X116100000Y-79100000D01*
X109600000Y-88100000D02*
X113600000Y-84100000D01*
X102850000Y-88100000D02*
X109600000Y-88100000D01*
X100100000Y-85350000D02*
X102850000Y-88100000D01*
X93100000Y-85350000D02*
X97350000Y-85350000D01*
X80600000Y-85350000D02*
X89600000Y-85350000D01*
X77600000Y-88350000D02*
X80600000Y-85350000D01*
X61850000Y-88350000D02*
X77600000Y-88350000D01*
X52100000Y-88350000D02*
X58850000Y-88350000D01*
X50100000Y-86350000D02*
X52100000Y-88350000D01*
X37390000Y-67140000D02*
X38600000Y-68350000D01*
X40850000Y-72850000D02*
X40850000Y-75100000D01*
X38850000Y-70850000D02*
X40850000Y-72850000D01*
X104350000Y-66430000D02*
X107770000Y-66430000D01*
X107770000Y-66430000D02*
X107860000Y-66340000D01*
X33600000Y-69680000D02*
X35930000Y-69680000D01*
X118530000Y-71420000D02*
X123100000Y-71420000D01*
X117850000Y-72100000D02*
X118530000Y-71420000D01*
X113850000Y-81100000D02*
X113850000Y-75100000D01*
X112100000Y-82850000D02*
X113850000Y-81100000D01*
X99850000Y-84350000D02*
X102350000Y-84350000D01*
X91850000Y-84350000D02*
X97350000Y-84350000D01*
X78600000Y-90600000D02*
X81850000Y-87350000D01*
X51350000Y-90600000D02*
X78600000Y-90600000D01*
X45100000Y-84350000D02*
X51350000Y-90600000D01*
X45100000Y-82850000D02*
X45100000Y-84350000D01*
X43600000Y-81350000D02*
X45100000Y-82850000D01*
X35930000Y-69680000D02*
X36100000Y-69850000D01*
X104350000Y-63890000D02*
X107770000Y-63890000D01*
X107770000Y-63890000D02*
X107860000Y-63800000D01*
X33600000Y-72220000D02*
X34470000Y-72220000D01*
X34470000Y-72220000D02*
X36350000Y-74100000D01*
X36350000Y-74100000D02*
X36350000Y-77350000D01*
X36350000Y-77350000D02*
X39850000Y-80850000D01*
X39850000Y-80850000D02*
X39850000Y-84600000D01*
X39850000Y-84600000D02*
X47100000Y-91850000D01*
X47100000Y-91850000D02*
X72600000Y-91850000D01*
X82100000Y-84100000D02*
X83100000Y-83100000D01*
X83100000Y-83100000D02*
X87100000Y-83100000D01*
X91100000Y-83100000D02*
X91350000Y-82850000D01*
X91350000Y-82850000D02*
X97600000Y-82850000D01*
X100100000Y-82850000D02*
X101100000Y-81850000D01*
X101100000Y-81850000D02*
X102350000Y-81850000D01*
X105350000Y-80350000D02*
X112850000Y-80350000D01*
X104350000Y-61350000D02*
X107770000Y-61350000D01*
X107770000Y-61350000D02*
X107860000Y-61260000D01*
X124750000Y-76500000D02*
X123100000Y-76500000D01*
X125850000Y-77600000D02*
X124750000Y-76500000D01*
X125850000Y-87850000D02*
X125850000Y-77600000D01*
X120600000Y-93100000D02*
X125850000Y-87850000D01*
X46100000Y-93100000D02*
X120600000Y-93100000D01*
X38350000Y-85350000D02*
X46100000Y-93100000D01*
X38350000Y-81100000D02*
X38350000Y-85350000D01*
X102109800Y-59590200D02*
X101239600Y-59590200D01*
X102600000Y-70850000D02*
X102100000Y-70350000D01*
X102600000Y-70850000D02*
X102600000Y-71850000D01*
X100671400Y-69226200D02*
X102100000Y-70350000D01*
X100671400Y-60412400D02*
X100671400Y-69226200D01*
X101239600Y-59590200D02*
X100671400Y-60412400D01*
X103850000Y-73100000D02*
X102600000Y-71850000D01*
X102600000Y-71850000D02*
X102600000Y-71600000D01*
D35*
X138600000Y-64600000D02*
X136850000Y-64600000D01*
X111720000Y-58720000D02*
X107860000Y-58720000D01*
X113100000Y-60100000D02*
X111720000Y-58720000D01*
X132350000Y-60100000D02*
X117100000Y-60100000D01*
X136850000Y-64600000D02*
X132350000Y-60100000D01*
D10*
X102980000Y-58720000D02*
X107860000Y-58720000D01*
X102100000Y-59600000D02*
X102109800Y-59590200D01*
X102109800Y-59590200D02*
X102980000Y-58720000D01*
X100760000Y-79600000D02*
X100760000Y-78440000D01*
X100760000Y-78440000D02*
X101850000Y-77350000D01*
X33600000Y-77300000D02*
X33600000Y-82600000D01*
X127600000Y-88850000D02*
X127600000Y-80600000D01*
X123350000Y-93100000D02*
X127600000Y-88850000D01*
X33600000Y-82600000D02*
X44100000Y-93100000D01*
X97100000Y-63760000D02*
X97100000Y-60100000D01*
X120330000Y-81580000D02*
X123100000Y-81580000D01*
X115850000Y-77100000D02*
X120330000Y-81580000D01*
X115850000Y-54600000D02*
X115850000Y-77100000D01*
X109100000Y-48100000D02*
X112850000Y-51850000D01*
X105600000Y-48100000D02*
X105850000Y-48100000D01*
X104350000Y-49350000D02*
X105600000Y-48100000D01*
X104350000Y-52850000D02*
X104350000Y-49350000D01*
X97100000Y-60100000D02*
X104350000Y-52850000D01*
X76600000Y-64260000D02*
X76600000Y-66100000D01*
X117330000Y-84120000D02*
X123100000Y-84120000D01*
X112350000Y-89100000D02*
X117330000Y-84120000D01*
X95100000Y-89100000D02*
X112350000Y-89100000D01*
X88350000Y-82350000D02*
X95100000Y-89100000D01*
X88350000Y-79600000D02*
X88350000Y-82350000D01*
X76600000Y-66100000D02*
X77100000Y-66600000D01*
X57400000Y-41800000D02*
X59100000Y-41800000D01*
D36*
X62200000Y-81800000D02*
X62250000Y-81850000D01*
X62250000Y-81850000D02*
X72600000Y-81850000D01*
X78350000Y-79850000D02*
X78350000Y-78600000D01*
X76350000Y-81850000D02*
X78350000Y-79850000D01*
D35*
X138600000Y-67140000D02*
X137640000Y-67140000D01*
X137640000Y-67140000D02*
X134100000Y-63600000D01*
X134350000Y-59850000D02*
X134350000Y-53600000D01*
X132350000Y-51850000D02*
X132100000Y-51600000D01*
X132100000Y-51600000D02*
X130350000Y-51600000D01*
X130350000Y-51600000D02*
X126850000Y-48100000D01*
X126850000Y-48100000D02*
X115850000Y-48100000D01*
X112600000Y-48100000D02*
X111860000Y-47360000D01*
X111860000Y-47360000D02*
X107860000Y-47360000D01*
D36*
X107860000Y-51100000D02*
X107860000Y-47360000D01*
X61350000Y-37850000D02*
X57400000Y-41800000D01*
X76850000Y-37850000D02*
X61350000Y-37850000D01*
X82850000Y-43850000D02*
X76850000Y-37850000D01*
X89100000Y-43850000D02*
X82850000Y-43850000D01*
X90600000Y-42350000D02*
X89100000Y-43850000D01*
X102850000Y-42350000D02*
X90600000Y-42350000D01*
X107860000Y-47360000D02*
X102850000Y-42350000D01*
X62200000Y-81800000D02*
X62200000Y-76960000D01*
X62200000Y-76960000D02*
X63560000Y-75600000D01*
X43100000Y-74100000D02*
X43100000Y-64600000D01*
X57400000Y-47300000D02*
X57400000Y-41800000D01*
X51350000Y-53350000D02*
X57400000Y-47300000D01*
X45350000Y-53350000D02*
X51350000Y-53350000D01*
X44350000Y-54350000D02*
X45350000Y-53350000D01*
X44350000Y-63350000D02*
X44350000Y-54350000D01*
X43100000Y-64600000D02*
X44350000Y-63350000D01*
X50060000Y-75600000D02*
X48400000Y-75600000D01*
X46900000Y-74100000D02*
X43100000Y-74100000D01*
X48400000Y-75600000D02*
X46900000Y-74100000D01*
D10*
X100747600Y-72756800D02*
X99528400Y-71537600D01*
X100747600Y-72756800D02*
X102144600Y-74153800D01*
X100417400Y-75728600D02*
X99020400Y-77125600D01*
X99020400Y-77125600D02*
X99020400Y-87082400D01*
X99020400Y-87082400D02*
X99833200Y-87895200D01*
X99833200Y-87895200D02*
X100138000Y-87895200D01*
X102424000Y-90181200D02*
X102551000Y-90308200D01*
X102551000Y-90308200D02*
X117181400Y-90308200D01*
X117181400Y-90308200D02*
X119137200Y-88352400D01*
X120829600Y-86660000D02*
X119137200Y-88352400D01*
X123100000Y-86660000D02*
X120829600Y-86660000D01*
X99528400Y-59675800D02*
X100519000Y-58685200D01*
X99528400Y-71537600D02*
X99528400Y-59675800D01*
X94600000Y-45100000D02*
X91980800Y-45100000D01*
X91980800Y-45100000D02*
X90536800Y-46544000D01*
X90536800Y-46544000D02*
X90536800Y-48550600D01*
X92594200Y-50354000D02*
X93991200Y-51751000D01*
X93991200Y-51751000D02*
X93991200Y-53376600D01*
X93991200Y-53376600D02*
X97394800Y-56780200D01*
X97394800Y-56780200D02*
X98741000Y-56780200D01*
X100519000Y-58685200D02*
X100747600Y-58913800D01*
X123040000Y-86660000D02*
X123100000Y-86660000D01*
D36*
X72600000Y-45100000D02*
X72600000Y-46100000D01*
X72600000Y-46100000D02*
X73600000Y-47100000D01*
X73600000Y-47100000D02*
X78600000Y-47100000D01*
X81600000Y-47100000D02*
X86600000Y-52100000D01*
X86600000Y-52100000D02*
X86850000Y-52100000D01*
X89850000Y-54600000D02*
X93100000Y-57850000D01*
X93100000Y-57850000D02*
X93100000Y-62850000D01*
X93100000Y-62850000D02*
X98100000Y-67850000D01*
X98100000Y-67850000D02*
X98100000Y-71600000D01*
X98100000Y-71600000D02*
X103600000Y-77100000D01*
X103600000Y-77100000D02*
X103600000Y-85600000D01*
X103600000Y-85600000D02*
X104660000Y-86660000D01*
X104660000Y-86660000D02*
X107860000Y-86660000D01*
D10*
X47100000Y-83600000D02*
X47600000Y-83600000D01*
X47600000Y-83600000D02*
X48600000Y-82600000D01*
X48600000Y-82600000D02*
X52100000Y-82600000D01*
D36*
X75140000Y-45100000D02*
X75140000Y-42560000D01*
X74600000Y-70850000D02*
X74600000Y-71600000D01*
X80100000Y-65350000D02*
X74600000Y-70850000D01*
X80100000Y-43600000D02*
X80100000Y-65350000D01*
X78600000Y-42100000D02*
X80100000Y-43600000D01*
X75600000Y-42100000D02*
X78600000Y-42100000D01*
X75140000Y-42560000D02*
X75600000Y-42100000D01*
X55140000Y-75600000D02*
X55140000Y-79560000D01*
X55140000Y-79560000D02*
X52100000Y-82600000D01*
D10*
X62100000Y-41800000D02*
X60825000Y-43075000D01*
X59600000Y-44300000D02*
X60825000Y-43075000D01*
D36*
X59600000Y-44300000D02*
X59600000Y-51100000D01*
X49600000Y-45300140D02*
X49600000Y-50940000D01*
X49600000Y-50940000D02*
X49440000Y-51100000D01*
D10*
X92365600Y-71791600D02*
X94677000Y-74103000D01*
X90486000Y-71791600D02*
X92365600Y-71791600D01*
X88933000Y-73344600D02*
X90486000Y-71791600D01*
X88933000Y-75842000D02*
X88933000Y-73344600D01*
X94677000Y-69677000D02*
X92600000Y-67600000D01*
X94677000Y-74103000D02*
X94677000Y-69677000D01*
X40350000Y-76100000D02*
X45350000Y-76100000D01*
X36850000Y-72600000D02*
X40350000Y-76100000D01*
X36850000Y-70850000D02*
X36850000Y-72600000D01*
X40600000Y-69600000D02*
X38100000Y-69600000D01*
X83052000Y-75791200D02*
X88933000Y-75842000D01*
X82100000Y-80350000D02*
X83052000Y-75791200D01*
X70850000Y-77850000D02*
X73350000Y-80350000D01*
X57600000Y-78100000D02*
X61100000Y-78100000D01*
X56600000Y-79100000D02*
X57600000Y-78100000D01*
X48350000Y-79100000D02*
X52600000Y-79100000D01*
X38100000Y-69600000D02*
X36850000Y-70850000D01*
X45350000Y-76100000D02*
X48350000Y-79100000D01*
X108600000Y-41800000D02*
X106900000Y-41800000D01*
X129600000Y-44350000D02*
X131590000Y-46340000D01*
X129600000Y-44350000D02*
X108100000Y-44350000D01*
X108100000Y-44350000D02*
X106900000Y-43150000D01*
X106900000Y-43150000D02*
X106900000Y-41800000D01*
X131590000Y-46600000D02*
X131590000Y-46340000D01*
X131590000Y-49100000D02*
X131590000Y-46600000D01*
X111600000Y-41800000D02*
X111050000Y-41800000D01*
X111050000Y-41800000D02*
X107100000Y-37850000D01*
X107100000Y-37850000D02*
X93100000Y-37850000D01*
X93100000Y-37850000D02*
X88350000Y-42600000D01*
X88350000Y-42600000D02*
X85350000Y-42600000D01*
X72350000Y-51350000D02*
X68350000Y-47350000D01*
X68350000Y-47350000D02*
X61350000Y-47350000D01*
X47850000Y-48600000D02*
X42350000Y-54100000D01*
X42350000Y-54100000D02*
X40610000Y-54100000D01*
D36*
X40610000Y-56600000D02*
X40610000Y-54100000D01*
X40600000Y-59440000D02*
X40600000Y-56610000D01*
X40600000Y-56610000D02*
X40610000Y-56600000D01*
X76600000Y-54100000D02*
X74600000Y-52100000D01*
X74600000Y-52100000D02*
X74600000Y-49850000D01*
X74600000Y-49850000D02*
X75100000Y-49350000D01*
D10*
X97100000Y-53600000D02*
X97100000Y-49350000D01*
X79600000Y-83800000D02*
X79600000Y-76100000D01*
X79600000Y-76100000D02*
X81600000Y-74100000D01*
D36*
X97140000Y-45100000D02*
X97140000Y-46810000D01*
X81600000Y-74100000D02*
X77100000Y-74100000D01*
X85600000Y-70100000D02*
X81600000Y-74100000D01*
X85600000Y-55350000D02*
X85600000Y-70100000D01*
X93850000Y-47100000D02*
X85600000Y-55350000D01*
X96850000Y-47100000D02*
X93850000Y-47100000D01*
X97140000Y-46810000D02*
X96850000Y-47100000D01*
X77100000Y-74100000D02*
X74850000Y-74100000D01*
X73350000Y-75600000D02*
X68640000Y-75600000D01*
X74850000Y-74100000D02*
X73350000Y-75600000D01*
D37*
G36*
X140890000Y-93890000D02*
X123882065Y-93890000D01*
X124142192Y-93630327D01*
X124192566Y-93509014D01*
X127658960Y-90042619D01*
X134364613Y-90042619D01*
X134704155Y-90864372D01*
X135332321Y-91493636D01*
X136153481Y-91834611D01*
X137042619Y-91835387D01*
X137864372Y-91495845D01*
X138493636Y-90867679D01*
X138834611Y-90046519D01*
X138835387Y-89157381D01*
X138495845Y-88335628D01*
X137867679Y-87706364D01*
X137046519Y-87365389D01*
X136157381Y-87364613D01*
X135335628Y-87704155D01*
X134706364Y-88332321D01*
X134365389Y-89153481D01*
X134364613Y-90042619D01*
X127658960Y-90042619D01*
X128225787Y-89475792D01*
X128225790Y-89475790D01*
X128417633Y-89188675D01*
X128448169Y-89035162D01*
X128485001Y-88850000D01*
X128485000Y-88849995D01*
X128485000Y-80906822D01*
X128534838Y-80786799D01*
X128535162Y-80414833D01*
X128393117Y-80071057D01*
X128130327Y-79807808D01*
X127786799Y-79665162D01*
X127414833Y-79664838D01*
X127071057Y-79806883D01*
X126807808Y-80069673D01*
X126735000Y-80245013D01*
X126735000Y-77600005D01*
X126735001Y-77600000D01*
X126672310Y-77284838D01*
X126667633Y-77261325D01*
X126475790Y-76974210D01*
X126475787Y-76974208D01*
X125375790Y-75874210D01*
X125294169Y-75819673D01*
X125088675Y-75682367D01*
X125032484Y-75671190D01*
X124750000Y-75614999D01*
X124749995Y-75615000D01*
X124526372Y-75615000D01*
X124463334Y-75520657D01*
X124028335Y-75230000D01*
X124463334Y-74939343D01*
X124763564Y-74490017D01*
X124868991Y-73960000D01*
X124764562Y-73435000D01*
X125600000Y-73435000D01*
X125919541Y-73371439D01*
X126190434Y-73190434D01*
X126664898Y-72715970D01*
X126664838Y-72785167D01*
X126806883Y-73128943D01*
X127069673Y-73392192D01*
X127311910Y-73492778D01*
X129169566Y-75350434D01*
X129440459Y-75531439D01*
X129760000Y-75595000D01*
X137205465Y-75595000D01*
X137355585Y-75819670D01*
X137841766Y-76144526D01*
X138415255Y-76258600D01*
X138784745Y-76258600D01*
X139358234Y-76144526D01*
X139844415Y-75819670D01*
X140169271Y-75333489D01*
X140283345Y-74760000D01*
X140169271Y-74186511D01*
X139844415Y-73700330D01*
X139529634Y-73490000D01*
X139844415Y-73279670D01*
X140169271Y-72793489D01*
X140283345Y-72220000D01*
X140169271Y-71646511D01*
X139844415Y-71160330D01*
X139529634Y-70950000D01*
X139844415Y-70739670D01*
X140169271Y-70253489D01*
X140283345Y-69680000D01*
X140169271Y-69106511D01*
X139844415Y-68620330D01*
X139529634Y-68410000D01*
X139844415Y-68199670D01*
X140169271Y-67713489D01*
X140283345Y-67140000D01*
X140169271Y-66566511D01*
X139844415Y-66080330D01*
X139830087Y-66070757D01*
X139851317Y-66066762D01*
X140067441Y-65927690D01*
X140212431Y-65715490D01*
X140263440Y-65463600D01*
X140263440Y-63736400D01*
X140219162Y-63501083D01*
X140080090Y-63284959D01*
X139867890Y-63139969D01*
X139616000Y-63088960D01*
X137584000Y-63088960D01*
X137348683Y-63133238D01*
X137132559Y-63272310D01*
X136987569Y-63484510D01*
X136975412Y-63544544D01*
X134215752Y-60784884D01*
X134535167Y-60785162D01*
X134878943Y-60643117D01*
X135142192Y-60380327D01*
X135284838Y-60036799D01*
X135285162Y-59664833D01*
X135185000Y-59422422D01*
X135185000Y-54027234D01*
X135284838Y-53786799D01*
X135285162Y-53414833D01*
X135143117Y-53071057D01*
X134880327Y-52807808D01*
X134536799Y-52665162D01*
X134164833Y-52664838D01*
X133821057Y-52806883D01*
X133557808Y-53069673D01*
X133415162Y-53413201D01*
X133414838Y-53785167D01*
X133515000Y-54027578D01*
X133515000Y-59422766D01*
X133415162Y-59663201D01*
X133414883Y-59984015D01*
X132940434Y-59509566D01*
X132913305Y-59491439D01*
X132669541Y-59328561D01*
X132350000Y-59265000D01*
X117527234Y-59265000D01*
X117286799Y-59165162D01*
X116914833Y-59164838D01*
X116735000Y-59239143D01*
X116735000Y-54906822D01*
X116784838Y-54786799D01*
X116785162Y-54414833D01*
X116643117Y-54071057D01*
X116380327Y-53807808D01*
X116036799Y-53665162D01*
X115664833Y-53664838D01*
X115321057Y-53806883D01*
X115135000Y-53992616D01*
X115135000Y-48707196D01*
X115319673Y-48892192D01*
X115663201Y-49034838D01*
X116035167Y-49035162D01*
X116277578Y-48935000D01*
X126504132Y-48935000D01*
X127258092Y-49688960D01*
X125784000Y-49688960D01*
X125548683Y-49733238D01*
X125332559Y-49872310D01*
X125187569Y-50084510D01*
X125140894Y-50315000D01*
X124593190Y-50315000D01*
X124463334Y-50120657D01*
X124014008Y-49820427D01*
X123483991Y-49715000D01*
X122716009Y-49715000D01*
X122185992Y-49820427D01*
X121736666Y-50120657D01*
X121436436Y-50569983D01*
X121331009Y-51100000D01*
X121436436Y-51630017D01*
X121736666Y-52079343D01*
X122171665Y-52370000D01*
X121736666Y-52660657D01*
X121436436Y-53109983D01*
X121331009Y-53640000D01*
X121436436Y-54170017D01*
X121736666Y-54619343D01*
X122171665Y-54910000D01*
X121736666Y-55200657D01*
X121436436Y-55649983D01*
X121331009Y-56180000D01*
X121436436Y-56710017D01*
X121736666Y-57159343D01*
X122185992Y-57459573D01*
X122716009Y-57565000D01*
X123483991Y-57565000D01*
X124014008Y-57459573D01*
X124463334Y-57159343D01*
X124763564Y-56710017D01*
X124868991Y-56180000D01*
X124763564Y-55649983D01*
X124463334Y-55200657D01*
X124028335Y-54910000D01*
X124454868Y-54625000D01*
X125438874Y-54625000D01*
X125555585Y-54799670D01*
X126041766Y-55124526D01*
X126615255Y-55238600D01*
X126984745Y-55238600D01*
X127558234Y-55124526D01*
X128044415Y-54799670D01*
X128369271Y-54313489D01*
X128483345Y-53740000D01*
X128369271Y-53166511D01*
X128044415Y-52680330D01*
X128030087Y-52670757D01*
X128051317Y-52666762D01*
X128267441Y-52527690D01*
X128412431Y-52315490D01*
X128463440Y-52063600D01*
X128463440Y-50894308D01*
X129759566Y-52190434D01*
X130030459Y-52371439D01*
X130350000Y-52435000D01*
X131612842Y-52435000D01*
X131819673Y-52642192D01*
X132163201Y-52784838D01*
X132535167Y-52785162D01*
X132878943Y-52643117D01*
X133142192Y-52380327D01*
X133284838Y-52036799D01*
X133285162Y-51664833D01*
X133143117Y-51321057D01*
X132880327Y-51057808D01*
X132569422Y-50928708D01*
X132419541Y-50828561D01*
X132100000Y-50765000D01*
X130695868Y-50765000D01*
X130509232Y-50578364D01*
X130668275Y-50610000D01*
X132511725Y-50610000D01*
X133089577Y-50495058D01*
X133579456Y-50167731D01*
X133906783Y-49677852D01*
X134021725Y-49100000D01*
X133906783Y-48522148D01*
X133579456Y-48032269D01*
X133306671Y-47850000D01*
X133579456Y-47667731D01*
X133906783Y-47177852D01*
X134021725Y-46600000D01*
X133906783Y-46022148D01*
X133579456Y-45532269D01*
X133089577Y-45204942D01*
X132511725Y-45090000D01*
X131591579Y-45090000D01*
X130225790Y-43724210D01*
X130150959Y-43674210D01*
X129938675Y-43532367D01*
X129857474Y-43516215D01*
X129600000Y-43464999D01*
X129599995Y-43465000D01*
X108466579Y-43465000D01*
X108449019Y-43447440D01*
X109600000Y-43447440D01*
X109835317Y-43403162D01*
X110051441Y-43264090D01*
X110099134Y-43194289D01*
X110135910Y-43251441D01*
X110348110Y-43396431D01*
X110600000Y-43447440D01*
X112600000Y-43447440D01*
X112835317Y-43403162D01*
X113051441Y-43264090D01*
X113099134Y-43194289D01*
X113135910Y-43251441D01*
X113348110Y-43396431D01*
X113600000Y-43447440D01*
X115600000Y-43447440D01*
X115835317Y-43403162D01*
X116051441Y-43264090D01*
X116196431Y-43051890D01*
X116247440Y-42800000D01*
X116247440Y-40800000D01*
X116203162Y-40564683D01*
X116064090Y-40348559D01*
X115851890Y-40203569D01*
X115600000Y-40152560D01*
X113600000Y-40152560D01*
X113364683Y-40196838D01*
X113148559Y-40335910D01*
X113100866Y-40405711D01*
X113064090Y-40348559D01*
X112851890Y-40203569D01*
X112600000Y-40152560D01*
X110654139Y-40152560D01*
X109801580Y-39300000D01*
X117202560Y-39300000D01*
X117202560Y-41300000D01*
X117246838Y-41535317D01*
X117385910Y-41751441D01*
X117598110Y-41896431D01*
X117850000Y-41947440D01*
X118850000Y-41947440D01*
X119085317Y-41903162D01*
X119301441Y-41764090D01*
X119446431Y-41551890D01*
X119497440Y-41300000D01*
X119497440Y-40042619D01*
X134364613Y-40042619D01*
X134704155Y-40864372D01*
X135332321Y-41493636D01*
X136153481Y-41834611D01*
X137042619Y-41835387D01*
X137864372Y-41495845D01*
X138493636Y-40867679D01*
X138834611Y-40046519D01*
X138835387Y-39157381D01*
X138495845Y-38335628D01*
X137867679Y-37706364D01*
X137046519Y-37365389D01*
X136157381Y-37364613D01*
X135335628Y-37704155D01*
X134706364Y-38332321D01*
X134365389Y-39153481D01*
X134364613Y-40042619D01*
X119497440Y-40042619D01*
X119497440Y-39300000D01*
X119453162Y-39064683D01*
X119314090Y-38848559D01*
X119101890Y-38703569D01*
X118850000Y-38652560D01*
X117850000Y-38652560D01*
X117614683Y-38696838D01*
X117398559Y-38835910D01*
X117253569Y-39048110D01*
X117202560Y-39300000D01*
X109801580Y-39300000D01*
X107725790Y-37224210D01*
X107567050Y-37118144D01*
X107438675Y-37032367D01*
X107382484Y-37021190D01*
X107100000Y-36964999D01*
X107099995Y-36965000D01*
X93100000Y-36965000D01*
X92761325Y-37032367D01*
X92474210Y-37224210D01*
X92474208Y-37224213D01*
X87983420Y-41715000D01*
X86833977Y-41715000D01*
X87364372Y-41495845D01*
X87993636Y-40867679D01*
X88334611Y-40046519D01*
X88335387Y-39157381D01*
X87995845Y-38335628D01*
X87367679Y-37706364D01*
X86546519Y-37365389D01*
X85657381Y-37364613D01*
X84835628Y-37704155D01*
X84206364Y-38332321D01*
X83865389Y-39153481D01*
X83864613Y-40042619D01*
X84204155Y-40864372D01*
X84832321Y-41493636D01*
X85244789Y-41664908D01*
X85164833Y-41664838D01*
X84821057Y-41806883D01*
X84557808Y-42069673D01*
X84415162Y-42413201D01*
X84414838Y-42785167D01*
X84427165Y-42815000D01*
X83278711Y-42815000D01*
X77581856Y-37118144D01*
X77246077Y-36893785D01*
X76850000Y-36814999D01*
X76849995Y-36815000D01*
X61350005Y-36815000D01*
X61350000Y-36814999D01*
X60953923Y-36893785D01*
X60618144Y-37118144D01*
X60618142Y-37118147D01*
X56668144Y-41068144D01*
X56490576Y-41333895D01*
X56497440Y-41300000D01*
X56497440Y-39300000D01*
X56453162Y-39064683D01*
X56314090Y-38848559D01*
X56101890Y-38703569D01*
X55850000Y-38652560D01*
X54850000Y-38652560D01*
X54614683Y-38696838D01*
X54398559Y-38835910D01*
X54253569Y-39048110D01*
X54202560Y-39300000D01*
X54202560Y-41300000D01*
X54246838Y-41535317D01*
X54385910Y-41751441D01*
X54598110Y-41896431D01*
X54850000Y-41947440D01*
X55850000Y-41947440D01*
X56085317Y-41903162D01*
X56301441Y-41764090D01*
X56401178Y-41618120D01*
X56364999Y-41800000D01*
X56365000Y-41800005D01*
X56365000Y-46871289D01*
X50921288Y-52315000D01*
X50708726Y-52315000D01*
X51076922Y-51763956D01*
X51208991Y-51100000D01*
X51076922Y-50436044D01*
X50700821Y-49873170D01*
X50635000Y-49829190D01*
X50635000Y-47697640D01*
X51350060Y-47697640D01*
X51585377Y-47653362D01*
X51801501Y-47514290D01*
X51946491Y-47302090D01*
X51997500Y-47050200D01*
X51997500Y-43550080D01*
X51953222Y-43314763D01*
X51814150Y-43098639D01*
X51601950Y-42953649D01*
X51350060Y-42902640D01*
X47849940Y-42902640D01*
X47614623Y-42946918D01*
X47398499Y-43085990D01*
X47253509Y-43298190D01*
X47202500Y-43550080D01*
X47202500Y-47050200D01*
X47246778Y-47285517D01*
X47385850Y-47501641D01*
X47598050Y-47646631D01*
X47688059Y-47664858D01*
X47664833Y-47664838D01*
X47321057Y-47806883D01*
X47057808Y-48069673D01*
X47007434Y-48190987D01*
X42339709Y-52858711D01*
X42109577Y-52704942D01*
X41531725Y-52590000D01*
X39688275Y-52590000D01*
X39110423Y-52704942D01*
X38620544Y-53032269D01*
X38293217Y-53522148D01*
X38178275Y-54100000D01*
X38293217Y-54677852D01*
X38620544Y-55167731D01*
X38893329Y-55350000D01*
X38620544Y-55532269D01*
X38293217Y-56022148D01*
X38178275Y-56600000D01*
X38293217Y-57177852D01*
X38620544Y-57667731D01*
X39110423Y-57995058D01*
X39565000Y-58085479D01*
X39565000Y-58427573D01*
X39274233Y-58862736D01*
X39165000Y-59411887D01*
X39165000Y-59468113D01*
X39274233Y-60017264D01*
X39585302Y-60482811D01*
X40050849Y-60793880D01*
X40600000Y-60903113D01*
X41149151Y-60793880D01*
X41614698Y-60482811D01*
X41925767Y-60017264D01*
X42035000Y-59468113D01*
X42035000Y-59411887D01*
X41925767Y-58862736D01*
X41635000Y-58427573D01*
X41635000Y-58089457D01*
X42109577Y-57995058D01*
X42599456Y-57667731D01*
X42926783Y-57177852D01*
X43041725Y-56600000D01*
X42926783Y-56022148D01*
X42599456Y-55532269D01*
X42326671Y-55350000D01*
X42599456Y-55167731D01*
X42829390Y-54823611D01*
X42975790Y-54725790D01*
X43315000Y-54386580D01*
X43315000Y-62921289D01*
X42368144Y-63868144D01*
X42143785Y-64203923D01*
X42064999Y-64600000D01*
X42065000Y-64600005D01*
X42065000Y-66280682D01*
X42009013Y-66257434D01*
X39725790Y-63974210D01*
X39438675Y-63782367D01*
X39351366Y-63765000D01*
X39100000Y-63714999D01*
X39099995Y-63715000D01*
X35259413Y-63715000D01*
X35219162Y-63501083D01*
X35080090Y-63284959D01*
X34867890Y-63139969D01*
X34616000Y-63088960D01*
X32584000Y-63088960D01*
X32348683Y-63133238D01*
X32132559Y-63272310D01*
X31987569Y-63484510D01*
X31936560Y-63736400D01*
X31936560Y-65463600D01*
X31980838Y-65698917D01*
X32119910Y-65915041D01*
X32332110Y-66060031D01*
X32373439Y-66068400D01*
X32355585Y-66080330D01*
X32030729Y-66566511D01*
X31916655Y-67140000D01*
X32030729Y-67713489D01*
X32355585Y-68199670D01*
X32670366Y-68410000D01*
X32355585Y-68620330D01*
X32030729Y-69106511D01*
X31916655Y-69680000D01*
X32030729Y-70253489D01*
X32355585Y-70739670D01*
X32670366Y-70950000D01*
X32355585Y-71160330D01*
X32030729Y-71646511D01*
X31916655Y-72220000D01*
X32030729Y-72793489D01*
X32355585Y-73279670D01*
X32670366Y-73490000D01*
X32355585Y-73700330D01*
X32030729Y-74186511D01*
X31916655Y-74760000D01*
X32030729Y-75333489D01*
X32355585Y-75819670D01*
X32670366Y-76030000D01*
X32355585Y-76240330D01*
X32030729Y-76726511D01*
X31916655Y-77300000D01*
X32030729Y-77873489D01*
X32355585Y-78359670D01*
X32715000Y-78599824D01*
X32715000Y-82599995D01*
X32714999Y-82600000D01*
X32771190Y-82882484D01*
X32782367Y-82938675D01*
X32933700Y-83165162D01*
X32974210Y-83225790D01*
X43257255Y-93508834D01*
X43306883Y-93628943D01*
X43567485Y-93890000D01*
X31310000Y-93890000D01*
X31310000Y-90042619D01*
X33364613Y-90042619D01*
X33704155Y-90864372D01*
X34332321Y-91493636D01*
X35153481Y-91834611D01*
X36042619Y-91835387D01*
X36864372Y-91495845D01*
X37493636Y-90867679D01*
X37834611Y-90046519D01*
X37835387Y-89157381D01*
X37495845Y-88335628D01*
X36867679Y-87706364D01*
X36046519Y-87365389D01*
X35157381Y-87364613D01*
X34335628Y-87704155D01*
X33706364Y-88332321D01*
X33365389Y-89153481D01*
X33364613Y-90042619D01*
X31310000Y-90042619D01*
X31310000Y-40042619D01*
X33364613Y-40042619D01*
X33704155Y-40864372D01*
X34332321Y-41493636D01*
X35153481Y-41834611D01*
X36042619Y-41835387D01*
X36864372Y-41495845D01*
X37493636Y-40867679D01*
X37834611Y-40046519D01*
X37835387Y-39157381D01*
X37495845Y-38335628D01*
X36867679Y-37706364D01*
X36046519Y-37365389D01*
X35157381Y-37364613D01*
X34335628Y-37704155D01*
X33706364Y-38332321D01*
X33365389Y-39153481D01*
X33364613Y-40042619D01*
X31310000Y-40042619D01*
X31310000Y-35310000D01*
X140890000Y-35310000D01*
X140890000Y-93890000D01*
X140890000Y-93890000D01*
G37*
X140890000Y-93890000D02*
X123882065Y-93890000D01*
X124142192Y-93630327D01*
X124192566Y-93509014D01*
X127658960Y-90042619D01*
X134364613Y-90042619D01*
X134704155Y-90864372D01*
X135332321Y-91493636D01*
X136153481Y-91834611D01*
X137042619Y-91835387D01*
X137864372Y-91495845D01*
X138493636Y-90867679D01*
X138834611Y-90046519D01*
X138835387Y-89157381D01*
X138495845Y-88335628D01*
X137867679Y-87706364D01*
X137046519Y-87365389D01*
X136157381Y-87364613D01*
X135335628Y-87704155D01*
X134706364Y-88332321D01*
X134365389Y-89153481D01*
X134364613Y-90042619D01*
X127658960Y-90042619D01*
X128225787Y-89475792D01*
X128225790Y-89475790D01*
X128417633Y-89188675D01*
X128448169Y-89035162D01*
X128485001Y-88850000D01*
X128485000Y-88849995D01*
X128485000Y-80906822D01*
X128534838Y-80786799D01*
X128535162Y-80414833D01*
X128393117Y-80071057D01*
X128130327Y-79807808D01*
X127786799Y-79665162D01*
X127414833Y-79664838D01*
X127071057Y-79806883D01*
X126807808Y-80069673D01*
X126735000Y-80245013D01*
X126735000Y-77600005D01*
X126735001Y-77600000D01*
X126672310Y-77284838D01*
X126667633Y-77261325D01*
X126475790Y-76974210D01*
X126475787Y-76974208D01*
X125375790Y-75874210D01*
X125294169Y-75819673D01*
X125088675Y-75682367D01*
X125032484Y-75671190D01*
X124750000Y-75614999D01*
X124749995Y-75615000D01*
X124526372Y-75615000D01*
X124463334Y-75520657D01*
X124028335Y-75230000D01*
X124463334Y-74939343D01*
X124763564Y-74490017D01*
X124868991Y-73960000D01*
X124764562Y-73435000D01*
X125600000Y-73435000D01*
X125919541Y-73371439D01*
X126190434Y-73190434D01*
X126664898Y-72715970D01*
X126664838Y-72785167D01*
X126806883Y-73128943D01*
X127069673Y-73392192D01*
X127311910Y-73492778D01*
X129169566Y-75350434D01*
X129440459Y-75531439D01*
X129760000Y-75595000D01*
X137205465Y-75595000D01*
X137355585Y-75819670D01*
X137841766Y-76144526D01*
X138415255Y-76258600D01*
X138784745Y-76258600D01*
X139358234Y-76144526D01*
X139844415Y-75819670D01*
X140169271Y-75333489D01*
X140283345Y-74760000D01*
X140169271Y-74186511D01*
X139844415Y-73700330D01*
X139529634Y-73490000D01*
X139844415Y-73279670D01*
X140169271Y-72793489D01*
X140283345Y-72220000D01*
X140169271Y-71646511D01*
X139844415Y-71160330D01*
X139529634Y-70950000D01*
X139844415Y-70739670D01*
X140169271Y-70253489D01*
X140283345Y-69680000D01*
X140169271Y-69106511D01*
X139844415Y-68620330D01*
X139529634Y-68410000D01*
X139844415Y-68199670D01*
X140169271Y-67713489D01*
X140283345Y-67140000D01*
X140169271Y-66566511D01*
X139844415Y-66080330D01*
X139830087Y-66070757D01*
X139851317Y-66066762D01*
X140067441Y-65927690D01*
X140212431Y-65715490D01*
X140263440Y-65463600D01*
X140263440Y-63736400D01*
X140219162Y-63501083D01*
X140080090Y-63284959D01*
X139867890Y-63139969D01*
X139616000Y-63088960D01*
X137584000Y-63088960D01*
X137348683Y-63133238D01*
X137132559Y-63272310D01*
X136987569Y-63484510D01*
X136975412Y-63544544D01*
X134215752Y-60784884D01*
X134535167Y-60785162D01*
X134878943Y-60643117D01*
X135142192Y-60380327D01*
X135284838Y-60036799D01*
X135285162Y-59664833D01*
X135185000Y-59422422D01*
X135185000Y-54027234D01*
X135284838Y-53786799D01*
X135285162Y-53414833D01*
X135143117Y-53071057D01*
X134880327Y-52807808D01*
X134536799Y-52665162D01*
X134164833Y-52664838D01*
X133821057Y-52806883D01*
X133557808Y-53069673D01*
X133415162Y-53413201D01*
X133414838Y-53785167D01*
X133515000Y-54027578D01*
X133515000Y-59422766D01*
X133415162Y-59663201D01*
X133414883Y-59984015D01*
X132940434Y-59509566D01*
X132913305Y-59491439D01*
X132669541Y-59328561D01*
X132350000Y-59265000D01*
X117527234Y-59265000D01*
X117286799Y-59165162D01*
X116914833Y-59164838D01*
X116735000Y-59239143D01*
X116735000Y-54906822D01*
X116784838Y-54786799D01*
X116785162Y-54414833D01*
X116643117Y-54071057D01*
X116380327Y-53807808D01*
X116036799Y-53665162D01*
X115664833Y-53664838D01*
X115321057Y-53806883D01*
X115135000Y-53992616D01*
X115135000Y-48707196D01*
X115319673Y-48892192D01*
X115663201Y-49034838D01*
X116035167Y-49035162D01*
X116277578Y-48935000D01*
X126504132Y-48935000D01*
X127258092Y-49688960D01*
X125784000Y-49688960D01*
X125548683Y-49733238D01*
X125332559Y-49872310D01*
X125187569Y-50084510D01*
X125140894Y-50315000D01*
X124593190Y-50315000D01*
X124463334Y-50120657D01*
X124014008Y-49820427D01*
X123483991Y-49715000D01*
X122716009Y-49715000D01*
X122185992Y-49820427D01*
X121736666Y-50120657D01*
X121436436Y-50569983D01*
X121331009Y-51100000D01*
X121436436Y-51630017D01*
X121736666Y-52079343D01*
X122171665Y-52370000D01*
X121736666Y-52660657D01*
X121436436Y-53109983D01*
X121331009Y-53640000D01*
X121436436Y-54170017D01*
X121736666Y-54619343D01*
X122171665Y-54910000D01*
X121736666Y-55200657D01*
X121436436Y-55649983D01*
X121331009Y-56180000D01*
X121436436Y-56710017D01*
X121736666Y-57159343D01*
X122185992Y-57459573D01*
X122716009Y-57565000D01*
X123483991Y-57565000D01*
X124014008Y-57459573D01*
X124463334Y-57159343D01*
X124763564Y-56710017D01*
X124868991Y-56180000D01*
X124763564Y-55649983D01*
X124463334Y-55200657D01*
X124028335Y-54910000D01*
X124454868Y-54625000D01*
X125438874Y-54625000D01*
X125555585Y-54799670D01*
X126041766Y-55124526D01*
X126615255Y-55238600D01*
X126984745Y-55238600D01*
X127558234Y-55124526D01*
X128044415Y-54799670D01*
X128369271Y-54313489D01*
X128483345Y-53740000D01*
X128369271Y-53166511D01*
X128044415Y-52680330D01*
X128030087Y-52670757D01*
X128051317Y-52666762D01*
X128267441Y-52527690D01*
X128412431Y-52315490D01*
X128463440Y-52063600D01*
X128463440Y-50894308D01*
X129759566Y-52190434D01*
X130030459Y-52371439D01*
X130350000Y-52435000D01*
X131612842Y-52435000D01*
X131819673Y-52642192D01*
X132163201Y-52784838D01*
X132535167Y-52785162D01*
X132878943Y-52643117D01*
X133142192Y-52380327D01*
X133284838Y-52036799D01*
X133285162Y-51664833D01*
X133143117Y-51321057D01*
X132880327Y-51057808D01*
X132569422Y-50928708D01*
X132419541Y-50828561D01*
X132100000Y-50765000D01*
X130695868Y-50765000D01*
X130509232Y-50578364D01*
X130668275Y-50610000D01*
X132511725Y-50610000D01*
X133089577Y-50495058D01*
X133579456Y-50167731D01*
X133906783Y-49677852D01*
X134021725Y-49100000D01*
X133906783Y-48522148D01*
X133579456Y-48032269D01*
X133306671Y-47850000D01*
X133579456Y-47667731D01*
X133906783Y-47177852D01*
X134021725Y-46600000D01*
X133906783Y-46022148D01*
X133579456Y-45532269D01*
X133089577Y-45204942D01*
X132511725Y-45090000D01*
X131591579Y-45090000D01*
X130225790Y-43724210D01*
X130150959Y-43674210D01*
X129938675Y-43532367D01*
X129857474Y-43516215D01*
X129600000Y-43464999D01*
X129599995Y-43465000D01*
X108466579Y-43465000D01*
X108449019Y-43447440D01*
X109600000Y-43447440D01*
X109835317Y-43403162D01*
X110051441Y-43264090D01*
X110099134Y-43194289D01*
X110135910Y-43251441D01*
X110348110Y-43396431D01*
X110600000Y-43447440D01*
X112600000Y-43447440D01*
X112835317Y-43403162D01*
X113051441Y-43264090D01*
X113099134Y-43194289D01*
X113135910Y-43251441D01*
X113348110Y-43396431D01*
X113600000Y-43447440D01*
X115600000Y-43447440D01*
X115835317Y-43403162D01*
X116051441Y-43264090D01*
X116196431Y-43051890D01*
X116247440Y-42800000D01*
X116247440Y-40800000D01*
X116203162Y-40564683D01*
X116064090Y-40348559D01*
X115851890Y-40203569D01*
X115600000Y-40152560D01*
X113600000Y-40152560D01*
X113364683Y-40196838D01*
X113148559Y-40335910D01*
X113100866Y-40405711D01*
X113064090Y-40348559D01*
X112851890Y-40203569D01*
X112600000Y-40152560D01*
X110654139Y-40152560D01*
X109801580Y-39300000D01*
X117202560Y-39300000D01*
X117202560Y-41300000D01*
X117246838Y-41535317D01*
X117385910Y-41751441D01*
X117598110Y-41896431D01*
X117850000Y-41947440D01*
X118850000Y-41947440D01*
X119085317Y-41903162D01*
X119301441Y-41764090D01*
X119446431Y-41551890D01*
X119497440Y-41300000D01*
X119497440Y-40042619D01*
X134364613Y-40042619D01*
X134704155Y-40864372D01*
X135332321Y-41493636D01*
X136153481Y-41834611D01*
X137042619Y-41835387D01*
X137864372Y-41495845D01*
X138493636Y-40867679D01*
X138834611Y-40046519D01*
X138835387Y-39157381D01*
X138495845Y-38335628D01*
X137867679Y-37706364D01*
X137046519Y-37365389D01*
X136157381Y-37364613D01*
X135335628Y-37704155D01*
X134706364Y-38332321D01*
X134365389Y-39153481D01*
X134364613Y-40042619D01*
X119497440Y-40042619D01*
X119497440Y-39300000D01*
X119453162Y-39064683D01*
X119314090Y-38848559D01*
X119101890Y-38703569D01*
X118850000Y-38652560D01*
X117850000Y-38652560D01*
X117614683Y-38696838D01*
X117398559Y-38835910D01*
X117253569Y-39048110D01*
X117202560Y-39300000D01*
X109801580Y-39300000D01*
X107725790Y-37224210D01*
X107567050Y-37118144D01*
X107438675Y-37032367D01*
X107382484Y-37021190D01*
X107100000Y-36964999D01*
X107099995Y-36965000D01*
X93100000Y-36965000D01*
X92761325Y-37032367D01*
X92474210Y-37224210D01*
X92474208Y-37224213D01*
X87983420Y-41715000D01*
X86833977Y-41715000D01*
X87364372Y-41495845D01*
X87993636Y-40867679D01*
X88334611Y-40046519D01*
X88335387Y-39157381D01*
X87995845Y-38335628D01*
X87367679Y-37706364D01*
X86546519Y-37365389D01*
X85657381Y-37364613D01*
X84835628Y-37704155D01*
X84206364Y-38332321D01*
X83865389Y-39153481D01*
X83864613Y-40042619D01*
X84204155Y-40864372D01*
X84832321Y-41493636D01*
X85244789Y-41664908D01*
X85164833Y-41664838D01*
X84821057Y-41806883D01*
X84557808Y-42069673D01*
X84415162Y-42413201D01*
X84414838Y-42785167D01*
X84427165Y-42815000D01*
X83278711Y-42815000D01*
X77581856Y-37118144D01*
X77246077Y-36893785D01*
X76850000Y-36814999D01*
X76849995Y-36815000D01*
X61350005Y-36815000D01*
X61350000Y-36814999D01*
X60953923Y-36893785D01*
X60618144Y-37118144D01*
X60618142Y-37118147D01*
X56668144Y-41068144D01*
X56490576Y-41333895D01*
X56497440Y-41300000D01*
X56497440Y-39300000D01*
X56453162Y-39064683D01*
X56314090Y-38848559D01*
X56101890Y-38703569D01*
X55850000Y-38652560D01*
X54850000Y-38652560D01*
X54614683Y-38696838D01*
X54398559Y-38835910D01*
X54253569Y-39048110D01*
X54202560Y-39300000D01*
X54202560Y-41300000D01*
X54246838Y-41535317D01*
X54385910Y-41751441D01*
X54598110Y-41896431D01*
X54850000Y-41947440D01*
X55850000Y-41947440D01*
X56085317Y-41903162D01*
X56301441Y-41764090D01*
X56401178Y-41618120D01*
X56364999Y-41800000D01*
X56365000Y-41800005D01*
X56365000Y-46871289D01*
X50921288Y-52315000D01*
X50708726Y-52315000D01*
X51076922Y-51763956D01*
X51208991Y-51100000D01*
X51076922Y-50436044D01*
X50700821Y-49873170D01*
X50635000Y-49829190D01*
X50635000Y-47697640D01*
X51350060Y-47697640D01*
X51585377Y-47653362D01*
X51801501Y-47514290D01*
X51946491Y-47302090D01*
X51997500Y-47050200D01*
X51997500Y-43550080D01*
X51953222Y-43314763D01*
X51814150Y-43098639D01*
X51601950Y-42953649D01*
X51350060Y-42902640D01*
X47849940Y-42902640D01*
X47614623Y-42946918D01*
X47398499Y-43085990D01*
X47253509Y-43298190D01*
X47202500Y-43550080D01*
X47202500Y-47050200D01*
X47246778Y-47285517D01*
X47385850Y-47501641D01*
X47598050Y-47646631D01*
X47688059Y-47664858D01*
X47664833Y-47664838D01*
X47321057Y-47806883D01*
X47057808Y-48069673D01*
X47007434Y-48190987D01*
X42339709Y-52858711D01*
X42109577Y-52704942D01*
X41531725Y-52590000D01*
X39688275Y-52590000D01*
X39110423Y-52704942D01*
X38620544Y-53032269D01*
X38293217Y-53522148D01*
X38178275Y-54100000D01*
X38293217Y-54677852D01*
X38620544Y-55167731D01*
X38893329Y-55350000D01*
X38620544Y-55532269D01*
X38293217Y-56022148D01*
X38178275Y-56600000D01*
X38293217Y-57177852D01*
X38620544Y-57667731D01*
X39110423Y-57995058D01*
X39565000Y-58085479D01*
X39565000Y-58427573D01*
X39274233Y-58862736D01*
X39165000Y-59411887D01*
X39165000Y-59468113D01*
X39274233Y-60017264D01*
X39585302Y-60482811D01*
X40050849Y-60793880D01*
X40600000Y-60903113D01*
X41149151Y-60793880D01*
X41614698Y-60482811D01*
X41925767Y-60017264D01*
X42035000Y-59468113D01*
X42035000Y-59411887D01*
X41925767Y-58862736D01*
X41635000Y-58427573D01*
X41635000Y-58089457D01*
X42109577Y-57995058D01*
X42599456Y-57667731D01*
X42926783Y-57177852D01*
X43041725Y-56600000D01*
X42926783Y-56022148D01*
X42599456Y-55532269D01*
X42326671Y-55350000D01*
X42599456Y-55167731D01*
X42829390Y-54823611D01*
X42975790Y-54725790D01*
X43315000Y-54386580D01*
X43315000Y-62921289D01*
X42368144Y-63868144D01*
X42143785Y-64203923D01*
X42064999Y-64600000D01*
X42065000Y-64600005D01*
X42065000Y-66280682D01*
X42009013Y-66257434D01*
X39725790Y-63974210D01*
X39438675Y-63782367D01*
X39351366Y-63765000D01*
X39100000Y-63714999D01*
X39099995Y-63715000D01*
X35259413Y-63715000D01*
X35219162Y-63501083D01*
X35080090Y-63284959D01*
X34867890Y-63139969D01*
X34616000Y-63088960D01*
X32584000Y-63088960D01*
X32348683Y-63133238D01*
X32132559Y-63272310D01*
X31987569Y-63484510D01*
X31936560Y-63736400D01*
X31936560Y-65463600D01*
X31980838Y-65698917D01*
X32119910Y-65915041D01*
X32332110Y-66060031D01*
X32373439Y-66068400D01*
X32355585Y-66080330D01*
X32030729Y-66566511D01*
X31916655Y-67140000D01*
X32030729Y-67713489D01*
X32355585Y-68199670D01*
X32670366Y-68410000D01*
X32355585Y-68620330D01*
X32030729Y-69106511D01*
X31916655Y-69680000D01*
X32030729Y-70253489D01*
X32355585Y-70739670D01*
X32670366Y-70950000D01*
X32355585Y-71160330D01*
X32030729Y-71646511D01*
X31916655Y-72220000D01*
X32030729Y-72793489D01*
X32355585Y-73279670D01*
X32670366Y-73490000D01*
X32355585Y-73700330D01*
X32030729Y-74186511D01*
X31916655Y-74760000D01*
X32030729Y-75333489D01*
X32355585Y-75819670D01*
X32670366Y-76030000D01*
X32355585Y-76240330D01*
X32030729Y-76726511D01*
X31916655Y-77300000D01*
X32030729Y-77873489D01*
X32355585Y-78359670D01*
X32715000Y-78599824D01*
X32715000Y-82599995D01*
X32714999Y-82600000D01*
X32771190Y-82882484D01*
X32782367Y-82938675D01*
X32933700Y-83165162D01*
X32974210Y-83225790D01*
X43257255Y-93508834D01*
X43306883Y-93628943D01*
X43567485Y-93890000D01*
X31310000Y-93890000D01*
X31310000Y-90042619D01*
X33364613Y-90042619D01*
X33704155Y-90864372D01*
X34332321Y-91493636D01*
X35153481Y-91834611D01*
X36042619Y-91835387D01*
X36864372Y-91495845D01*
X37493636Y-90867679D01*
X37834611Y-90046519D01*
X37835387Y-89157381D01*
X37495845Y-88335628D01*
X36867679Y-87706364D01*
X36046519Y-87365389D01*
X35157381Y-87364613D01*
X34335628Y-87704155D01*
X33706364Y-88332321D01*
X33365389Y-89153481D01*
X33364613Y-90042619D01*
X31310000Y-90042619D01*
X31310000Y-40042619D01*
X33364613Y-40042619D01*
X33704155Y-40864372D01*
X34332321Y-41493636D01*
X35153481Y-41834611D01*
X36042619Y-41835387D01*
X36864372Y-41495845D01*
X37493636Y-40867679D01*
X37834611Y-40046519D01*
X37835387Y-39157381D01*
X37495845Y-38335628D01*
X36867679Y-37706364D01*
X36046519Y-37365389D01*
X35157381Y-37364613D01*
X34335628Y-37704155D01*
X33706364Y-38332321D01*
X33365389Y-39153481D01*
X33364613Y-40042619D01*
X31310000Y-40042619D01*
X31310000Y-35310000D01*
X140890000Y-35310000D01*
X140890000Y-93890000D01*
G36*
X67753569Y-39048110D02*
X67702560Y-39300000D01*
X67702560Y-41300000D01*
X67746838Y-41535317D01*
X67885910Y-41751441D01*
X68098110Y-41896431D01*
X68350000Y-41947440D01*
X69350000Y-41947440D01*
X69585317Y-41903162D01*
X69801441Y-41764090D01*
X69946431Y-41551890D01*
X69997440Y-41300000D01*
X69997440Y-39300000D01*
X69953162Y-39064683D01*
X69837539Y-38885000D01*
X76421288Y-38885000D01*
X78601607Y-41065319D01*
X78600000Y-41064999D01*
X78599995Y-41065000D01*
X75600005Y-41065000D01*
X75600000Y-41064999D01*
X75203922Y-41143785D01*
X75069429Y-41233651D01*
X74868144Y-41368144D01*
X74868142Y-41368147D01*
X74408144Y-41828144D01*
X74183785Y-42163923D01*
X74104999Y-42560000D01*
X74105000Y-42560005D01*
X74105000Y-43839101D01*
X74080330Y-43855585D01*
X74070757Y-43869913D01*
X74066762Y-43848683D01*
X73927690Y-43632559D01*
X73715490Y-43487569D01*
X73463600Y-43436560D01*
X71736400Y-43436560D01*
X71501083Y-43480838D01*
X71284959Y-43619910D01*
X71139969Y-43832110D01*
X71088960Y-44084000D01*
X71088960Y-46116000D01*
X71133238Y-46351317D01*
X71272310Y-46567441D01*
X71484510Y-46712431D01*
X71736400Y-46763440D01*
X71822430Y-46763440D01*
X71868144Y-46831856D01*
X72868142Y-47831853D01*
X72868144Y-47831856D01*
X72992329Y-47914833D01*
X73203923Y-48056215D01*
X73481627Y-48111455D01*
X73436560Y-48334000D01*
X73436560Y-50366000D01*
X73480838Y-50601317D01*
X73565000Y-50732108D01*
X73565000Y-52099995D01*
X73564999Y-52100000D01*
X73643785Y-52496077D01*
X73868144Y-52831856D01*
X75164975Y-54128686D01*
X75164752Y-54384187D01*
X75382757Y-54911800D01*
X75786077Y-55315824D01*
X76313309Y-55534750D01*
X76884187Y-55535248D01*
X77411800Y-55317243D01*
X77815824Y-54913923D01*
X78034750Y-54386691D01*
X78035248Y-53815813D01*
X77817243Y-53288200D01*
X77413923Y-52884176D01*
X76886691Y-52665250D01*
X76628736Y-52665025D01*
X75635000Y-51671288D01*
X75635000Y-51013440D01*
X76116000Y-51013440D01*
X76351317Y-50969162D01*
X76567441Y-50830090D01*
X76712431Y-50617890D01*
X76763440Y-50366000D01*
X76763440Y-48334000D01*
X76725996Y-48135000D01*
X78600000Y-48135000D01*
X78996077Y-48056215D01*
X79065000Y-48010162D01*
X79065000Y-64921289D01*
X77899583Y-66086706D01*
X77893117Y-66071057D01*
X77630327Y-65807808D01*
X77509013Y-65757434D01*
X77485000Y-65733421D01*
X77485000Y-65389473D01*
X77614698Y-65302811D01*
X77925767Y-64837264D01*
X78035000Y-64288113D01*
X78035000Y-64231887D01*
X77925767Y-63682736D01*
X77614698Y-63217189D01*
X77149151Y-62906120D01*
X76600000Y-62796887D01*
X76050849Y-62906120D01*
X75585302Y-63217189D01*
X75274233Y-63682736D01*
X75165000Y-64231887D01*
X75165000Y-64288113D01*
X75274233Y-64837264D01*
X75585302Y-65302811D01*
X75715000Y-65389473D01*
X75715000Y-66099995D01*
X75714999Y-66100000D01*
X75750896Y-66280460D01*
X75782367Y-66438675D01*
X75933700Y-66665162D01*
X75974210Y-66725790D01*
X76257255Y-67008835D01*
X76306883Y-67128943D01*
X76569673Y-67392192D01*
X76586931Y-67399358D01*
X73868144Y-70118144D01*
X73643785Y-70453923D01*
X73564999Y-70850000D01*
X73565000Y-70850005D01*
X73565000Y-71600000D01*
X73643785Y-71996077D01*
X73868144Y-72331856D01*
X74203923Y-72556215D01*
X74600000Y-72635000D01*
X74996077Y-72556215D01*
X75331856Y-72331856D01*
X75556215Y-71996077D01*
X75635000Y-71600000D01*
X75635000Y-71278712D01*
X80831853Y-66081858D01*
X80831856Y-66081856D01*
X81056215Y-65746077D01*
X81077037Y-65641400D01*
X81135001Y-65350000D01*
X81135000Y-65349995D01*
X81135000Y-48098712D01*
X85868142Y-52831853D01*
X85868144Y-52831856D01*
X86141058Y-53014210D01*
X86203923Y-53056215D01*
X86392552Y-53093736D01*
X84868144Y-54618144D01*
X84643785Y-54953923D01*
X84564999Y-55350000D01*
X84565000Y-55350005D01*
X84565000Y-69671289D01*
X81171288Y-73065000D01*
X78503222Y-73065000D01*
X78503162Y-73064683D01*
X78364090Y-72848559D01*
X78151890Y-72703569D01*
X77900000Y-72652560D01*
X76300000Y-72652560D01*
X76064683Y-72696838D01*
X75848559Y-72835910D01*
X75703569Y-73048110D01*
X75700149Y-73065000D01*
X74850000Y-73065000D01*
X74453922Y-73143785D01*
X74342852Y-73218000D01*
X74118144Y-73368144D01*
X74118142Y-73368147D01*
X72921288Y-74565000D01*
X70107157Y-74565000D01*
X70011619Y-74084701D01*
X69689792Y-73603052D01*
X69208143Y-73281225D01*
X68640000Y-73168214D01*
X68071857Y-73281225D01*
X67590208Y-73603052D01*
X67268381Y-74084701D01*
X67155370Y-74652844D01*
X67155370Y-76547156D01*
X67268381Y-77115299D01*
X67590208Y-77596948D01*
X68071857Y-77918775D01*
X68640000Y-78031786D01*
X69208143Y-77918775D01*
X69689792Y-77596948D01*
X70011619Y-77115299D01*
X70107157Y-76635000D01*
X73349995Y-76635000D01*
X73350000Y-76635001D01*
X73746077Y-76556215D01*
X74081856Y-76331856D01*
X75278711Y-75135000D01*
X75696778Y-75135000D01*
X75696838Y-75135317D01*
X75835910Y-75351441D01*
X76048110Y-75496431D01*
X76300000Y-75547440D01*
X77900000Y-75547440D01*
X78135317Y-75503162D01*
X78351441Y-75364090D01*
X78496431Y-75151890D01*
X78499851Y-75135000D01*
X79313420Y-75135000D01*
X78974210Y-75474210D01*
X78782367Y-75761325D01*
X78782367Y-75761326D01*
X78714999Y-76100000D01*
X78715000Y-76100005D01*
X78715000Y-77637603D01*
X78350000Y-77565000D01*
X77953923Y-77643785D01*
X77618144Y-77868144D01*
X77393785Y-78203923D01*
X77315000Y-78600000D01*
X77315000Y-79421289D01*
X75618144Y-81118144D01*
X75393785Y-81453923D01*
X75314999Y-81850000D01*
X75393785Y-82246077D01*
X75618144Y-82581856D01*
X75953923Y-82806215D01*
X76350000Y-82885001D01*
X76746077Y-82806215D01*
X77081856Y-82581856D01*
X78715000Y-80948711D01*
X78715000Y-82655829D01*
X78384176Y-82986077D01*
X78165250Y-83513309D01*
X78164752Y-84084187D01*
X78382757Y-84611800D01*
X78786077Y-85015824D01*
X79313309Y-85234750D01*
X79463540Y-85234881D01*
X77233420Y-87465000D01*
X62156822Y-87465000D01*
X62036799Y-87415162D01*
X61664833Y-87414838D01*
X61321057Y-87556883D01*
X61057808Y-87819673D01*
X60988401Y-87986822D01*
X58235000Y-85233420D01*
X58235000Y-82600005D01*
X58235001Y-82600000D01*
X58172310Y-82284838D01*
X58167633Y-82261325D01*
X57975790Y-81974210D01*
X57975787Y-81974208D01*
X56442744Y-80441164D01*
X56393117Y-80321057D01*
X56130327Y-80057808D01*
X56050413Y-80024625D01*
X56096215Y-79956078D01*
X56105928Y-79907247D01*
X56413201Y-80034838D01*
X56785167Y-80035162D01*
X57128943Y-79893117D01*
X57392192Y-79630327D01*
X57442566Y-79509014D01*
X57966579Y-78985000D01*
X60793178Y-78985000D01*
X60913201Y-79034838D01*
X61165000Y-79035057D01*
X61165000Y-80396778D01*
X61164683Y-80396838D01*
X60948559Y-80535910D01*
X60803569Y-80748110D01*
X60752560Y-81000000D01*
X60752560Y-82600000D01*
X60796838Y-82835317D01*
X60935910Y-83051441D01*
X61148110Y-83196431D01*
X61400000Y-83247440D01*
X63000000Y-83247440D01*
X63235317Y-83203162D01*
X63451441Y-83064090D01*
X63573808Y-82885000D01*
X72600000Y-82885000D01*
X72996077Y-82806215D01*
X73331856Y-82581856D01*
X73556215Y-82246077D01*
X73635000Y-81850000D01*
X73556215Y-81453923D01*
X73443400Y-81285082D01*
X73535167Y-81285162D01*
X73878943Y-81143117D01*
X74142192Y-80880327D01*
X74284838Y-80536799D01*
X74285162Y-80164833D01*
X74143117Y-79821057D01*
X73880327Y-79557808D01*
X73759013Y-79507434D01*
X71692744Y-77441164D01*
X71643117Y-77321057D01*
X71380327Y-77057808D01*
X71036799Y-76915162D01*
X70664833Y-76914838D01*
X70321057Y-77056883D01*
X70057808Y-77319673D01*
X69915162Y-77663201D01*
X69914838Y-78035167D01*
X70056883Y-78378943D01*
X70319673Y-78642192D01*
X70440986Y-78692566D01*
X72507255Y-80758834D01*
X72530462Y-80815000D01*
X63612630Y-80815000D01*
X63603162Y-80764683D01*
X63464090Y-80548559D01*
X63251890Y-80403569D01*
X63235000Y-80400149D01*
X63235000Y-77967139D01*
X63560000Y-78031786D01*
X64128143Y-77918775D01*
X64609792Y-77596948D01*
X64931619Y-77115299D01*
X65044630Y-76547156D01*
X65044630Y-74652844D01*
X64931619Y-74084701D01*
X64609792Y-73603052D01*
X64128143Y-73281225D01*
X63560000Y-73168214D01*
X62991857Y-73281225D01*
X62510208Y-73603052D01*
X62188381Y-74084701D01*
X62075370Y-74652844D01*
X62075370Y-75620918D01*
X61468144Y-76228144D01*
X61243785Y-76563923D01*
X61164999Y-76960000D01*
X61165000Y-76960005D01*
X61165000Y-77165056D01*
X60914833Y-77164838D01*
X60793431Y-77215000D01*
X57600005Y-77215000D01*
X57600000Y-77214999D01*
X57261326Y-77282366D01*
X57208545Y-77317633D01*
X56974210Y-77474210D01*
X56974208Y-77474213D01*
X56191165Y-78257256D01*
X56175000Y-78263935D01*
X56175000Y-77606832D01*
X56189792Y-77596948D01*
X56511619Y-77115299D01*
X56624630Y-76547156D01*
X56624630Y-74652844D01*
X56511619Y-74084701D01*
X56189792Y-73603052D01*
X55708143Y-73281225D01*
X55140000Y-73168214D01*
X54571857Y-73281225D01*
X54090208Y-73603052D01*
X53768381Y-74084701D01*
X53655370Y-74652844D01*
X53655370Y-76547156D01*
X53768381Y-77115299D01*
X54090208Y-77596948D01*
X54105000Y-77606832D01*
X54105000Y-79131289D01*
X52083728Y-81152560D01*
X51300000Y-81152560D01*
X51064683Y-81196838D01*
X50848559Y-81335910D01*
X50703569Y-81548110D01*
X50669773Y-81715000D01*
X48600005Y-81715000D01*
X48600000Y-81714999D01*
X48261326Y-81782366D01*
X48234935Y-81800000D01*
X47974210Y-81974210D01*
X47974208Y-81974213D01*
X47666842Y-82281579D01*
X47386691Y-82165250D01*
X46815813Y-82164752D01*
X46288200Y-82382757D01*
X45957688Y-82712693D01*
X45917633Y-82511325D01*
X45725790Y-82224210D01*
X45725787Y-82224208D01*
X44442744Y-80941164D01*
X44393117Y-80821057D01*
X44130327Y-80557808D01*
X43786799Y-80415162D01*
X43414833Y-80414838D01*
X43071057Y-80556883D01*
X42807808Y-80819673D01*
X42665162Y-81163201D01*
X42664838Y-81535167D01*
X42806883Y-81878943D01*
X43069673Y-82142192D01*
X43190986Y-82192566D01*
X44215000Y-83216579D01*
X44215000Y-84349995D01*
X44214999Y-84350000D01*
X44270761Y-84630327D01*
X44282367Y-84688675D01*
X44449410Y-84938674D01*
X44474210Y-84975790D01*
X50463421Y-90965000D01*
X47466579Y-90965000D01*
X40735000Y-84233420D01*
X40735000Y-80850000D01*
X40667633Y-80511325D01*
X40475790Y-80224210D01*
X40475787Y-80224208D01*
X37235000Y-76983420D01*
X37235000Y-74236580D01*
X39724208Y-76725787D01*
X39724210Y-76725790D01*
X40007142Y-76914838D01*
X40011325Y-76917633D01*
X40350000Y-76985000D01*
X44983420Y-76985000D01*
X47724208Y-79725787D01*
X47724210Y-79725790D01*
X48011325Y-79917633D01*
X48067516Y-79928810D01*
X48350000Y-79985001D01*
X48350005Y-79985000D01*
X52293178Y-79985000D01*
X52413201Y-80034838D01*
X52785167Y-80035162D01*
X53128943Y-79893117D01*
X53392192Y-79630327D01*
X53534838Y-79286799D01*
X53535162Y-78914833D01*
X53393117Y-78571057D01*
X53130327Y-78307808D01*
X52786799Y-78165162D01*
X52414833Y-78164838D01*
X52293431Y-78215000D01*
X48716579Y-78215000D01*
X45975790Y-75474210D01*
X45849649Y-75389926D01*
X45688675Y-75282367D01*
X45632484Y-75271190D01*
X45350000Y-75214999D01*
X45349995Y-75215000D01*
X44453310Y-75215000D01*
X44496431Y-75151890D01*
X44499851Y-75135000D01*
X46471288Y-75135000D01*
X47668142Y-76331853D01*
X47668144Y-76331856D01*
X47828011Y-76438675D01*
X48003922Y-76556215D01*
X48400000Y-76635000D01*
X48592843Y-76635000D01*
X48688381Y-77115299D01*
X49010208Y-77596948D01*
X49491857Y-77918775D01*
X50060000Y-78031786D01*
X50628143Y-77918775D01*
X51109792Y-77596948D01*
X51431619Y-77115299D01*
X51544630Y-76547156D01*
X51544630Y-74652844D01*
X51431619Y-74084701D01*
X51109792Y-73603052D01*
X50628143Y-73281225D01*
X50060000Y-73168214D01*
X49491857Y-73281225D01*
X49010208Y-73603052D01*
X48688381Y-74084701D01*
X48631976Y-74368265D01*
X47631856Y-73368144D01*
X47296077Y-73143785D01*
X46900000Y-73064999D01*
X46899995Y-73065000D01*
X44503222Y-73065000D01*
X44503162Y-73064683D01*
X44364090Y-72848559D01*
X44151890Y-72703569D01*
X44135000Y-72700149D01*
X44135000Y-65028712D01*
X45081853Y-64081858D01*
X45081856Y-64081856D01*
X45306215Y-63746077D01*
X45312397Y-63714999D01*
X45385001Y-63350000D01*
X45385000Y-63349995D01*
X45385000Y-59338015D01*
X50064641Y-59338015D01*
X50449746Y-60270041D01*
X51162208Y-60983748D01*
X52093561Y-61370479D01*
X53102015Y-61371359D01*
X54034041Y-60986254D01*
X54747748Y-60273792D01*
X55134479Y-59342439D01*
X55134482Y-59338015D01*
X63564641Y-59338015D01*
X63949746Y-60270041D01*
X64662208Y-60983748D01*
X65593561Y-61370479D01*
X66602015Y-61371359D01*
X67534041Y-60986254D01*
X68247748Y-60273792D01*
X68634479Y-59342439D01*
X68635359Y-58333985D01*
X68250254Y-57401959D01*
X67537792Y-56688252D01*
X66606439Y-56301521D01*
X65597985Y-56300641D01*
X64665959Y-56685746D01*
X63952252Y-57398208D01*
X63565521Y-58329561D01*
X63564641Y-59338015D01*
X55134482Y-59338015D01*
X55135359Y-58333985D01*
X54750254Y-57401959D01*
X54037792Y-56688252D01*
X53106439Y-56301521D01*
X52097985Y-56300641D01*
X51165959Y-56685746D01*
X50452252Y-57398208D01*
X50065521Y-58329561D01*
X50064641Y-59338015D01*
X45385000Y-59338015D01*
X45385000Y-54778712D01*
X45778711Y-54385000D01*
X51349995Y-54385000D01*
X51350000Y-54385001D01*
X51746077Y-54306215D01*
X52081856Y-54081856D01*
X58131853Y-48031858D01*
X58131856Y-48031856D01*
X58356215Y-47696077D01*
X58364712Y-47653362D01*
X58435001Y-47300000D01*
X58435000Y-47299995D01*
X58435000Y-43447440D01*
X59048791Y-43447440D01*
X58868144Y-43568144D01*
X58643785Y-43903923D01*
X58565000Y-44300000D01*
X58565000Y-49352560D01*
X58500000Y-49352560D01*
X58264683Y-49396838D01*
X58048559Y-49535910D01*
X57903569Y-49748110D01*
X57852560Y-50000000D01*
X57852560Y-52200000D01*
X57896838Y-52435317D01*
X58035910Y-52651441D01*
X58248110Y-52796431D01*
X58500000Y-52847440D01*
X60700000Y-52847440D01*
X60935317Y-52803162D01*
X61151441Y-52664090D01*
X61296431Y-52451890D01*
X61347440Y-52200000D01*
X61347440Y-50000000D01*
X61303162Y-49764683D01*
X61164090Y-49548559D01*
X60951890Y-49403569D01*
X60700000Y-49352560D01*
X60635000Y-49352560D01*
X60635000Y-47957196D01*
X60819673Y-48142192D01*
X61163201Y-48284838D01*
X61535167Y-48285162D01*
X61656569Y-48235000D01*
X67983420Y-48235000D01*
X71507255Y-51758834D01*
X71556883Y-51878943D01*
X71819673Y-52142192D01*
X72163201Y-52284838D01*
X72535167Y-52285162D01*
X72878943Y-52143117D01*
X73142192Y-51880327D01*
X73284838Y-51536799D01*
X73285162Y-51164833D01*
X73143117Y-50821057D01*
X72880327Y-50557808D01*
X72759013Y-50507434D01*
X68975790Y-46724210D01*
X68907640Y-46678674D01*
X68688675Y-46532367D01*
X68632484Y-46521190D01*
X68350000Y-46464999D01*
X68349995Y-46465000D01*
X61656822Y-46465000D01*
X61536799Y-46415162D01*
X61164833Y-46414838D01*
X60821057Y-46556883D01*
X60635000Y-46742616D01*
X60635000Y-44516580D01*
X61450787Y-43700792D01*
X61450790Y-43700790D01*
X61704140Y-43447440D01*
X63100000Y-43447440D01*
X63335317Y-43403162D01*
X63551441Y-43264090D01*
X63599134Y-43194289D01*
X63635910Y-43251441D01*
X63848110Y-43396431D01*
X64100000Y-43447440D01*
X66100000Y-43447440D01*
X66335317Y-43403162D01*
X66551441Y-43264090D01*
X66696431Y-43051890D01*
X66747440Y-42800000D01*
X66747440Y-40800000D01*
X66703162Y-40564683D01*
X66564090Y-40348559D01*
X66351890Y-40203569D01*
X66100000Y-40152560D01*
X64100000Y-40152560D01*
X63864683Y-40196838D01*
X63648559Y-40335910D01*
X63600866Y-40405711D01*
X63564090Y-40348559D01*
X63351890Y-40203569D01*
X63100000Y-40152560D01*
X61100000Y-40152560D01*
X60864683Y-40196838D01*
X60648559Y-40335910D01*
X60600866Y-40405711D01*
X60564090Y-40348559D01*
X60416201Y-40247511D01*
X61778711Y-38885000D01*
X67865017Y-38885000D01*
X67753569Y-39048110D01*
X67753569Y-39048110D01*
G37*
X67753569Y-39048110D02*
X67702560Y-39300000D01*
X67702560Y-41300000D01*
X67746838Y-41535317D01*
X67885910Y-41751441D01*
X68098110Y-41896431D01*
X68350000Y-41947440D01*
X69350000Y-41947440D01*
X69585317Y-41903162D01*
X69801441Y-41764090D01*
X69946431Y-41551890D01*
X69997440Y-41300000D01*
X69997440Y-39300000D01*
X69953162Y-39064683D01*
X69837539Y-38885000D01*
X76421288Y-38885000D01*
X78601607Y-41065319D01*
X78600000Y-41064999D01*
X78599995Y-41065000D01*
X75600005Y-41065000D01*
X75600000Y-41064999D01*
X75203922Y-41143785D01*
X75069429Y-41233651D01*
X74868144Y-41368144D01*
X74868142Y-41368147D01*
X74408144Y-41828144D01*
X74183785Y-42163923D01*
X74104999Y-42560000D01*
X74105000Y-42560005D01*
X74105000Y-43839101D01*
X74080330Y-43855585D01*
X74070757Y-43869913D01*
X74066762Y-43848683D01*
X73927690Y-43632559D01*
X73715490Y-43487569D01*
X73463600Y-43436560D01*
X71736400Y-43436560D01*
X71501083Y-43480838D01*
X71284959Y-43619910D01*
X71139969Y-43832110D01*
X71088960Y-44084000D01*
X71088960Y-46116000D01*
X71133238Y-46351317D01*
X71272310Y-46567441D01*
X71484510Y-46712431D01*
X71736400Y-46763440D01*
X71822430Y-46763440D01*
X71868144Y-46831856D01*
X72868142Y-47831853D01*
X72868144Y-47831856D01*
X72992329Y-47914833D01*
X73203923Y-48056215D01*
X73481627Y-48111455D01*
X73436560Y-48334000D01*
X73436560Y-50366000D01*
X73480838Y-50601317D01*
X73565000Y-50732108D01*
X73565000Y-52099995D01*
X73564999Y-52100000D01*
X73643785Y-52496077D01*
X73868144Y-52831856D01*
X75164975Y-54128686D01*
X75164752Y-54384187D01*
X75382757Y-54911800D01*
X75786077Y-55315824D01*
X76313309Y-55534750D01*
X76884187Y-55535248D01*
X77411800Y-55317243D01*
X77815824Y-54913923D01*
X78034750Y-54386691D01*
X78035248Y-53815813D01*
X77817243Y-53288200D01*
X77413923Y-52884176D01*
X76886691Y-52665250D01*
X76628736Y-52665025D01*
X75635000Y-51671288D01*
X75635000Y-51013440D01*
X76116000Y-51013440D01*
X76351317Y-50969162D01*
X76567441Y-50830090D01*
X76712431Y-50617890D01*
X76763440Y-50366000D01*
X76763440Y-48334000D01*
X76725996Y-48135000D01*
X78600000Y-48135000D01*
X78996077Y-48056215D01*
X79065000Y-48010162D01*
X79065000Y-64921289D01*
X77899583Y-66086706D01*
X77893117Y-66071057D01*
X77630327Y-65807808D01*
X77509013Y-65757434D01*
X77485000Y-65733421D01*
X77485000Y-65389473D01*
X77614698Y-65302811D01*
X77925767Y-64837264D01*
X78035000Y-64288113D01*
X78035000Y-64231887D01*
X77925767Y-63682736D01*
X77614698Y-63217189D01*
X77149151Y-62906120D01*
X76600000Y-62796887D01*
X76050849Y-62906120D01*
X75585302Y-63217189D01*
X75274233Y-63682736D01*
X75165000Y-64231887D01*
X75165000Y-64288113D01*
X75274233Y-64837264D01*
X75585302Y-65302811D01*
X75715000Y-65389473D01*
X75715000Y-66099995D01*
X75714999Y-66100000D01*
X75750896Y-66280460D01*
X75782367Y-66438675D01*
X75933700Y-66665162D01*
X75974210Y-66725790D01*
X76257255Y-67008835D01*
X76306883Y-67128943D01*
X76569673Y-67392192D01*
X76586931Y-67399358D01*
X73868144Y-70118144D01*
X73643785Y-70453923D01*
X73564999Y-70850000D01*
X73565000Y-70850005D01*
X73565000Y-71600000D01*
X73643785Y-71996077D01*
X73868144Y-72331856D01*
X74203923Y-72556215D01*
X74600000Y-72635000D01*
X74996077Y-72556215D01*
X75331856Y-72331856D01*
X75556215Y-71996077D01*
X75635000Y-71600000D01*
X75635000Y-71278712D01*
X80831853Y-66081858D01*
X80831856Y-66081856D01*
X81056215Y-65746077D01*
X81077037Y-65641400D01*
X81135001Y-65350000D01*
X81135000Y-65349995D01*
X81135000Y-48098712D01*
X85868142Y-52831853D01*
X85868144Y-52831856D01*
X86141058Y-53014210D01*
X86203923Y-53056215D01*
X86392552Y-53093736D01*
X84868144Y-54618144D01*
X84643785Y-54953923D01*
X84564999Y-55350000D01*
X84565000Y-55350005D01*
X84565000Y-69671289D01*
X81171288Y-73065000D01*
X78503222Y-73065000D01*
X78503162Y-73064683D01*
X78364090Y-72848559D01*
X78151890Y-72703569D01*
X77900000Y-72652560D01*
X76300000Y-72652560D01*
X76064683Y-72696838D01*
X75848559Y-72835910D01*
X75703569Y-73048110D01*
X75700149Y-73065000D01*
X74850000Y-73065000D01*
X74453922Y-73143785D01*
X74342852Y-73218000D01*
X74118144Y-73368144D01*
X74118142Y-73368147D01*
X72921288Y-74565000D01*
X70107157Y-74565000D01*
X70011619Y-74084701D01*
X69689792Y-73603052D01*
X69208143Y-73281225D01*
X68640000Y-73168214D01*
X68071857Y-73281225D01*
X67590208Y-73603052D01*
X67268381Y-74084701D01*
X67155370Y-74652844D01*
X67155370Y-76547156D01*
X67268381Y-77115299D01*
X67590208Y-77596948D01*
X68071857Y-77918775D01*
X68640000Y-78031786D01*
X69208143Y-77918775D01*
X69689792Y-77596948D01*
X70011619Y-77115299D01*
X70107157Y-76635000D01*
X73349995Y-76635000D01*
X73350000Y-76635001D01*
X73746077Y-76556215D01*
X74081856Y-76331856D01*
X75278711Y-75135000D01*
X75696778Y-75135000D01*
X75696838Y-75135317D01*
X75835910Y-75351441D01*
X76048110Y-75496431D01*
X76300000Y-75547440D01*
X77900000Y-75547440D01*
X78135317Y-75503162D01*
X78351441Y-75364090D01*
X78496431Y-75151890D01*
X78499851Y-75135000D01*
X79313420Y-75135000D01*
X78974210Y-75474210D01*
X78782367Y-75761325D01*
X78782367Y-75761326D01*
X78714999Y-76100000D01*
X78715000Y-76100005D01*
X78715000Y-77637603D01*
X78350000Y-77565000D01*
X77953923Y-77643785D01*
X77618144Y-77868144D01*
X77393785Y-78203923D01*
X77315000Y-78600000D01*
X77315000Y-79421289D01*
X75618144Y-81118144D01*
X75393785Y-81453923D01*
X75314999Y-81850000D01*
X75393785Y-82246077D01*
X75618144Y-82581856D01*
X75953923Y-82806215D01*
X76350000Y-82885001D01*
X76746077Y-82806215D01*
X77081856Y-82581856D01*
X78715000Y-80948711D01*
X78715000Y-82655829D01*
X78384176Y-82986077D01*
X78165250Y-83513309D01*
X78164752Y-84084187D01*
X78382757Y-84611800D01*
X78786077Y-85015824D01*
X79313309Y-85234750D01*
X79463540Y-85234881D01*
X77233420Y-87465000D01*
X62156822Y-87465000D01*
X62036799Y-87415162D01*
X61664833Y-87414838D01*
X61321057Y-87556883D01*
X61057808Y-87819673D01*
X60988401Y-87986822D01*
X58235000Y-85233420D01*
X58235000Y-82600005D01*
X58235001Y-82600000D01*
X58172310Y-82284838D01*
X58167633Y-82261325D01*
X57975790Y-81974210D01*
X57975787Y-81974208D01*
X56442744Y-80441164D01*
X56393117Y-80321057D01*
X56130327Y-80057808D01*
X56050413Y-80024625D01*
X56096215Y-79956078D01*
X56105928Y-79907247D01*
X56413201Y-80034838D01*
X56785167Y-80035162D01*
X57128943Y-79893117D01*
X57392192Y-79630327D01*
X57442566Y-79509014D01*
X57966579Y-78985000D01*
X60793178Y-78985000D01*
X60913201Y-79034838D01*
X61165000Y-79035057D01*
X61165000Y-80396778D01*
X61164683Y-80396838D01*
X60948559Y-80535910D01*
X60803569Y-80748110D01*
X60752560Y-81000000D01*
X60752560Y-82600000D01*
X60796838Y-82835317D01*
X60935910Y-83051441D01*
X61148110Y-83196431D01*
X61400000Y-83247440D01*
X63000000Y-83247440D01*
X63235317Y-83203162D01*
X63451441Y-83064090D01*
X63573808Y-82885000D01*
X72600000Y-82885000D01*
X72996077Y-82806215D01*
X73331856Y-82581856D01*
X73556215Y-82246077D01*
X73635000Y-81850000D01*
X73556215Y-81453923D01*
X73443400Y-81285082D01*
X73535167Y-81285162D01*
X73878943Y-81143117D01*
X74142192Y-80880327D01*
X74284838Y-80536799D01*
X74285162Y-80164833D01*
X74143117Y-79821057D01*
X73880327Y-79557808D01*
X73759013Y-79507434D01*
X71692744Y-77441164D01*
X71643117Y-77321057D01*
X71380327Y-77057808D01*
X71036799Y-76915162D01*
X70664833Y-76914838D01*
X70321057Y-77056883D01*
X70057808Y-77319673D01*
X69915162Y-77663201D01*
X69914838Y-78035167D01*
X70056883Y-78378943D01*
X70319673Y-78642192D01*
X70440986Y-78692566D01*
X72507255Y-80758834D01*
X72530462Y-80815000D01*
X63612630Y-80815000D01*
X63603162Y-80764683D01*
X63464090Y-80548559D01*
X63251890Y-80403569D01*
X63235000Y-80400149D01*
X63235000Y-77967139D01*
X63560000Y-78031786D01*
X64128143Y-77918775D01*
X64609792Y-77596948D01*
X64931619Y-77115299D01*
X65044630Y-76547156D01*
X65044630Y-74652844D01*
X64931619Y-74084701D01*
X64609792Y-73603052D01*
X64128143Y-73281225D01*
X63560000Y-73168214D01*
X62991857Y-73281225D01*
X62510208Y-73603052D01*
X62188381Y-74084701D01*
X62075370Y-74652844D01*
X62075370Y-75620918D01*
X61468144Y-76228144D01*
X61243785Y-76563923D01*
X61164999Y-76960000D01*
X61165000Y-76960005D01*
X61165000Y-77165056D01*
X60914833Y-77164838D01*
X60793431Y-77215000D01*
X57600005Y-77215000D01*
X57600000Y-77214999D01*
X57261326Y-77282366D01*
X57208545Y-77317633D01*
X56974210Y-77474210D01*
X56974208Y-77474213D01*
X56191165Y-78257256D01*
X56175000Y-78263935D01*
X56175000Y-77606832D01*
X56189792Y-77596948D01*
X56511619Y-77115299D01*
X56624630Y-76547156D01*
X56624630Y-74652844D01*
X56511619Y-74084701D01*
X56189792Y-73603052D01*
X55708143Y-73281225D01*
X55140000Y-73168214D01*
X54571857Y-73281225D01*
X54090208Y-73603052D01*
X53768381Y-74084701D01*
X53655370Y-74652844D01*
X53655370Y-76547156D01*
X53768381Y-77115299D01*
X54090208Y-77596948D01*
X54105000Y-77606832D01*
X54105000Y-79131289D01*
X52083728Y-81152560D01*
X51300000Y-81152560D01*
X51064683Y-81196838D01*
X50848559Y-81335910D01*
X50703569Y-81548110D01*
X50669773Y-81715000D01*
X48600005Y-81715000D01*
X48600000Y-81714999D01*
X48261326Y-81782366D01*
X48234935Y-81800000D01*
X47974210Y-81974210D01*
X47974208Y-81974213D01*
X47666842Y-82281579D01*
X47386691Y-82165250D01*
X46815813Y-82164752D01*
X46288200Y-82382757D01*
X45957688Y-82712693D01*
X45917633Y-82511325D01*
X45725790Y-82224210D01*
X45725787Y-82224208D01*
X44442744Y-80941164D01*
X44393117Y-80821057D01*
X44130327Y-80557808D01*
X43786799Y-80415162D01*
X43414833Y-80414838D01*
X43071057Y-80556883D01*
X42807808Y-80819673D01*
X42665162Y-81163201D01*
X42664838Y-81535167D01*
X42806883Y-81878943D01*
X43069673Y-82142192D01*
X43190986Y-82192566D01*
X44215000Y-83216579D01*
X44215000Y-84349995D01*
X44214999Y-84350000D01*
X44270761Y-84630327D01*
X44282367Y-84688675D01*
X44449410Y-84938674D01*
X44474210Y-84975790D01*
X50463421Y-90965000D01*
X47466579Y-90965000D01*
X40735000Y-84233420D01*
X40735000Y-80850000D01*
X40667633Y-80511325D01*
X40475790Y-80224210D01*
X40475787Y-80224208D01*
X37235000Y-76983420D01*
X37235000Y-74236580D01*
X39724208Y-76725787D01*
X39724210Y-76725790D01*
X40007142Y-76914838D01*
X40011325Y-76917633D01*
X40350000Y-76985000D01*
X44983420Y-76985000D01*
X47724208Y-79725787D01*
X47724210Y-79725790D01*
X48011325Y-79917633D01*
X48067516Y-79928810D01*
X48350000Y-79985001D01*
X48350005Y-79985000D01*
X52293178Y-79985000D01*
X52413201Y-80034838D01*
X52785167Y-80035162D01*
X53128943Y-79893117D01*
X53392192Y-79630327D01*
X53534838Y-79286799D01*
X53535162Y-78914833D01*
X53393117Y-78571057D01*
X53130327Y-78307808D01*
X52786799Y-78165162D01*
X52414833Y-78164838D01*
X52293431Y-78215000D01*
X48716579Y-78215000D01*
X45975790Y-75474210D01*
X45849649Y-75389926D01*
X45688675Y-75282367D01*
X45632484Y-75271190D01*
X45350000Y-75214999D01*
X45349995Y-75215000D01*
X44453310Y-75215000D01*
X44496431Y-75151890D01*
X44499851Y-75135000D01*
X46471288Y-75135000D01*
X47668142Y-76331853D01*
X47668144Y-76331856D01*
X47828011Y-76438675D01*
X48003922Y-76556215D01*
X48400000Y-76635000D01*
X48592843Y-76635000D01*
X48688381Y-77115299D01*
X49010208Y-77596948D01*
X49491857Y-77918775D01*
X50060000Y-78031786D01*
X50628143Y-77918775D01*
X51109792Y-77596948D01*
X51431619Y-77115299D01*
X51544630Y-76547156D01*
X51544630Y-74652844D01*
X51431619Y-74084701D01*
X51109792Y-73603052D01*
X50628143Y-73281225D01*
X50060000Y-73168214D01*
X49491857Y-73281225D01*
X49010208Y-73603052D01*
X48688381Y-74084701D01*
X48631976Y-74368265D01*
X47631856Y-73368144D01*
X47296077Y-73143785D01*
X46900000Y-73064999D01*
X46899995Y-73065000D01*
X44503222Y-73065000D01*
X44503162Y-73064683D01*
X44364090Y-72848559D01*
X44151890Y-72703569D01*
X44135000Y-72700149D01*
X44135000Y-65028712D01*
X45081853Y-64081858D01*
X45081856Y-64081856D01*
X45306215Y-63746077D01*
X45312397Y-63714999D01*
X45385001Y-63350000D01*
X45385000Y-63349995D01*
X45385000Y-59338015D01*
X50064641Y-59338015D01*
X50449746Y-60270041D01*
X51162208Y-60983748D01*
X52093561Y-61370479D01*
X53102015Y-61371359D01*
X54034041Y-60986254D01*
X54747748Y-60273792D01*
X55134479Y-59342439D01*
X55134482Y-59338015D01*
X63564641Y-59338015D01*
X63949746Y-60270041D01*
X64662208Y-60983748D01*
X65593561Y-61370479D01*
X66602015Y-61371359D01*
X67534041Y-60986254D01*
X68247748Y-60273792D01*
X68634479Y-59342439D01*
X68635359Y-58333985D01*
X68250254Y-57401959D01*
X67537792Y-56688252D01*
X66606439Y-56301521D01*
X65597985Y-56300641D01*
X64665959Y-56685746D01*
X63952252Y-57398208D01*
X63565521Y-58329561D01*
X63564641Y-59338015D01*
X55134482Y-59338015D01*
X55135359Y-58333985D01*
X54750254Y-57401959D01*
X54037792Y-56688252D01*
X53106439Y-56301521D01*
X52097985Y-56300641D01*
X51165959Y-56685746D01*
X50452252Y-57398208D01*
X50065521Y-58329561D01*
X50064641Y-59338015D01*
X45385000Y-59338015D01*
X45385000Y-54778712D01*
X45778711Y-54385000D01*
X51349995Y-54385000D01*
X51350000Y-54385001D01*
X51746077Y-54306215D01*
X52081856Y-54081856D01*
X58131853Y-48031858D01*
X58131856Y-48031856D01*
X58356215Y-47696077D01*
X58364712Y-47653362D01*
X58435001Y-47300000D01*
X58435000Y-47299995D01*
X58435000Y-43447440D01*
X59048791Y-43447440D01*
X58868144Y-43568144D01*
X58643785Y-43903923D01*
X58565000Y-44300000D01*
X58565000Y-49352560D01*
X58500000Y-49352560D01*
X58264683Y-49396838D01*
X58048559Y-49535910D01*
X57903569Y-49748110D01*
X57852560Y-50000000D01*
X57852560Y-52200000D01*
X57896838Y-52435317D01*
X58035910Y-52651441D01*
X58248110Y-52796431D01*
X58500000Y-52847440D01*
X60700000Y-52847440D01*
X60935317Y-52803162D01*
X61151441Y-52664090D01*
X61296431Y-52451890D01*
X61347440Y-52200000D01*
X61347440Y-50000000D01*
X61303162Y-49764683D01*
X61164090Y-49548559D01*
X60951890Y-49403569D01*
X60700000Y-49352560D01*
X60635000Y-49352560D01*
X60635000Y-47957196D01*
X60819673Y-48142192D01*
X61163201Y-48284838D01*
X61535167Y-48285162D01*
X61656569Y-48235000D01*
X67983420Y-48235000D01*
X71507255Y-51758834D01*
X71556883Y-51878943D01*
X71819673Y-52142192D01*
X72163201Y-52284838D01*
X72535167Y-52285162D01*
X72878943Y-52143117D01*
X73142192Y-51880327D01*
X73284838Y-51536799D01*
X73285162Y-51164833D01*
X73143117Y-50821057D01*
X72880327Y-50557808D01*
X72759013Y-50507434D01*
X68975790Y-46724210D01*
X68907640Y-46678674D01*
X68688675Y-46532367D01*
X68632484Y-46521190D01*
X68350000Y-46464999D01*
X68349995Y-46465000D01*
X61656822Y-46465000D01*
X61536799Y-46415162D01*
X61164833Y-46414838D01*
X60821057Y-46556883D01*
X60635000Y-46742616D01*
X60635000Y-44516580D01*
X61450787Y-43700792D01*
X61450790Y-43700790D01*
X61704140Y-43447440D01*
X63100000Y-43447440D01*
X63335317Y-43403162D01*
X63551441Y-43264090D01*
X63599134Y-43194289D01*
X63635910Y-43251441D01*
X63848110Y-43396431D01*
X64100000Y-43447440D01*
X66100000Y-43447440D01*
X66335317Y-43403162D01*
X66551441Y-43264090D01*
X66696431Y-43051890D01*
X66747440Y-42800000D01*
X66747440Y-40800000D01*
X66703162Y-40564683D01*
X66564090Y-40348559D01*
X66351890Y-40203569D01*
X66100000Y-40152560D01*
X64100000Y-40152560D01*
X63864683Y-40196838D01*
X63648559Y-40335910D01*
X63600866Y-40405711D01*
X63564090Y-40348559D01*
X63351890Y-40203569D01*
X63100000Y-40152560D01*
X61100000Y-40152560D01*
X60864683Y-40196838D01*
X60648559Y-40335910D01*
X60600866Y-40405711D01*
X60564090Y-40348559D01*
X60416201Y-40247511D01*
X61778711Y-38885000D01*
X67865017Y-38885000D01*
X67753569Y-39048110D01*
G36*
X54806883Y-81378943D02*
X55069673Y-81642192D01*
X55190986Y-81692566D01*
X56465000Y-82966579D01*
X56465000Y-85599995D01*
X56464999Y-85600000D01*
X56520761Y-85880327D01*
X56532367Y-85938675D01*
X56596202Y-86034211D01*
X56724210Y-86225790D01*
X57963420Y-87465000D01*
X52466579Y-87465000D01*
X50942744Y-85941164D01*
X50893117Y-85821057D01*
X50630327Y-85557808D01*
X50286799Y-85415162D01*
X49914833Y-85414838D01*
X49571057Y-85556883D01*
X49307808Y-85819673D01*
X49165162Y-86163201D01*
X49164838Y-86535167D01*
X49306883Y-86878943D01*
X49569673Y-87142192D01*
X49690986Y-87192566D01*
X51474208Y-88975787D01*
X51474210Y-88975790D01*
X51723250Y-89142192D01*
X51761325Y-89167633D01*
X52100000Y-89235001D01*
X52100005Y-89235000D01*
X58543178Y-89235000D01*
X58663201Y-89284838D01*
X59035167Y-89285162D01*
X59378943Y-89143117D01*
X59510355Y-89011934D01*
X60213421Y-89715000D01*
X51716579Y-89715000D01*
X47036525Y-85034945D01*
X47384187Y-85035248D01*
X47911800Y-84817243D01*
X48315824Y-84413923D01*
X48513349Y-83938231D01*
X48966579Y-83485000D01*
X50668554Y-83485000D01*
X50696838Y-83635317D01*
X50835910Y-83851441D01*
X51048110Y-83996431D01*
X51300000Y-84047440D01*
X52900000Y-84047440D01*
X53135317Y-84003162D01*
X53351441Y-83864090D01*
X53496431Y-83651890D01*
X53547440Y-83400000D01*
X53547440Y-82616272D01*
X54800417Y-81363294D01*
X54806883Y-81378943D01*
X54806883Y-81378943D01*
G37*
X54806883Y-81378943D02*
X55069673Y-81642192D01*
X55190986Y-81692566D01*
X56465000Y-82966579D01*
X56465000Y-85599995D01*
X56464999Y-85600000D01*
X56520761Y-85880327D01*
X56532367Y-85938675D01*
X56596202Y-86034211D01*
X56724210Y-86225790D01*
X57963420Y-87465000D01*
X52466579Y-87465000D01*
X50942744Y-85941164D01*
X50893117Y-85821057D01*
X50630327Y-85557808D01*
X50286799Y-85415162D01*
X49914833Y-85414838D01*
X49571057Y-85556883D01*
X49307808Y-85819673D01*
X49165162Y-86163201D01*
X49164838Y-86535167D01*
X49306883Y-86878943D01*
X49569673Y-87142192D01*
X49690986Y-87192566D01*
X51474208Y-88975787D01*
X51474210Y-88975790D01*
X51723250Y-89142192D01*
X51761325Y-89167633D01*
X52100000Y-89235001D01*
X52100005Y-89235000D01*
X58543178Y-89235000D01*
X58663201Y-89284838D01*
X59035167Y-89285162D01*
X59378943Y-89143117D01*
X59510355Y-89011934D01*
X60213421Y-89715000D01*
X51716579Y-89715000D01*
X47036525Y-85034945D01*
X47384187Y-85035248D01*
X47911800Y-84817243D01*
X48315824Y-84413923D01*
X48513349Y-83938231D01*
X48966579Y-83485000D01*
X50668554Y-83485000D01*
X50696838Y-83635317D01*
X50835910Y-83851441D01*
X51048110Y-83996431D01*
X51300000Y-84047440D01*
X52900000Y-84047440D01*
X53135317Y-84003162D01*
X53351441Y-83864090D01*
X53496431Y-83651890D01*
X53547440Y-83400000D01*
X53547440Y-82616272D01*
X54800417Y-81363294D01*
X54806883Y-81378943D01*
G36*
X91801083Y-50882943D02*
X92063873Y-51146192D01*
X92185186Y-51196566D01*
X93106200Y-52117579D01*
X93106200Y-53376595D01*
X93106199Y-53376600D01*
X93143675Y-53564999D01*
X93173567Y-53715275D01*
X93282926Y-53878943D01*
X93365410Y-54002390D01*
X96769008Y-57405987D01*
X96769010Y-57405990D01*
X96993839Y-57556215D01*
X97056125Y-57597833D01*
X97394800Y-57665201D01*
X97394805Y-57665200D01*
X98283220Y-57665200D01*
X96474210Y-59474210D01*
X96282367Y-59761325D01*
X96274913Y-59798801D01*
X96214999Y-60100000D01*
X96215000Y-60100005D01*
X96215000Y-62630527D01*
X96085302Y-62717189D01*
X95774233Y-63182736D01*
X95665000Y-63731887D01*
X95665000Y-63788113D01*
X95705517Y-63991805D01*
X94135000Y-62421288D01*
X94135000Y-57850005D01*
X94135001Y-57850000D01*
X94056215Y-57453923D01*
X94021494Y-57401959D01*
X93831856Y-57118144D01*
X93831853Y-57118142D01*
X90581856Y-53868144D01*
X90246077Y-53643785D01*
X89850000Y-53564999D01*
X89453923Y-53643785D01*
X89118144Y-53868144D01*
X88893785Y-54203923D01*
X88814999Y-54600000D01*
X88893785Y-54996077D01*
X89118144Y-55331856D01*
X92065000Y-58278711D01*
X92065000Y-62849995D01*
X92064999Y-62850000D01*
X92143785Y-63246077D01*
X92368144Y-63581856D01*
X97065000Y-68278711D01*
X97065000Y-70723842D01*
X96858327Y-70516808D01*
X96514799Y-70374162D01*
X96142833Y-70373838D01*
X95799057Y-70515883D01*
X95562000Y-70752527D01*
X95562000Y-69677005D01*
X95562001Y-69677000D01*
X95494634Y-69338326D01*
X95380581Y-69167633D01*
X95302790Y-69051210D01*
X95302787Y-69051208D01*
X94347440Y-68095861D01*
X94347440Y-66500000D01*
X94303162Y-66264683D01*
X94164090Y-66048559D01*
X93951890Y-65903569D01*
X93700000Y-65852560D01*
X91500000Y-65852560D01*
X91264683Y-65896838D01*
X91048559Y-66035910D01*
X90903569Y-66248110D01*
X90852560Y-66500000D01*
X90852560Y-68700000D01*
X90896838Y-68935317D01*
X91035910Y-69151441D01*
X91248110Y-69296431D01*
X91500000Y-69347440D01*
X93095861Y-69347440D01*
X93792000Y-70043579D01*
X93792000Y-71966420D01*
X92991390Y-71165810D01*
X92945279Y-71135000D01*
X92704275Y-70973967D01*
X92647180Y-70962610D01*
X92365600Y-70906599D01*
X92365595Y-70906600D01*
X90486005Y-70906600D01*
X90486000Y-70906599D01*
X90204420Y-70962610D01*
X90147325Y-70973967D01*
X89860210Y-71165810D01*
X89860208Y-71165813D01*
X88307210Y-72718810D01*
X88115367Y-73005925D01*
X88115367Y-73005926D01*
X88047999Y-73344600D01*
X88048000Y-73344605D01*
X88048000Y-74949322D01*
X83059644Y-74906233D01*
X82974389Y-74922427D01*
X82887615Y-74921601D01*
X82806412Y-74954334D01*
X82720400Y-74970672D01*
X82647834Y-75018258D01*
X82567347Y-75050702D01*
X82504853Y-75112018D01*
X82431639Y-75160028D01*
X82382806Y-75231763D01*
X82320863Y-75292538D01*
X82286590Y-75373102D01*
X82237323Y-75445475D01*
X82219659Y-75530437D01*
X82185688Y-75610291D01*
X81305490Y-79825255D01*
X81165162Y-80163201D01*
X81164838Y-80535167D01*
X81306883Y-80878943D01*
X81569673Y-81142192D01*
X81913201Y-81284838D01*
X82285167Y-81285162D01*
X82628943Y-81143117D01*
X82892192Y-80880327D01*
X83034838Y-80536799D01*
X83035130Y-80201362D01*
X83769977Y-76682435D01*
X88925355Y-76726967D01*
X88929181Y-76726240D01*
X88933000Y-76727000D01*
X89098659Y-76694048D01*
X89264600Y-76662528D01*
X89267856Y-76660393D01*
X89271675Y-76659633D01*
X89412115Y-76565795D01*
X89553361Y-76473172D01*
X89555552Y-76469954D01*
X89558790Y-76467790D01*
X89652638Y-76327335D01*
X89747677Y-76187725D01*
X89748470Y-76183913D01*
X89750633Y-76180675D01*
X89783587Y-76015007D01*
X89817967Y-75849644D01*
X89817240Y-75845819D01*
X89818000Y-75842000D01*
X89818000Y-73711180D01*
X90852579Y-72676600D01*
X91999020Y-72676600D01*
X93280000Y-73957579D01*
X93280000Y-74373032D01*
X93386340Y-74907641D01*
X93689172Y-75360860D01*
X94142391Y-75663692D01*
X94677000Y-75770032D01*
X95211609Y-75663692D01*
X95664828Y-75360860D01*
X95947000Y-74938561D01*
X96229172Y-75360860D01*
X96332000Y-75429568D01*
X96332000Y-75692221D01*
X93309220Y-78715000D01*
X91744171Y-78715000D01*
X91413923Y-78384176D01*
X90886691Y-78165250D01*
X90315813Y-78164752D01*
X89788200Y-78382757D01*
X89384176Y-78786077D01*
X89204328Y-79219199D01*
X89143117Y-79071057D01*
X88880327Y-78807808D01*
X88536799Y-78665162D01*
X88164833Y-78664838D01*
X87821057Y-78806883D01*
X87557808Y-79069673D01*
X87415162Y-79413201D01*
X87414838Y-79785167D01*
X87465000Y-79906569D01*
X87465000Y-82239158D01*
X87286799Y-82165162D01*
X86914833Y-82164838D01*
X86793431Y-82215000D01*
X83100005Y-82215000D01*
X83100000Y-82214999D01*
X82761326Y-82282366D01*
X82705492Y-82319673D01*
X82474210Y-82474210D01*
X82474208Y-82474213D01*
X81691165Y-83257256D01*
X81571057Y-83306883D01*
X81307808Y-83569673D01*
X81165162Y-83913201D01*
X81164838Y-84285167D01*
X81239143Y-84465000D01*
X80877662Y-84465000D01*
X81034750Y-84086691D01*
X81035248Y-83515813D01*
X80817243Y-82988200D01*
X80485000Y-82655377D01*
X80485000Y-76466580D01*
X81870356Y-75081223D01*
X81996077Y-75056215D01*
X82331856Y-74831856D01*
X86331853Y-70831858D01*
X86331856Y-70831856D01*
X86486776Y-70600000D01*
X86556215Y-70496078D01*
X86635001Y-70100000D01*
X86635000Y-70099995D01*
X86635000Y-55778712D01*
X91722048Y-50691663D01*
X91801083Y-50882943D01*
X91801083Y-50882943D01*
G37*
X91801083Y-50882943D02*
X92063873Y-51146192D01*
X92185186Y-51196566D01*
X93106200Y-52117579D01*
X93106200Y-53376595D01*
X93106199Y-53376600D01*
X93143675Y-53564999D01*
X93173567Y-53715275D01*
X93282926Y-53878943D01*
X93365410Y-54002390D01*
X96769008Y-57405987D01*
X96769010Y-57405990D01*
X96993839Y-57556215D01*
X97056125Y-57597833D01*
X97394800Y-57665201D01*
X97394805Y-57665200D01*
X98283220Y-57665200D01*
X96474210Y-59474210D01*
X96282367Y-59761325D01*
X96274913Y-59798801D01*
X96214999Y-60100000D01*
X96215000Y-60100005D01*
X96215000Y-62630527D01*
X96085302Y-62717189D01*
X95774233Y-63182736D01*
X95665000Y-63731887D01*
X95665000Y-63788113D01*
X95705517Y-63991805D01*
X94135000Y-62421288D01*
X94135000Y-57850005D01*
X94135001Y-57850000D01*
X94056215Y-57453923D01*
X94021494Y-57401959D01*
X93831856Y-57118144D01*
X93831853Y-57118142D01*
X90581856Y-53868144D01*
X90246077Y-53643785D01*
X89850000Y-53564999D01*
X89453923Y-53643785D01*
X89118144Y-53868144D01*
X88893785Y-54203923D01*
X88814999Y-54600000D01*
X88893785Y-54996077D01*
X89118144Y-55331856D01*
X92065000Y-58278711D01*
X92065000Y-62849995D01*
X92064999Y-62850000D01*
X92143785Y-63246077D01*
X92368144Y-63581856D01*
X97065000Y-68278711D01*
X97065000Y-70723842D01*
X96858327Y-70516808D01*
X96514799Y-70374162D01*
X96142833Y-70373838D01*
X95799057Y-70515883D01*
X95562000Y-70752527D01*
X95562000Y-69677005D01*
X95562001Y-69677000D01*
X95494634Y-69338326D01*
X95380581Y-69167633D01*
X95302790Y-69051210D01*
X95302787Y-69051208D01*
X94347440Y-68095861D01*
X94347440Y-66500000D01*
X94303162Y-66264683D01*
X94164090Y-66048559D01*
X93951890Y-65903569D01*
X93700000Y-65852560D01*
X91500000Y-65852560D01*
X91264683Y-65896838D01*
X91048559Y-66035910D01*
X90903569Y-66248110D01*
X90852560Y-66500000D01*
X90852560Y-68700000D01*
X90896838Y-68935317D01*
X91035910Y-69151441D01*
X91248110Y-69296431D01*
X91500000Y-69347440D01*
X93095861Y-69347440D01*
X93792000Y-70043579D01*
X93792000Y-71966420D01*
X92991390Y-71165810D01*
X92945279Y-71135000D01*
X92704275Y-70973967D01*
X92647180Y-70962610D01*
X92365600Y-70906599D01*
X92365595Y-70906600D01*
X90486005Y-70906600D01*
X90486000Y-70906599D01*
X90204420Y-70962610D01*
X90147325Y-70973967D01*
X89860210Y-71165810D01*
X89860208Y-71165813D01*
X88307210Y-72718810D01*
X88115367Y-73005925D01*
X88115367Y-73005926D01*
X88047999Y-73344600D01*
X88048000Y-73344605D01*
X88048000Y-74949322D01*
X83059644Y-74906233D01*
X82974389Y-74922427D01*
X82887615Y-74921601D01*
X82806412Y-74954334D01*
X82720400Y-74970672D01*
X82647834Y-75018258D01*
X82567347Y-75050702D01*
X82504853Y-75112018D01*
X82431639Y-75160028D01*
X82382806Y-75231763D01*
X82320863Y-75292538D01*
X82286590Y-75373102D01*
X82237323Y-75445475D01*
X82219659Y-75530437D01*
X82185688Y-75610291D01*
X81305490Y-79825255D01*
X81165162Y-80163201D01*
X81164838Y-80535167D01*
X81306883Y-80878943D01*
X81569673Y-81142192D01*
X81913201Y-81284838D01*
X82285167Y-81285162D01*
X82628943Y-81143117D01*
X82892192Y-80880327D01*
X83034838Y-80536799D01*
X83035130Y-80201362D01*
X83769977Y-76682435D01*
X88925355Y-76726967D01*
X88929181Y-76726240D01*
X88933000Y-76727000D01*
X89098659Y-76694048D01*
X89264600Y-76662528D01*
X89267856Y-76660393D01*
X89271675Y-76659633D01*
X89412115Y-76565795D01*
X89553361Y-76473172D01*
X89555552Y-76469954D01*
X89558790Y-76467790D01*
X89652638Y-76327335D01*
X89747677Y-76187725D01*
X89748470Y-76183913D01*
X89750633Y-76180675D01*
X89783587Y-76015007D01*
X89817967Y-75849644D01*
X89817240Y-75845819D01*
X89818000Y-75842000D01*
X89818000Y-73711180D01*
X90852579Y-72676600D01*
X91999020Y-72676600D01*
X93280000Y-73957579D01*
X93280000Y-74373032D01*
X93386340Y-74907641D01*
X93689172Y-75360860D01*
X94142391Y-75663692D01*
X94677000Y-75770032D01*
X95211609Y-75663692D01*
X95664828Y-75360860D01*
X95947000Y-74938561D01*
X96229172Y-75360860D01*
X96332000Y-75429568D01*
X96332000Y-75692221D01*
X93309220Y-78715000D01*
X91744171Y-78715000D01*
X91413923Y-78384176D01*
X90886691Y-78165250D01*
X90315813Y-78164752D01*
X89788200Y-78382757D01*
X89384176Y-78786077D01*
X89204328Y-79219199D01*
X89143117Y-79071057D01*
X88880327Y-78807808D01*
X88536799Y-78665162D01*
X88164833Y-78664838D01*
X87821057Y-78806883D01*
X87557808Y-79069673D01*
X87415162Y-79413201D01*
X87414838Y-79785167D01*
X87465000Y-79906569D01*
X87465000Y-82239158D01*
X87286799Y-82165162D01*
X86914833Y-82164838D01*
X86793431Y-82215000D01*
X83100005Y-82215000D01*
X83100000Y-82214999D01*
X82761326Y-82282366D01*
X82705492Y-82319673D01*
X82474210Y-82474210D01*
X82474208Y-82474213D01*
X81691165Y-83257256D01*
X81571057Y-83306883D01*
X81307808Y-83569673D01*
X81165162Y-83913201D01*
X81164838Y-84285167D01*
X81239143Y-84465000D01*
X80877662Y-84465000D01*
X81034750Y-84086691D01*
X81035248Y-83515813D01*
X80817243Y-82988200D01*
X80485000Y-82655377D01*
X80485000Y-76466580D01*
X81870356Y-75081223D01*
X81996077Y-75056215D01*
X82331856Y-74831856D01*
X86331853Y-70831858D01*
X86331856Y-70831856D01*
X86486776Y-70600000D01*
X86556215Y-70496078D01*
X86635001Y-70100000D01*
X86635000Y-70099995D01*
X86635000Y-55778712D01*
X91722048Y-50691663D01*
X91801083Y-50882943D01*
G36*
X106825000Y-47788711D02*
X106825000Y-49901271D01*
X106496666Y-50120657D01*
X106196436Y-50569983D01*
X106091009Y-51100000D01*
X106196436Y-51630017D01*
X106496666Y-52079343D01*
X106945992Y-52379573D01*
X107476009Y-52485000D01*
X108243991Y-52485000D01*
X108774008Y-52379573D01*
X109223334Y-52079343D01*
X109523564Y-51630017D01*
X109628991Y-51100000D01*
X109523564Y-50569983D01*
X109223334Y-50120657D01*
X108895000Y-49901271D01*
X108895000Y-49146580D01*
X112007255Y-52258834D01*
X112056883Y-52378943D01*
X112319673Y-52642192D01*
X112663201Y-52784838D01*
X113035167Y-52785162D01*
X113365000Y-52648878D01*
X113365000Y-59184132D01*
X112310434Y-58129566D01*
X112205438Y-58059410D01*
X112039541Y-57948561D01*
X111720000Y-57885000D01*
X109319781Y-57885000D01*
X109223334Y-57740657D01*
X108788335Y-57450000D01*
X109223334Y-57159343D01*
X109523564Y-56710017D01*
X109628991Y-56180000D01*
X109523564Y-55649983D01*
X109223334Y-55200657D01*
X108774008Y-54900427D01*
X108243991Y-54795000D01*
X107476009Y-54795000D01*
X106945992Y-54900427D01*
X106496666Y-55200657D01*
X106196436Y-55649983D01*
X106091009Y-56180000D01*
X106196436Y-56710017D01*
X106496666Y-57159343D01*
X106931665Y-57450000D01*
X106496666Y-57740657D01*
X106433628Y-57835000D01*
X102980005Y-57835000D01*
X102980000Y-57834999D01*
X102728634Y-57885000D01*
X102641325Y-57902367D01*
X102354210Y-58094210D01*
X102354208Y-58094213D01*
X101743220Y-58705200D01*
X101591107Y-58705200D01*
X101565233Y-58575125D01*
X101373389Y-58288010D01*
X101361745Y-58276366D01*
X101312117Y-58156257D01*
X101049327Y-57893008D01*
X100705799Y-57750362D01*
X100701222Y-57750358D01*
X104975787Y-53475792D01*
X104975790Y-53475790D01*
X105167633Y-53188675D01*
X105235000Y-52850000D01*
X105235000Y-49716580D01*
X105916521Y-49035059D01*
X106035167Y-49035162D01*
X106378943Y-48893117D01*
X106642192Y-48630327D01*
X106784838Y-48286799D01*
X106785162Y-47914833D01*
X106668305Y-47632016D01*
X106825000Y-47788711D01*
X106825000Y-47788711D01*
G37*
X106825000Y-47788711D02*
X106825000Y-49901271D01*
X106496666Y-50120657D01*
X106196436Y-50569983D01*
X106091009Y-51100000D01*
X106196436Y-51630017D01*
X106496666Y-52079343D01*
X106945992Y-52379573D01*
X107476009Y-52485000D01*
X108243991Y-52485000D01*
X108774008Y-52379573D01*
X109223334Y-52079343D01*
X109523564Y-51630017D01*
X109628991Y-51100000D01*
X109523564Y-50569983D01*
X109223334Y-50120657D01*
X108895000Y-49901271D01*
X108895000Y-49146580D01*
X112007255Y-52258834D01*
X112056883Y-52378943D01*
X112319673Y-52642192D01*
X112663201Y-52784838D01*
X113035167Y-52785162D01*
X113365000Y-52648878D01*
X113365000Y-59184132D01*
X112310434Y-58129566D01*
X112205438Y-58059410D01*
X112039541Y-57948561D01*
X111720000Y-57885000D01*
X109319781Y-57885000D01*
X109223334Y-57740657D01*
X108788335Y-57450000D01*
X109223334Y-57159343D01*
X109523564Y-56710017D01*
X109628991Y-56180000D01*
X109523564Y-55649983D01*
X109223334Y-55200657D01*
X108774008Y-54900427D01*
X108243991Y-54795000D01*
X107476009Y-54795000D01*
X106945992Y-54900427D01*
X106496666Y-55200657D01*
X106196436Y-55649983D01*
X106091009Y-56180000D01*
X106196436Y-56710017D01*
X106496666Y-57159343D01*
X106931665Y-57450000D01*
X106496666Y-57740657D01*
X106433628Y-57835000D01*
X102980005Y-57835000D01*
X102980000Y-57834999D01*
X102728634Y-57885000D01*
X102641325Y-57902367D01*
X102354210Y-58094210D01*
X102354208Y-58094213D01*
X101743220Y-58705200D01*
X101591107Y-58705200D01*
X101565233Y-58575125D01*
X101373389Y-58288010D01*
X101361745Y-58276366D01*
X101312117Y-58156257D01*
X101049327Y-57893008D01*
X100705799Y-57750362D01*
X100701222Y-57750358D01*
X104975787Y-53475792D01*
X104975790Y-53475790D01*
X105167633Y-53188675D01*
X105235000Y-52850000D01*
X105235000Y-49716580D01*
X105916521Y-49035059D01*
X106035167Y-49035162D01*
X106378943Y-48893117D01*
X106642192Y-48630327D01*
X106784838Y-48286799D01*
X106785162Y-47914833D01*
X106668305Y-47632016D01*
X106825000Y-47788711D01*
G36*
X106318370Y-47282081D02*
X106036799Y-47165162D01*
X105664833Y-47164838D01*
X105490922Y-47236697D01*
X105348634Y-47265000D01*
X105261325Y-47282367D01*
X104974210Y-47474210D01*
X104974208Y-47474213D01*
X103724210Y-48724210D01*
X103532367Y-49011325D01*
X103532367Y-49011326D01*
X103464999Y-49350000D01*
X103465000Y-49350005D01*
X103465000Y-52483421D01*
X99581789Y-56366632D01*
X99534117Y-56251257D01*
X99271327Y-55988008D01*
X98927799Y-55845362D01*
X98555833Y-55845038D01*
X98434431Y-55895200D01*
X97761379Y-55895200D01*
X96901006Y-55034827D01*
X97384187Y-55035248D01*
X97911800Y-54817243D01*
X98315824Y-54413923D01*
X98534750Y-53886691D01*
X98535248Y-53315813D01*
X98317243Y-52788200D01*
X97985000Y-52455377D01*
X97985000Y-51013440D01*
X98116000Y-51013440D01*
X98351317Y-50969162D01*
X98567441Y-50830090D01*
X98712431Y-50617890D01*
X98763440Y-50366000D01*
X98763440Y-48334000D01*
X98719162Y-48098683D01*
X98580090Y-47882559D01*
X98367890Y-47737569D01*
X98116000Y-47686560D01*
X97727151Y-47686560D01*
X97871853Y-47541858D01*
X97871856Y-47541856D01*
X98096215Y-47206077D01*
X98127221Y-47050200D01*
X98175001Y-46810000D01*
X98175000Y-46809995D01*
X98175000Y-46360899D01*
X98199670Y-46344415D01*
X98524526Y-45858234D01*
X98638600Y-45284745D01*
X98638600Y-44915255D01*
X98524526Y-44341766D01*
X98199670Y-43855585D01*
X97713489Y-43530729D01*
X97140000Y-43416655D01*
X96566511Y-43530729D01*
X96080330Y-43855585D01*
X96070757Y-43869913D01*
X96066762Y-43848683D01*
X95927690Y-43632559D01*
X95715490Y-43487569D01*
X95463600Y-43436560D01*
X93736400Y-43436560D01*
X93501083Y-43480838D01*
X93284959Y-43619910D01*
X93139969Y-43832110D01*
X93088960Y-44084000D01*
X93088960Y-44215000D01*
X91980800Y-44215000D01*
X91642125Y-44282367D01*
X91355010Y-44474210D01*
X91355008Y-44474213D01*
X89911010Y-45918210D01*
X89719167Y-46205325D01*
X89719167Y-46205326D01*
X89651799Y-46544000D01*
X89651800Y-46544005D01*
X89651800Y-48243778D01*
X89601962Y-48363801D01*
X89601638Y-48735767D01*
X89743683Y-49079543D01*
X90006473Y-49342792D01*
X90103293Y-49382995D01*
X87796662Y-51689626D01*
X87581856Y-51368144D01*
X87246077Y-51143785D01*
X87073086Y-51109375D01*
X82331856Y-46368144D01*
X81996077Y-46143785D01*
X81600000Y-46064999D01*
X81203923Y-46143785D01*
X81135000Y-46189838D01*
X81135000Y-43600000D01*
X81134680Y-43598391D01*
X82118142Y-44581853D01*
X82118144Y-44581856D01*
X82278011Y-44688675D01*
X82453922Y-44806215D01*
X82850000Y-44885000D01*
X89099995Y-44885000D01*
X89100000Y-44885001D01*
X89496077Y-44806215D01*
X89831856Y-44581856D01*
X91028711Y-43385000D01*
X102421288Y-43385000D01*
X106318370Y-47282081D01*
X106318370Y-47282081D01*
G37*
X106318370Y-47282081D02*
X106036799Y-47165162D01*
X105664833Y-47164838D01*
X105490922Y-47236697D01*
X105348634Y-47265000D01*
X105261325Y-47282367D01*
X104974210Y-47474210D01*
X104974208Y-47474213D01*
X103724210Y-48724210D01*
X103532367Y-49011325D01*
X103532367Y-49011326D01*
X103464999Y-49350000D01*
X103465000Y-49350005D01*
X103465000Y-52483421D01*
X99581789Y-56366632D01*
X99534117Y-56251257D01*
X99271327Y-55988008D01*
X98927799Y-55845362D01*
X98555833Y-55845038D01*
X98434431Y-55895200D01*
X97761379Y-55895200D01*
X96901006Y-55034827D01*
X97384187Y-55035248D01*
X97911800Y-54817243D01*
X98315824Y-54413923D01*
X98534750Y-53886691D01*
X98535248Y-53315813D01*
X98317243Y-52788200D01*
X97985000Y-52455377D01*
X97985000Y-51013440D01*
X98116000Y-51013440D01*
X98351317Y-50969162D01*
X98567441Y-50830090D01*
X98712431Y-50617890D01*
X98763440Y-50366000D01*
X98763440Y-48334000D01*
X98719162Y-48098683D01*
X98580090Y-47882559D01*
X98367890Y-47737569D01*
X98116000Y-47686560D01*
X97727151Y-47686560D01*
X97871853Y-47541858D01*
X97871856Y-47541856D01*
X98096215Y-47206077D01*
X98127221Y-47050200D01*
X98175001Y-46810000D01*
X98175000Y-46809995D01*
X98175000Y-46360899D01*
X98199670Y-46344415D01*
X98524526Y-45858234D01*
X98638600Y-45284745D01*
X98638600Y-44915255D01*
X98524526Y-44341766D01*
X98199670Y-43855585D01*
X97713489Y-43530729D01*
X97140000Y-43416655D01*
X96566511Y-43530729D01*
X96080330Y-43855585D01*
X96070757Y-43869913D01*
X96066762Y-43848683D01*
X95927690Y-43632559D01*
X95715490Y-43487569D01*
X95463600Y-43436560D01*
X93736400Y-43436560D01*
X93501083Y-43480838D01*
X93284959Y-43619910D01*
X93139969Y-43832110D01*
X93088960Y-44084000D01*
X93088960Y-44215000D01*
X91980800Y-44215000D01*
X91642125Y-44282367D01*
X91355010Y-44474210D01*
X91355008Y-44474213D01*
X89911010Y-45918210D01*
X89719167Y-46205325D01*
X89719167Y-46205326D01*
X89651799Y-46544000D01*
X89651800Y-46544005D01*
X89651800Y-48243778D01*
X89601962Y-48363801D01*
X89601638Y-48735767D01*
X89743683Y-49079543D01*
X90006473Y-49342792D01*
X90103293Y-49382995D01*
X87796662Y-51689626D01*
X87581856Y-51368144D01*
X87246077Y-51143785D01*
X87073086Y-51109375D01*
X82331856Y-46368144D01*
X81996077Y-46143785D01*
X81600000Y-46064999D01*
X81203923Y-46143785D01*
X81135000Y-46189838D01*
X81135000Y-43600000D01*
X81134680Y-43598391D01*
X82118142Y-44581853D01*
X82118144Y-44581856D01*
X82278011Y-44688675D01*
X82453922Y-44806215D01*
X82850000Y-44885000D01*
X89099995Y-44885000D01*
X89100000Y-44885001D01*
X89496077Y-44806215D01*
X89831856Y-44581856D01*
X91028711Y-43385000D01*
X102421288Y-43385000D01*
X106318370Y-47282081D01*
G36*
X79065000Y-44028711D02*
X79065000Y-46189838D01*
X78996077Y-46143785D01*
X78600000Y-46065000D01*
X76386369Y-46065000D01*
X76524526Y-45858234D01*
X76638600Y-45284745D01*
X76638600Y-44915255D01*
X76524526Y-44341766D01*
X76199670Y-43855585D01*
X76175000Y-43839101D01*
X76175000Y-43135000D01*
X78171288Y-43135000D01*
X79065000Y-44028711D01*
X79065000Y-44028711D01*
G37*
X79065000Y-44028711D02*
X79065000Y-46189838D01*
X78996077Y-46143785D01*
X78600000Y-46065000D01*
X76386369Y-46065000D01*
X76524526Y-45858234D01*
X76638600Y-45284745D01*
X76638600Y-44915255D01*
X76524526Y-44341766D01*
X76199670Y-43855585D01*
X76175000Y-43839101D01*
X76175000Y-43135000D01*
X78171288Y-43135000D01*
X79065000Y-44028711D01*
M02*
