G04 #@! TF.FileFunction,Soldermask,Bot*
%FSLAX46Y46*%
G04 Gerber Fmt 4.6, Leading zero omitted, Abs format (unit mm)*
G04 Created by KiCad (PCBNEW 4.0.7) date Saturday, 20 '20e' October '20e' 2018 20:36:37*
%MOMM*%
%LPD*%
G01*
G04 APERTURE LIST*
%ADD10C,0.500000*%
%ADD11R,2.800000X1.800000*%
%ADD12O,2.800000X1.800000*%
%ADD13C,3.600000*%
%ADD14C,2.000000*%
%ADD15R,2.000000X2.000000*%
%ADD16R,2.400000X2.300000*%
%ADD17C,2.300000*%
%ADD18R,2.400000X2.400000*%
%ADD19C,2.400000*%
%ADD20R,2.432000X2.127200*%
%ADD21O,2.432000X2.127200*%
%ADD22O,2.000000X2.000000*%
%ADD23C,2.200000*%
%ADD24C,4.400000*%
%ADD25C,2.100000*%
G04 APERTURE END LIST*
D10*
D11*
X109150000Y-83300000D03*
D12*
X116770000Y-111240000D03*
X109150000Y-85840000D03*
X116770000Y-108700000D03*
X109150000Y-88380000D03*
X116770000Y-106160000D03*
X109150000Y-90920000D03*
X116770000Y-103620000D03*
X109150000Y-93460000D03*
X116770000Y-101080000D03*
X109150000Y-96000000D03*
X116770000Y-98540000D03*
X109150000Y-98540000D03*
X116770000Y-96000000D03*
X109150000Y-101080000D03*
X116770000Y-93460000D03*
X109150000Y-103620000D03*
X116770000Y-90920000D03*
X109150000Y-106160000D03*
X116770000Y-88380000D03*
X109150000Y-108700000D03*
X116770000Y-85840000D03*
X109150000Y-111240000D03*
X116770000Y-83300000D03*
D11*
X48100000Y-94300000D03*
D12*
X55720000Y-112080000D03*
X48100000Y-96840000D03*
X55720000Y-109540000D03*
X48100000Y-99380000D03*
X55720000Y-107000000D03*
X48100000Y-101920000D03*
X55720000Y-104460000D03*
X48100000Y-104460000D03*
X55720000Y-101920000D03*
X48100000Y-107000000D03*
X55720000Y-99380000D03*
X48100000Y-109540000D03*
X55720000Y-96840000D03*
X48100000Y-112080000D03*
X55720000Y-94300000D03*
D13*
X33250000Y-112250000D03*
X83750000Y-112250000D03*
X134250000Y-112250000D03*
X134250000Y-62250000D03*
X83750000Y-62250000D03*
D14*
X112950000Y-99100000D03*
X112950000Y-104100000D03*
D15*
X114150000Y-94700000D03*
D14*
X111650000Y-94700000D03*
D16*
X45000000Y-63650000D03*
D17*
X45000000Y-61110000D03*
D18*
X53200000Y-70650000D03*
D19*
X50660000Y-70650000D03*
D18*
X53250000Y-75550000D03*
D19*
X50710000Y-75550000D03*
D18*
X53250000Y-80550000D03*
D19*
X50710000Y-80550000D03*
D18*
X53250000Y-85550000D03*
D19*
X50710000Y-85550000D03*
D18*
X124700000Y-83700000D03*
D19*
X124700000Y-81160000D03*
D16*
X64200000Y-73800000D03*
D17*
X64200000Y-71260000D03*
D16*
X64100000Y-83800000D03*
D17*
X64100000Y-81260000D03*
D16*
X64100000Y-93800000D03*
D17*
X64100000Y-91260000D03*
D16*
X76100000Y-73800000D03*
D17*
X76100000Y-71260000D03*
D16*
X76100000Y-83800000D03*
D17*
X76100000Y-81260000D03*
D16*
X76100000Y-93800000D03*
D17*
X76100000Y-91260000D03*
D16*
X88200000Y-73800000D03*
D17*
X88200000Y-71260000D03*
D16*
X88100000Y-83800000D03*
D17*
X88100000Y-81260000D03*
D16*
X88100000Y-93800000D03*
D17*
X88100000Y-91260000D03*
D16*
X100200000Y-73800000D03*
D17*
X100200000Y-71260000D03*
D16*
X100100000Y-83800000D03*
D17*
X100100000Y-81260000D03*
D16*
X100100000Y-93800000D03*
D17*
X100100000Y-91260000D03*
D16*
X112000000Y-73700000D03*
D17*
X112000000Y-71160000D03*
D20*
X31200000Y-87250000D03*
D21*
X31200000Y-89790000D03*
X31200000Y-92330000D03*
X31200000Y-94870000D03*
X31200000Y-97410000D03*
X31200000Y-99950000D03*
D20*
X136250000Y-87250000D03*
D21*
X136250000Y-89790000D03*
X136250000Y-92330000D03*
X136250000Y-94870000D03*
X136250000Y-97410000D03*
X136250000Y-99950000D03*
D14*
X34900000Y-78050000D03*
D22*
X45060000Y-78050000D03*
D14*
X35150000Y-88650000D03*
D22*
X45310000Y-88650000D03*
D14*
X34550000Y-96100000D03*
D22*
X44710000Y-96100000D03*
D14*
X69950000Y-107350000D03*
D22*
X69950000Y-97190000D03*
D14*
X34950000Y-67900000D03*
D22*
X45110000Y-67900000D03*
D14*
X82150000Y-107500000D03*
D22*
X82150000Y-97340000D03*
D14*
X129700000Y-87300000D03*
D22*
X119540000Y-87300000D03*
D14*
X94150000Y-107550000D03*
D22*
X94150000Y-97390000D03*
D14*
X106150000Y-107550000D03*
D22*
X106150000Y-97390000D03*
D14*
X132750000Y-98700000D03*
D22*
X132750000Y-88540000D03*
D14*
X119950000Y-97500000D03*
D22*
X130110000Y-97500000D03*
D14*
X132950000Y-74300000D03*
D22*
X132950000Y-84460000D03*
D14*
X107000000Y-77300000D03*
D22*
X117160000Y-77300000D03*
D23*
X122100000Y-77300000D03*
X124600000Y-77300000D03*
X127100000Y-77300000D03*
D24*
X120200000Y-70300000D03*
X129000000Y-70300000D03*
D25*
X43100000Y-75050000D03*
X37100000Y-75050000D03*
X43100000Y-71050000D03*
X37100000Y-71050000D03*
X43100000Y-85050000D03*
X37100000Y-85050000D03*
X43100000Y-81050000D03*
X37100000Y-81050000D03*
X43150000Y-104300000D03*
X37150000Y-104300000D03*
X43150000Y-100300000D03*
X37150000Y-100300000D03*
X67150000Y-104300000D03*
X61150000Y-104300000D03*
X67150000Y-100300000D03*
X61150000Y-100300000D03*
X79150000Y-104300000D03*
X73150000Y-104300000D03*
X79150000Y-100300000D03*
X73150000Y-100300000D03*
X127550000Y-94700000D03*
X121550000Y-94700000D03*
X127550000Y-90700000D03*
X121550000Y-90700000D03*
X91100000Y-104300000D03*
X85100000Y-104300000D03*
X91100000Y-100300000D03*
X85100000Y-100300000D03*
X103100000Y-104300000D03*
X97100000Y-104300000D03*
X103100000Y-100300000D03*
X97100000Y-100300000D03*
X127550000Y-104300000D03*
X121550000Y-104300000D03*
X127550000Y-100300000D03*
X121550000Y-100300000D03*
D13*
X33250000Y-62250000D03*
M02*
