G04 #@! TF.FileFunction,Copper,L1,Top,Signal*
%FSLAX46Y46*%
G04 Gerber Fmt 4.6, Leading zero omitted, Abs format (unit mm)*
G04 Created by KiCad (PCBNEW 4.0.7) date Saturday, 20 '20e' October '20e' 2018 20:36:37*
%MOMM*%
%LPD*%
G01*
G04 APERTURE LIST*
%ADD10C,0.500000*%
%ADD11R,2.400000X1.400000*%
%ADD12O,2.400000X1.400000*%
%ADD13C,1.600000*%
%ADD14R,1.600000X1.600000*%
%ADD15R,2.000000X1.900000*%
%ADD16C,1.900000*%
%ADD17R,2.000000X2.000000*%
%ADD18C,2.000000*%
%ADD19R,2.032000X1.727200*%
%ADD20O,2.032000X1.727200*%
%ADD21O,1.600000X1.600000*%
%ADD22C,1.800000*%
%ADD23C,4.000000*%
%ADD24C,1.700000*%
%ADD25C,0.600000*%
%ADD26C,0.400000*%
%ADD27C,0.250000*%
G04 APERTURE END LIST*
D10*
D11*
X109150000Y-83300000D03*
D12*
X116770000Y-111240000D03*
X109150000Y-85840000D03*
X116770000Y-108700000D03*
X109150000Y-88380000D03*
X116770000Y-106160000D03*
X109150000Y-90920000D03*
X116770000Y-103620000D03*
X109150000Y-93460000D03*
X116770000Y-101080000D03*
X109150000Y-96000000D03*
X116770000Y-98540000D03*
X109150000Y-98540000D03*
X116770000Y-96000000D03*
X109150000Y-101080000D03*
X116770000Y-93460000D03*
X109150000Y-103620000D03*
X116770000Y-90920000D03*
X109150000Y-106160000D03*
X116770000Y-88380000D03*
X109150000Y-108700000D03*
X116770000Y-85840000D03*
X109150000Y-111240000D03*
X116770000Y-83300000D03*
D11*
X48100000Y-94300000D03*
D12*
X55720000Y-112080000D03*
X48100000Y-96840000D03*
X55720000Y-109540000D03*
X48100000Y-99380000D03*
X55720000Y-107000000D03*
X48100000Y-101920000D03*
X55720000Y-104460000D03*
X48100000Y-104460000D03*
X55720000Y-101920000D03*
X48100000Y-107000000D03*
X55720000Y-99380000D03*
X48100000Y-109540000D03*
X55720000Y-96840000D03*
X48100000Y-112080000D03*
X55720000Y-94300000D03*
D13*
X112950000Y-99100000D03*
X112950000Y-104100000D03*
D14*
X114150000Y-94700000D03*
D13*
X111650000Y-94700000D03*
D15*
X45000000Y-63650000D03*
D16*
X45000000Y-61110000D03*
D17*
X53200000Y-70650000D03*
D18*
X50660000Y-70650000D03*
D17*
X53250000Y-75550000D03*
D18*
X50710000Y-75550000D03*
D17*
X53250000Y-80550000D03*
D18*
X50710000Y-80550000D03*
D17*
X53250000Y-85550000D03*
D18*
X50710000Y-85550000D03*
D17*
X124700000Y-83700000D03*
D18*
X124700000Y-81160000D03*
D15*
X64200000Y-73800000D03*
D16*
X64200000Y-71260000D03*
D15*
X64100000Y-83800000D03*
D16*
X64100000Y-81260000D03*
D15*
X64100000Y-93800000D03*
D16*
X64100000Y-91260000D03*
D15*
X76100000Y-73800000D03*
D16*
X76100000Y-71260000D03*
D15*
X76100000Y-83800000D03*
D16*
X76100000Y-81260000D03*
D15*
X76100000Y-93800000D03*
D16*
X76100000Y-91260000D03*
D15*
X88200000Y-73800000D03*
D16*
X88200000Y-71260000D03*
D15*
X88100000Y-83800000D03*
D16*
X88100000Y-81260000D03*
D15*
X88100000Y-93800000D03*
D16*
X88100000Y-91260000D03*
D15*
X100200000Y-73800000D03*
D16*
X100200000Y-71260000D03*
D15*
X100100000Y-83800000D03*
D16*
X100100000Y-81260000D03*
D15*
X100100000Y-93800000D03*
D16*
X100100000Y-91260000D03*
D15*
X112000000Y-73700000D03*
D16*
X112000000Y-71160000D03*
D19*
X31200000Y-87250000D03*
D20*
X31200000Y-89790000D03*
X31200000Y-92330000D03*
X31200000Y-94870000D03*
X31200000Y-97410000D03*
X31200000Y-99950000D03*
D19*
X136250000Y-87250000D03*
D20*
X136250000Y-89790000D03*
X136250000Y-92330000D03*
X136250000Y-94870000D03*
X136250000Y-97410000D03*
X136250000Y-99950000D03*
D13*
X34900000Y-78050000D03*
D21*
X45060000Y-78050000D03*
D13*
X35150000Y-88650000D03*
D21*
X45310000Y-88650000D03*
D13*
X34550000Y-96100000D03*
D21*
X44710000Y-96100000D03*
D13*
X69950000Y-107350000D03*
D21*
X69950000Y-97190000D03*
D13*
X34950000Y-67900000D03*
D21*
X45110000Y-67900000D03*
D13*
X82150000Y-107500000D03*
D21*
X82150000Y-97340000D03*
D13*
X129700000Y-87300000D03*
D21*
X119540000Y-87300000D03*
D13*
X94150000Y-107550000D03*
D21*
X94150000Y-97390000D03*
D13*
X106150000Y-107550000D03*
D21*
X106150000Y-97390000D03*
D13*
X132750000Y-98700000D03*
D21*
X132750000Y-88540000D03*
D13*
X119950000Y-97500000D03*
D21*
X130110000Y-97500000D03*
D13*
X132950000Y-74300000D03*
D21*
X132950000Y-84460000D03*
D13*
X107000000Y-77300000D03*
D21*
X117160000Y-77300000D03*
D22*
X122100000Y-77300000D03*
X124600000Y-77300000D03*
X127100000Y-77300000D03*
D23*
X120200000Y-70300000D03*
X129000000Y-70300000D03*
D24*
X43100000Y-75050000D03*
X37100000Y-75050000D03*
X43100000Y-71050000D03*
X37100000Y-71050000D03*
X43100000Y-85050000D03*
X37100000Y-85050000D03*
X43100000Y-81050000D03*
X37100000Y-81050000D03*
X43150000Y-104300000D03*
X37150000Y-104300000D03*
X43150000Y-100300000D03*
X37150000Y-100300000D03*
X67150000Y-104300000D03*
X61150000Y-104300000D03*
X67150000Y-100300000D03*
X61150000Y-100300000D03*
X79150000Y-104300000D03*
X73150000Y-104300000D03*
X79150000Y-100300000D03*
X73150000Y-100300000D03*
X127550000Y-94700000D03*
X121550000Y-94700000D03*
X127550000Y-90700000D03*
X121550000Y-90700000D03*
X91100000Y-104300000D03*
X85100000Y-104300000D03*
X91100000Y-100300000D03*
X85100000Y-100300000D03*
X103100000Y-104300000D03*
X97100000Y-104300000D03*
X103100000Y-100300000D03*
X97100000Y-100300000D03*
X127550000Y-104300000D03*
X121550000Y-104300000D03*
X127550000Y-100300000D03*
X121550000Y-100300000D03*
D25*
X134000000Y-90750000D03*
X131750000Y-90750000D03*
X129750000Y-78250000D03*
X129750000Y-76000000D03*
X122000000Y-62500000D03*
X122000000Y-66000000D03*
X131250000Y-101750000D03*
X126750000Y-93000000D03*
X129750000Y-91750000D03*
X123500000Y-75250000D03*
X124000000Y-71500000D03*
X105750000Y-68000000D03*
X105750000Y-73250000D03*
X109250000Y-77500000D03*
X112000000Y-83250000D03*
X112750000Y-111750000D03*
X106000000Y-110750000D03*
X103750000Y-109500000D03*
X99250000Y-109500000D03*
X80000000Y-108250000D03*
X71750000Y-108000000D03*
X88500000Y-109000000D03*
X39500000Y-114250000D03*
X132250000Y-94000000D03*
X129500000Y-94000000D03*
X116250000Y-75000000D03*
X118250000Y-74000000D03*
X130750000Y-75000000D03*
X132250000Y-76500000D03*
X132500000Y-79250000D03*
X134000000Y-80500000D03*
X134750000Y-83500000D03*
X134500000Y-92750000D03*
X134250000Y-94500000D03*
X134250000Y-96500000D03*
X84750000Y-109750000D03*
X81250000Y-111000000D03*
X65000000Y-113250000D03*
X62500000Y-114500000D03*
X45000000Y-111000000D03*
X45000000Y-108250000D03*
X42000000Y-101750000D03*
X39500000Y-97000000D03*
X38250000Y-90750000D03*
X35750000Y-90750000D03*
X116750000Y-112750000D03*
X115750000Y-114500000D03*
X41000000Y-103750000D03*
X39750000Y-102500000D03*
X38750000Y-100000000D03*
X36250000Y-93000000D03*
X105750000Y-93250000D03*
X102750000Y-97500000D03*
X101500000Y-101500000D03*
X101500000Y-107750000D03*
X88500000Y-111500000D03*
X78500000Y-112750000D03*
X64000000Y-112250000D03*
X61750000Y-113750000D03*
X47500000Y-113750000D03*
X44500000Y-115000000D03*
X35000000Y-100750000D03*
X35000000Y-98000000D03*
X34000000Y-98000000D03*
X34000000Y-100750000D03*
X38500000Y-110500000D03*
X42250000Y-109750000D03*
X52250000Y-110750000D03*
X53500000Y-109500000D03*
X33000000Y-98250000D03*
X33000000Y-100750000D03*
X52750000Y-116000000D03*
X52000000Y-91250000D03*
X47000000Y-91250000D03*
X40500000Y-93250000D03*
X38250000Y-93250000D03*
X126500000Y-88750000D03*
X61150000Y-100300000D03*
X60250000Y-95750000D03*
X60250000Y-98000000D03*
X123000000Y-98750000D03*
X121250000Y-97000000D03*
X36000000Y-98250000D03*
X38000000Y-98250000D03*
X40750000Y-98250000D03*
X44000000Y-98250000D03*
X45500000Y-99500000D03*
X118750000Y-78000000D03*
X112000000Y-81250000D03*
X101000000Y-88500000D03*
X98750000Y-88500000D03*
X69250000Y-89500000D03*
X105750000Y-105500000D03*
X100500000Y-106000000D03*
X100500000Y-101500000D03*
X95250000Y-99000000D03*
X93000000Y-99000000D03*
X68000000Y-93000000D03*
X68000000Y-85500000D03*
X68000000Y-83000000D03*
X68000000Y-76000000D03*
X106250000Y-101500000D03*
X105000000Y-100000000D03*
X81000000Y-93000000D03*
X81000000Y-85000000D03*
X81000000Y-83000000D03*
X81000000Y-79500000D03*
X107000000Y-99000000D03*
X105250000Y-99000000D03*
X93500000Y-93000000D03*
X93500000Y-86000000D03*
X93500000Y-83000000D03*
X93500000Y-79000000D03*
X95250000Y-93000000D03*
X95250000Y-86000000D03*
X95250000Y-83000000D03*
X95250000Y-79000000D03*
X132250000Y-95500000D03*
X131500000Y-92250000D03*
X127750000Y-87750000D03*
X127750000Y-85000000D03*
X124750000Y-93250000D03*
X123250000Y-91750000D03*
X122250000Y-88500000D03*
X122250000Y-86000000D03*
X121250000Y-88500000D03*
X121250000Y-86000000D03*
X127750000Y-98500000D03*
X46500000Y-87250000D03*
X49000000Y-87250000D03*
X64500000Y-101500000D03*
X64500000Y-103750000D03*
D26*
X134000000Y-90750000D02*
X131750000Y-90750000D01*
X129750000Y-78250000D02*
X129750000Y-76000000D01*
X34550000Y-96100000D02*
X34550000Y-95300000D01*
X34550000Y-95300000D02*
X33750000Y-94500000D01*
X33750000Y-90050000D02*
X35150000Y-88650000D01*
X33750000Y-94500000D02*
X33750000Y-90050000D01*
X122000000Y-66000000D02*
X122000000Y-62500000D01*
X129700000Y-87300000D02*
X129700000Y-91700000D01*
X129000000Y-99500000D02*
X131250000Y-101750000D01*
X129000000Y-98250000D02*
X129000000Y-99500000D01*
X127250000Y-96500000D02*
X129000000Y-98250000D01*
X127000000Y-96500000D02*
X127250000Y-96500000D01*
X125250000Y-94750000D02*
X127000000Y-96500000D01*
X125250000Y-94500000D02*
X125250000Y-94750000D01*
X126750000Y-93000000D02*
X125250000Y-94500000D01*
X129700000Y-91700000D02*
X129750000Y-91750000D01*
X123500000Y-72000000D02*
X123500000Y-75250000D01*
X124000000Y-71500000D02*
X123500000Y-72000000D01*
X105750000Y-73250000D02*
X105750000Y-68000000D01*
X109250000Y-80500000D02*
X109250000Y-77500000D01*
X112000000Y-83250000D02*
X109250000Y-80500000D01*
X111000000Y-113500000D02*
X112750000Y-111750000D01*
X108750000Y-113500000D02*
X111000000Y-113500000D01*
X106000000Y-110750000D02*
X108750000Y-113500000D01*
X103750000Y-109500000D02*
X99250000Y-109500000D01*
X80000000Y-108250000D02*
X80500000Y-108250000D01*
X72000000Y-108250000D02*
X80000000Y-108250000D01*
X71750000Y-108000000D02*
X72000000Y-108250000D01*
X81250000Y-109000000D02*
X88500000Y-109000000D01*
X80500000Y-108250000D02*
X81250000Y-109000000D01*
X48100000Y-112080000D02*
X41670000Y-112080000D01*
X41670000Y-112080000D02*
X39500000Y-114250000D01*
X129500000Y-94000000D02*
X132250000Y-94000000D01*
X117250000Y-75000000D02*
X116250000Y-75000000D01*
X118250000Y-74000000D02*
X117250000Y-75000000D01*
X132250000Y-76500000D02*
X130750000Y-75000000D01*
X132750000Y-79250000D02*
X132500000Y-79250000D01*
X134000000Y-80500000D02*
X132750000Y-79250000D01*
X134750000Y-85250000D02*
X134750000Y-83500000D01*
X134000000Y-86000000D02*
X134750000Y-85250000D01*
X134000000Y-89500000D02*
X134000000Y-86000000D01*
X134750000Y-90250000D02*
X134000000Y-89500000D01*
X134750000Y-92500000D02*
X134750000Y-90250000D01*
X134500000Y-92750000D02*
X134750000Y-92500000D01*
X134250000Y-96500000D02*
X134250000Y-94500000D01*
X82500000Y-109750000D02*
X84750000Y-109750000D01*
X81250000Y-111000000D02*
X82500000Y-109750000D01*
X63750000Y-113250000D02*
X65000000Y-113250000D01*
X62500000Y-114500000D02*
X63750000Y-113250000D01*
X45000000Y-108250000D02*
X45000000Y-111000000D01*
X39500000Y-99250000D02*
X42000000Y-101750000D01*
X39500000Y-97000000D02*
X39500000Y-99250000D01*
X35750000Y-90750000D02*
X38250000Y-90750000D01*
X116750000Y-113500000D02*
X116750000Y-112750000D01*
X115750000Y-114500000D02*
X116750000Y-113500000D01*
X39750000Y-102500000D02*
X41000000Y-103750000D01*
X38750000Y-95500000D02*
X38750000Y-100000000D01*
X36250000Y-93000000D02*
X38750000Y-95500000D01*
X105750000Y-94500000D02*
X105750000Y-93250000D01*
X102750000Y-97500000D02*
X105750000Y-94500000D01*
X101500000Y-107750000D02*
X101500000Y-101500000D01*
X85000000Y-115000000D02*
X88500000Y-111500000D01*
X82250000Y-115000000D02*
X85000000Y-115000000D01*
X81500000Y-114250000D02*
X82250000Y-115000000D01*
X80000000Y-114250000D02*
X81500000Y-114250000D01*
X78500000Y-112750000D02*
X80000000Y-114250000D01*
X63250000Y-112250000D02*
X64000000Y-112250000D01*
X61750000Y-113750000D02*
X63250000Y-112250000D01*
X45750000Y-113750000D02*
X47500000Y-113750000D01*
X44500000Y-115000000D02*
X45750000Y-113750000D01*
X35000000Y-98000000D02*
X35000000Y-100750000D01*
X34000000Y-98000000D02*
X34000000Y-100750000D01*
X38500000Y-110500000D02*
X39250000Y-109750000D01*
X39250000Y-109750000D02*
X42250000Y-109750000D01*
X52250000Y-110750000D02*
X53500000Y-109500000D01*
X33000000Y-98250000D02*
X33000000Y-100750000D01*
X52750000Y-116000000D02*
X55720000Y-113030000D01*
X55720000Y-113030000D02*
X55720000Y-112080000D01*
X47000000Y-91250000D02*
X52000000Y-91250000D01*
X38250000Y-93250000D02*
X40500000Y-93250000D01*
D27*
X37100000Y-81050000D02*
X43100000Y-81050000D01*
X37100000Y-71050000D02*
X43100000Y-71050000D01*
D26*
X103100000Y-100300000D02*
X103100000Y-101100000D01*
X103100000Y-101100000D02*
X104250000Y-102250000D01*
X112950000Y-100300000D02*
X112950000Y-99100000D01*
X111000000Y-102250000D02*
X112950000Y-100300000D01*
X104250000Y-102250000D02*
X111000000Y-102250000D01*
X126500000Y-88750000D02*
X126500000Y-86500000D01*
X126500000Y-86500000D02*
X126750000Y-86250000D01*
X126750000Y-86250000D02*
X126750000Y-85000000D01*
X126750000Y-85000000D02*
X128250000Y-83500000D01*
X128250000Y-83500000D02*
X131990000Y-83500000D01*
X131990000Y-83500000D02*
X132950000Y-84460000D01*
X73150000Y-100300000D02*
X79150000Y-100300000D01*
X79150000Y-100300000D02*
X85100000Y-100300000D01*
X85100000Y-100300000D02*
X91100000Y-100300000D01*
X91100000Y-100300000D02*
X97100000Y-100300000D01*
X97100000Y-100300000D02*
X103100000Y-100300000D01*
X67150000Y-100300000D02*
X73150000Y-100300000D01*
X61150000Y-100300000D02*
X67150000Y-100300000D01*
X60250000Y-98000000D02*
X60250000Y-95750000D01*
X123000000Y-98750000D02*
X121250000Y-97000000D01*
X48100000Y-99380000D02*
X45620000Y-99380000D01*
X38000000Y-98250000D02*
X36000000Y-98250000D01*
X44000000Y-98250000D02*
X40750000Y-98250000D01*
X45620000Y-99380000D02*
X45500000Y-99500000D01*
X118750000Y-78000000D02*
X115500000Y-81250000D01*
X115500000Y-81250000D02*
X112000000Y-81250000D01*
X101000000Y-88500000D02*
X98750000Y-88500000D01*
X69250000Y-89500000D02*
X68250000Y-88500000D01*
X68250000Y-88500000D02*
X68000000Y-88500000D01*
X107750000Y-107300000D02*
X109150000Y-108700000D01*
X107750000Y-107000000D02*
X107750000Y-107300000D01*
X106750000Y-106000000D02*
X107750000Y-107000000D01*
X106250000Y-106000000D02*
X106750000Y-106000000D01*
X105750000Y-105500000D02*
X106250000Y-106000000D01*
X100500000Y-101500000D02*
X100500000Y-106000000D01*
X93000000Y-99000000D02*
X95250000Y-99000000D01*
X68000000Y-85500000D02*
X68000000Y-88500000D01*
X68000000Y-88500000D02*
X68000000Y-93000000D01*
X68000000Y-76000000D02*
X68000000Y-83000000D01*
X106250000Y-101250000D02*
X106250000Y-101500000D01*
X105000000Y-100000000D02*
X106250000Y-101250000D01*
X81000000Y-85000000D02*
X81000000Y-93000000D01*
X81000000Y-79500000D02*
X81000000Y-83000000D01*
X105250000Y-99000000D02*
X107000000Y-99000000D01*
X93500000Y-86000000D02*
X93500000Y-93000000D01*
X93500000Y-79000000D02*
X93500000Y-83000000D01*
X95250000Y-86000000D02*
X95250000Y-93000000D01*
X95250000Y-79000000D02*
X95250000Y-83000000D01*
X133000000Y-94750000D02*
X132250000Y-95500000D01*
X133000000Y-93750000D02*
X133000000Y-94750000D01*
X131500000Y-92250000D02*
X133000000Y-93750000D01*
X127750000Y-85000000D02*
X127750000Y-87750000D01*
X123250000Y-91750000D02*
X124750000Y-93250000D01*
X122250000Y-86000000D02*
X122250000Y-88500000D01*
X121250000Y-86000000D02*
X121250000Y-88500000D01*
X127750000Y-98500000D02*
X127500000Y-98250000D01*
X127500000Y-98250000D02*
X126000000Y-98250000D01*
X126000000Y-98250000D02*
X124500000Y-99750000D01*
X124500000Y-99750000D02*
X124500000Y-100500000D01*
X124500000Y-100500000D02*
X123250000Y-101750000D01*
X123250000Y-101750000D02*
X120500000Y-101750000D01*
X120500000Y-101750000D02*
X118250000Y-99500000D01*
X118250000Y-99500000D02*
X117730000Y-99500000D01*
X117730000Y-99500000D02*
X116770000Y-98540000D01*
X49000000Y-87250000D02*
X46500000Y-87250000D01*
X64500000Y-103750000D02*
X64500000Y-101500000D01*
M02*
