M48
;DRILL file {KiCad 4.0.7} date Saturday, 20 '20e' October '20e' 2018 20:34:57
;FORMAT={-:-/ absolute / metric / decimal}
FMAT,2
METRIC,TZ
T1C0.400
T2C0.800
T3C1.000
T4C1.001
T5C1.016
%
G90
G05
M71
T1
X33.Y-98.25
X33.Y-100.75
X34.Y-98.
X34.Y-100.75
X35.Y-98.
X35.Y-100.75
X35.75Y-90.75
X36.Y-98.25
X36.25Y-93.
X38.Y-98.25
X38.25Y-90.75
X38.25Y-93.25
X38.5Y-110.5
X38.75Y-100.
X39.5Y-97.
X39.5Y-114.25
X39.75Y-102.5
X40.5Y-93.25
X40.75Y-98.25
X41.Y-103.75
X42.Y-101.75
X42.25Y-109.75
X44.Y-98.25
X44.5Y-115.
X45.Y-108.25
X45.Y-111.
X45.5Y-99.5
X46.5Y-87.25
X47.Y-91.25
X47.5Y-113.75
X49.Y-87.25
X52.Y-91.25
X52.25Y-110.75
X52.75Y-116.
X53.5Y-109.5
X60.25Y-95.75
X60.25Y-98.
X61.15Y-100.3
X61.75Y-113.75
X62.5Y-114.5
X64.Y-112.25
X64.5Y-101.5
X64.5Y-103.75
X65.Y-113.25
X68.Y-76.
X68.Y-83.
X68.Y-85.5
X68.Y-93.
X69.25Y-89.5
X71.75Y-108.
X78.5Y-112.75
X80.Y-108.25
X81.Y-79.5
X81.Y-83.
X81.Y-85.
X81.Y-93.
X81.25Y-111.
X84.75Y-109.75
X88.5Y-109.
X88.5Y-111.5
X93.Y-99.
X93.5Y-79.
X93.5Y-83.
X93.5Y-86.
X93.5Y-93.
X95.25Y-79.
X95.25Y-83.
X95.25Y-86.
X95.25Y-93.
X95.25Y-99.
X98.75Y-88.5
X99.25Y-109.5
X100.5Y-101.5
X100.5Y-106.
X101.Y-88.5
X101.5Y-101.5
X101.5Y-107.75
X102.75Y-97.5
X103.75Y-109.5
X105.Y-100.
X105.25Y-99.
X105.75Y-68.
X105.75Y-73.25
X105.75Y-93.25
X105.75Y-105.5
X106.Y-110.75
X106.25Y-101.5
X107.Y-99.
X109.25Y-77.5
X112.Y-81.25
X112.Y-83.25
X112.75Y-111.75
X115.75Y-114.5
X116.25Y-75.
X116.75Y-112.75
X118.25Y-74.
X118.75Y-78.
X121.25Y-86.
X121.25Y-88.5
X121.25Y-97.
X122.Y-62.5
X122.Y-66.
X122.25Y-86.
X122.25Y-88.5
X123.Y-98.75
X123.25Y-91.75
X123.5Y-75.25
X124.Y-71.5
X124.75Y-93.25
X126.5Y-88.75
X126.75Y-93.
X127.75Y-85.
X127.75Y-87.75
X127.75Y-98.5
X129.5Y-94.
X129.75Y-76.
X129.75Y-78.25
X129.75Y-91.75
X130.75Y-75.
X131.25Y-101.75
X131.5Y-92.25
X131.75Y-90.75
X132.25Y-76.5
X132.25Y-94.
X132.25Y-95.5
X132.5Y-79.25
X134.Y-80.5
X134.Y-90.75
X134.25Y-94.5
X134.25Y-96.5
X134.5Y-92.75
X134.75Y-83.5
T2
X34.55Y-96.1
X34.9Y-78.05
X34.95Y-67.9
X35.15Y-88.65
X44.71Y-96.1
X45.06Y-78.05
X45.11Y-67.9
X45.31Y-88.65
X48.1Y-94.3
X48.1Y-96.84
X48.1Y-99.38
X48.1Y-101.92
X48.1Y-104.46
X48.1Y-107.
X48.1Y-109.54
X48.1Y-112.08
X55.72Y-94.3
X55.72Y-96.84
X55.72Y-99.38
X55.72Y-101.92
X55.72Y-104.46
X55.72Y-107.
X55.72Y-109.54
X55.72Y-112.08
X69.95Y-97.19
X69.95Y-107.35
X82.15Y-97.34
X82.15Y-107.5
X94.15Y-97.39
X94.15Y-107.55
X106.15Y-97.39
X106.15Y-107.55
X107.Y-77.3
X109.15Y-83.3
X109.15Y-85.84
X109.15Y-88.38
X109.15Y-90.92
X109.15Y-93.46
X109.15Y-96.
X109.15Y-98.54
X109.15Y-101.08
X109.15Y-103.62
X109.15Y-106.16
X109.15Y-108.7
X109.15Y-111.24
X111.65Y-94.7
X112.95Y-99.1
X112.95Y-104.1
X114.15Y-94.7
X116.77Y-83.3
X116.77Y-85.84
X116.77Y-88.38
X116.77Y-90.92
X116.77Y-93.46
X116.77Y-96.
X116.77Y-98.54
X116.77Y-101.08
X116.77Y-103.62
X116.77Y-106.16
X116.77Y-108.7
X116.77Y-111.24
X117.16Y-77.3
X119.54Y-87.3
X119.95Y-97.5
X129.7Y-87.3
X130.11Y-97.5
X132.75Y-88.54
X132.75Y-98.7
X132.95Y-74.3
X132.95Y-84.46
T3
X37.1Y-71.05
X37.1Y-75.05
X37.1Y-81.05
X37.1Y-85.05
X37.15Y-100.3
X37.15Y-104.3
X43.1Y-71.05
X43.1Y-75.05
X43.1Y-81.05
X43.1Y-85.05
X43.15Y-100.3
X43.15Y-104.3
X61.15Y-100.3
X61.15Y-104.3
X67.15Y-100.3
X67.15Y-104.3
X73.15Y-100.3
X73.15Y-104.3
X79.15Y-100.3
X79.15Y-104.3
X85.1Y-100.3
X85.1Y-104.3
X91.1Y-100.3
X91.1Y-104.3
X97.1Y-100.3
X97.1Y-104.3
X103.1Y-100.3
X103.1Y-104.3
X121.55Y-90.7
X121.55Y-94.7
X121.55Y-100.3
X121.55Y-104.3
X122.1Y-77.3
X124.6Y-77.3
X127.1Y-77.3
X127.55Y-90.7
X127.55Y-94.7
X127.55Y-100.3
X127.55Y-104.3
T4
X45.Y-61.11
X45.Y-63.65
X50.66Y-70.65
X50.71Y-75.55
X50.71Y-80.55
X50.71Y-85.55
X53.2Y-70.65
X53.25Y-75.55
X53.25Y-80.55
X53.25Y-85.55
X64.1Y-81.26
X64.1Y-83.8
X64.1Y-91.26
X64.1Y-93.8
X64.2Y-71.26
X64.2Y-73.8
X76.1Y-71.26
X76.1Y-73.8
X76.1Y-81.26
X76.1Y-83.8
X76.1Y-91.26
X76.1Y-93.8
X88.1Y-81.26
X88.1Y-83.8
X88.1Y-91.26
X88.1Y-93.8
X88.2Y-71.26
X88.2Y-73.8
X100.1Y-81.26
X100.1Y-83.8
X100.1Y-91.26
X100.1Y-93.8
X100.2Y-71.26
X100.2Y-73.8
X112.Y-71.16
X112.Y-73.7
X124.7Y-81.16
X124.7Y-83.7
T5
X31.2Y-87.25
X31.2Y-89.79
X31.2Y-92.33
X31.2Y-94.87
X31.2Y-97.41
X31.2Y-99.95
X136.25Y-87.25
X136.25Y-89.79
X136.25Y-92.33
X136.25Y-94.87
X136.25Y-97.41
X136.25Y-99.95
T0
M30
